                                                                        S      1
,,12HTOP TUBE.ipt,27HNo Iges File Name specified,22HAutodesk Inventor 20G      1
12,37HAutoDesk Inventor Iges Exporter R2012,32,38,6,99,15,12HTOP TUBE.ipG      2
t,1.0D0,2,2HMM,1,.08D0,15H20150129.120033,.01D0,10000.0D0,3Hjge,,11,0,,;G      3
     406       1       0       0       1       0       0       000000000D      1
     406       0       0       1       3                               0D      2
     120       2       0       0       0       0       0       000010000D      3
     120       0       0       1       0                               0D      4
     110       3       0       0       0       0       0       000010000D      5
     110       0       0       1       0                               0D      6
     110       4       0       0       0       0       0       001010000D      7
     110       0       0       1       0                               0D      8
     504       5       0       0       0       0       0       000010001D      9
     504       0       0       5       1                               0D     10
     502      10       0       0       0       0       0       000010000D     11
     502       0       0      11       1                               0D     12
     100      21       0       0       0       0      15       000010000D     13
     100       0       0       2       0                               0D     14
     124      23       0       0       0       0       0       000000000D     15
     124       0       0       2       0                               0D     16
     508      25       0       0       0       0       0       000010000D     17
     508       0       0       1       1                               0D     18
     100      26       0       0       0       0      21       000010000D     19
     100       0       0       2       0                               0D     20
     124      28       0       0       0       0       0       000000000D     21
     124       0       0       2       0                               0D     22
     508      30       0       0       0       0       0       000010000D     23
     508       0       0       1       1                               0D     24
     510      31       0       0       0       0       0       000010000D     25
     510       0    -307       1       1                               0D     26
     120      32       0       0       0       0       0       000010000D     27
     120       0       0       1       0                               0D     28
     110      33       0       0       0       0       0       000010000D     29
     110       0       0       1       0                               0D     30
     110      34       0       0       0       0       0       001010000D     31
     110       0       0       2       0                               0D     32
     100      36       0       0       0       0      35       000010000D     33
     100       0       0       2       0                               0D     34
     124      38       0       0       0       0       0       000000000D     35
     124       0       0       2       0                               0D     36
     508      40       0       0       0       0       0       000010000D     37
     508       0       0       1       1                               0D     38
     508      41       0       0       0       0       0       000010000D     39
     508       0       0       1       1                               0D     40
     510      42       0       0       0       0       0       000010000D     41
     510       0    -307       1       1                               0D     42
     116      43       0       0       0       0       0       000010000D     43
     116       0       0       1       0                               0D     44
     123      44       0       0       0       0       0       000010200D     45
     123       0       0       1       0                               0D     46
     190      45       0       0       0       0       0       000010000D     47
     190       0       0       1       1                               0D     48
     123      46       0       0       0       0       0       000010200D     49
     123       0       0       1       0                               0D     50
     100      47       0       0       0       0      53       000010000D     51
     100       0       0       2       0                               0D     52
     124      49       0       0       0       0       0       000000000D     53
     124       0       0       2       0                               0D     54
     508      51       0       0       0       0       0       000010000D     55
     508       0       0       1       1                               0D     56
     508      52       0       0       0       0       0       000010000D     57
     508       0       0       1       1                               0D     58
     510      53       0       0       0       0       0       000010000D     59
     510       0    -307       1       1                               0D     60
     120      54       0       0       0       0       0       000010000D     61
     120       0       0       1       0                               0D     62
     110      55       0       0       0       0       0       000010000D     63
     110       0       0       1       0                               0D     64
     110      56       0       0       0       0       0       001010000D     65
     110       0       0       1       0                               0D     66
     508      57       0       0       0       0       0       000010000D     67
     508       0       0       1       1                               0D     68
     100      58       0       0       0       0      71       000010000D     69
     100       0       0       2       0                               0D     70
     124      60       0       0       0       0       0       000000000D     71
     124       0       0       2       0                               0D     72
     508      62       0       0       0       0       0       000010000D     73
     508       0       0       1       1                               0D     74
     510      63       0       0       0       0       0       000010000D     75
     510       0    -307       1       1                               0D     76
     116      64       0       0       0       0       0       000010000D     77
     116       0       0       1       0                               0D     78
     123      65       0       0       0       0       0       000010200D     79
     123       0       0       1       0                               0D     80
     190      66       0       0       0       0       0       000010000D     81
     190       0       0       1       1                               0D     82
     123      67       0       0       0       0       0       000010200D     83
     123       0       0       1       0                               0D     84
     100      68       0       0       0       0      87       000010000D     85
     100       0       0       2       0                               0D     86
     124      70       0       0       0       0       0       000000000D     87
     124       0       0       2       0                               0D     88
     508      72       0       0       0       0       0       000010000D     89
     508       0       0       1       1                               0D     90
     508      73       0       0       0       0       0       000010000D     91
     508       0       0       1       1                               0D     92
     510      74       0       0       0       0       0       000010000D     93
     510       0    -307       1       1                               0D     94
     116      75       0       0       0       0       0       000010000D     95
     116       0       0       1       0                               0D     96
     123      76       0       0       0       0       0       000010200D     97
     123       0       0       1       0                               0D     98
     194      77       0       0       0       0       0       000010000D     99
     194       0       0       1       1                               0D    100
     123      78       0       0       0       0       0       000010200D    101
     123       0       0       1       0                               0D    102
     508      79       0       0       0       0       0       000010000D    103
     508       0       0       1       1                               0D    104
     100      80       0       0       0       0     107       000010000D    105
     100       0       0       2       0                               0D    106
     124      82       0       0       0       0       0       000000000D    107
     124       0       0       2       0                               0D    108
     508      84       0       0       0       0       0       000010000D    109
     508       0       0       1       1                               0D    110
     510      85       0       0       0       0       0       000010000D    111
     510       0    -307       1       1                               0D    112
     116      86       0       0       0       0       0       000010000D    113
     116       0       0       1       0                               0D    114
     123      87       0       0       0       0       0       000010200D    115
     123       0       0       1       0                               0D    116
     192      88       0       0       0       0       0       000010000D    117
     192       0       0       1       1                               0D    118
     123      89       0       0       0       0       0       000010200D    119
     123       0       0       1       0                               0D    120
     100      90       0       0       0       0     123       000010000D    121
     100       0       0       2       0                               0D    122
     124      92       0       0       0       0       0       000000000D    123
     124       0       0       2       0                               0D    124
     508      94       0       0       0       0       0       000010000D    125
     508       0       0       1       1                               0D    126
     508      95       0       0       0       0       0       000010000D    127
     508       0       0       1       1                               0D    128
     510      96       0       0       0       0       0       000010000D    129
     510       0    -307       1       1                               0D    130
     116      97       0       0       0       0       0       000010000D    131
     116       0       0       1       0                               0D    132
     123      98       0       0       0       0       0       000010200D    133
     123       0       0       1       0                               0D    134
     194      99       0       0       0       0       0       000010000D    135
     194       0       0       1       1                               0D    136
     123     100       0       0       0       0       0       000010200D    137
     123       0       0       1       0                               0D    138
     508     101       0       0       0       0       0       000010000D    139
     508       0       0       1       1                               0D    140
     100     102       0       0       0       0     143       000010000D    141
     100       0       0       2       0                               0D    142
     124     104       0       0       0       0       0       000000000D    143
     124       0       0       2       0                               0D    144
     508     106       0       0       0       0       0       000010000D    145
     508       0       0       1       1                               0D    146
     510     107       0       0       0       0       0       000010000D    147
     510       0    -307       1       1                               0D    148
     116     108       0       0       0       0       0       000010000D    149
     116       0       0       1       0                               0D    150
     123     109       0       0       0       0       0       000010200D    151
     123       0       0       1       0                               0D    152
     190     110       0       0       0       0       0       000010000D    153
     190       0       0       1       1                               0D    154
     123     111       0       0       0       0       0       000010200D    155
     123       0       0       1       0                               0D    156
     508     112       0       0       0       0       0       000010000D    157
     508       0       0       1       1                               0D    158
     100     113       0       0       0       0     161       000010000D    159
     100       0       0       2       0                               0D    160
     124     115       0       0       0       0       0       000000000D    161
     124       0       0       2       0                               0D    162
     508     117       0       0       0       0       0       000010000D    163
     508       0       0       1       1                               0D    164
     510     118       0       0       0       0       0       000010000D    165
     510       0    -307       1       1                               0D    166
     116     119       0       0       0       0       0       000010000D    167
     116       0       0       1       0                               0D    168
     123     120       0       0       0       0       0       000010200D    169
     123       0       0       1       0                               0D    170
     194     121       0       0       0       0       0       000010000D    171
     194       0       0       1       1                               0D    172
     123     122       0       0       0       0       0       000010200D    173
     123       0       0       1       0                               0D    174
     100     123       0       0       0       0     177       000010000D    175
     100       0       0       2       0                               0D    176
     124     125       0       0       0       0       0       000000000D    177
     124       0       0       2       0                               0D    178
     508     127       0       0       0       0       0       000010000D    179
     508       0       0       1       1                               0D    180
     100     128       0       0       0       0     183       000010000D    181
     100       0       0       2       0                               0D    182
     124     130       0       0       0       0       0       000000000D    183
     124       0       0       2       0                               0D    184
     508     132       0       0       0       0       0       000010000D    185
     508       0       0       1       1                               0D    186
     510     133       0       0       0       0       0       000010000D    187
     510       0    -307       1       1                               0D    188
     116     134       0       0       0       0       0       000010000D    189
     116       0       0       1       0                               0D    190
     123     135       0       0       0       0       0       000010200D    191
     123       0       0       1       0                               0D    192
     192     136       0       0       0       0       0       000010000D    193
     192       0       0       1       1                               0D    194
     123     137       0       0       0       0       0       000010200D    195
     123       0       0       1       0                               0D    196
     100     138       0       0       0       0     199       000010000D    197
     100       0       0       2       0                               0D    198
     124     140       0       0       0       0       0       000000000D    199
     124       0       0       2       0                               0D    200
     508     142       0       0       0       0       0       000010000D    201
     508       0       0       1       1                               0D    202
     508     143       0       0       0       0       0       000010000D    203
     508       0       0       1       1                               0D    204
     510     144       0       0       0       0       0       000010000D    205
     510       0    -307       1       1                               0D    206
     116     145       0       0       0       0       0       000010000D    207
     116       0       0       1       0                               0D    208
     123     146       0       0       0       0       0       000010200D    209
     123       0       0       1       0                               0D    210
     190     147       0       0       0       0       0       000010000D    211
     190       0       0       1       1                               0D    212
     123     148       0       0       0       0       0       000010200D    213
     123       0       0       1       0                               0D    214
     508     149       0       0       0       0       0       000010000D    215
     508       0       0       1       1                               0D    216
     100     150       0       0       0       0     177       000010000D    217
     100       0       0       2       0                               0D    218
     508     152       0       0       0       0       0       000010000D    219
     508       0       0       1       1                               0D    220
     510     153       0       0       0       0       0       000010000D    221
     510       0    -307       1       1                               0D    222
     116     154       0       0       0       0       0       000010000D    223
     116       0       0       1       0                               0D    224
     123     155       0       0       0       0       0       000010200D    225
     123       0       0       1       0                               0D    226
     194     156       0       0       0       0       0       000010000D    227
     194       0       0       1       1                               0D    228
     123     157       0       0       0       0       0       000010200D    229
     123       0       0       1       0                               0D    230
     100     158       0       0       0       0     233       000010000D    231
     100       0       0       2       0                               0D    232
     124     160       0       0       0       0       0       000000000D    233
     124       0       0       2       0                               0D    234
     508     162       0       0       0       0       0       000010000D    235
     508       0       0       1       1                               0D    236
     508     163       0       0       0       0       0       000010000D    237
     508       0       0       1       1                               0D    238
     510     164       0       0       0       0       0       000010000D    239
     510       0    -307       1       1                               0D    240
     116     165       0       0       0       0       0       000010000D    241
     116       0       0       1       0                               0D    242
     123     166       0       0       0       0       0       000010200D    243
     123       0       0       1       0                               0D    244
     190     167       0       0       0       0       0       000010000D    245
     190       0       0       1       1                               0D    246
     123     168       0       0       0       0       0       000010200D    247
     123       0       0       1       0                               0D    248
     508     169       0       0       0       0       0       000010000D    249
     508       0       0       1       1                               0D    250
     100     170       0       0       0       0     233       000010000D    251
     100       0       0       2       0                               0D    252
     508     172       0       0       0       0       0       000010000D    253
     508       0       0       1       1                               0D    254
     510     173       0       0       0       0       0       000010000D    255
     510       0    -307       1       1                               0D    256
     116     174       0       0       0       0       0       000010000D    257
     116       0       0       1       0                               0D    258
     123     175       0       0       0       0       0       000010200D    259
     123       0       0       1       0                               0D    260
     194     176       0       0       0       0       0       000010000D    261
     194       0       0       1       1                               0D    262
     123     177       0       0       0       0       0       000010200D    263
     123       0       0       1       0                               0D    264
     100     178       0       0       0       0     267       000010000D    265
     100       0       0       2       0                               0D    266
     124     180       0       0       0       0       0       000000000D    267
     124       0       0       2       0                               0D    268
     508     182       0       0       0       0       0       000010000D    269
     508       0       0       1       1                               0D    270
     508     183       0       0       0       0       0       000010000D    271
     508       0       0       1       1                               0D    272
     510     184       0       0       0       0       0       000010000D    273
     510       0    -307       1       1                               0D    274
     116     185       0       0       0       0       0       000010000D    275
     116       0       0       1       0                               0D    276
     123     186       0       0       0       0       0       000010200D    277
     123       0       0       1       0                               0D    278
     192     187       0       0       0       0       0       000010000D    279
     192       0       0       1       1                               0D    280
     123     188       0       0       0       0       0       000010200D    281
     123       0       0       1       0                               0D    282
     508     189       0       0       0       0       0       000010000D    283
     508       0       0       1       1                               0D    284
     508     190       0       0       0       0       0       000010000D    285
     508       0       0       1       1                               0D    286
     510     191       0       0       0       0       0       000010000D    287
     510       0    -307       1       1                               0D    288
     116     192       0       0       0       0       0       000010000D    289
     116       0       0       1       0                               0D    290
     123     193       0       0       0       0       0       000010200D    291
     123       0       0       1       0                               0D    292
     192     194       0       0       0       0       0       000010000D    293
     192       0       0       1       1                               0D    294
     123     195       0       0       0       0       0       000010200D    295
     123       0       0       1       0                               0D    296
     508     196       0       0       0       0       0       000010000D    297
     508       0       0       1       1                               0D    298
     508     197       0       0       0       0       0       000010000D    299
     508       0       0       1       1                               0D    300
     510     198       0       0       0       0       0       000010000D    301
     510       0    -307       1       1                               0D    302
     514     199       0       0       0       0       0       000010000D    303
     514       0       0       2       1                               0D    304
     186     201       0       0       1       0       0       000000000D    305
     186       0       0       1       0                  Solid1       0D    306
     314     202       0       0       0       0       0       000000000D    307
     314       0       2       1       0                               0D    308
406,2,0,8HTOP TUBE;                                                    1P      1
120,7,5,0.0D0,6.28318530717959D0;                                      3P      2
110,3.975D0,0.0D0,-14.375D0,4.525D0,0.0D0,-14.925D0;                   5P      3
110,0.0D0,0.0D0,-14.375D0,0.0D0,0.0D0,-15.375D0;                       7P      4
504,17,13,11,1,11,1,19,11,2,11,2,33,11,3,11,3,51,11,4,11,4,69,         9P      5
11,5,11,5,85,11,6,11,6,105,11,7,11,7,121,11,8,11,8,141,11,9,11,        9P      6
9,159,11,10,11,10,175,11,11,11,11,181,11,12,11,12,197,11,13,11,        9P      7
13,217,11,14,11,14,231,11,15,11,15,251,11,16,11,16,265,11,17,11,       9P      8
17;                                                                    9P      9
502,17,-4.0D0,-4.89858719658941D-16,-14.4D0,-4.5D0,                   11P     10
5.51091059616309D-16,-14.9D0,4.0D0,-4.89858719658941D-16,19.4D0,      11P     11
5.0D0,6.12323399573677D-16,-14.9D0,4.5D0,5.51091059616309D-16,        11P     12
19.9D0,7.5D0,-9.18485099360515D-16,19.9D0,8.0D0,                      11P     13
9.79717439317883D-16,19.4D0,8.0D0,-9.79717439317883D-16,15.4D0,       11P     14
7.5D0,9.18485099360515D-16,14.9D0,5.5D0,6.73555739531044D-16,         11P     15
14.9D0,7.5D0,-9.18485099360515D-16,12.4D0,8.0D0,                      11P     16
9.79717439317883D-16,11.9D0,8.0D0,-9.79717439317883D-16,-11.9D0,      11P     17
5.5D0,6.73555739531044D-16,12.4D0,7.5D0,9.18485099360515D-16,         11P     18
-12.4D0,5.5D0,6.73555739531044D-16,-12.4D0,5.5D0,                     11P     19
-6.73555739531044D-16,-14.4D0;                                        11P     20
100,0.0D0,0.0D0,0.0D0,-4.0D0,4.89858719658941D-16,-4.0D0,             13P     21
4.89858719658941D-16;                                                 13P     22
124,1.0D0,0.0D0,0.0D0,0.0D0,0.0D0,1.0D0,0.0D0,0.0D0,0.0D0,0.0D0,      15P     23
1.0D0,-14.4D0;                                                        15P     24
508,1,0,9,1,1,0;                                                      17P     25
100,0.0D0,0.0D0,0.0D0,-4.5D0,5.51091059616309D-16,-4.5D0,             19P     26
5.51091059616309D-16;                                                 19P     27
124,1.0D0,0.0D0,0.0D0,0.0D0,0.0D0,-1.0D0,0.0D0,0.0D0,0.0D0,           21P     28
0.0D0,-1.0D0,-14.9D0;                                                 21P     29
508,1,0,9,2,1,0;                                                      23P     30
510,3,2,1,17,23;                                                      25P     31
120,31,29,0.0D0,6.28318530717959D0;                                   27P     32
110,4.0D0,0.0D0,-21.6095169810491D0,4.0D0,0.0D0,21.09D0;              29P     33
110,0.0D0,0.0D0,-21.6095169810491D0,0.0D0,0.0D0,                      31P     34
-20.6095169810491D0;                                                  31P     35
100,0.0D0,0.0D0,0.0D0,-4.0D0,4.89858719658941D-16,-4.0D0,             33P     36
4.89858719658941D-16;                                                 33P     37
124,-1.0D0,0.0D0,0.0D0,0.0D0,0.0D0,1.0D0,0.0D0,0.0D0,0.0D0,           35P     38
0.0D0,-1.0D0,19.4D0;                                                  35P     39
508,1,0,9,3,0,0;                                                      37P     40
508,1,0,9,1,0,0;                                                      39P     41
510,27,2,1,37,39;                                                     41P     42
116,0.0D0,0.0D0,-14.9D0,0;                                            43P     43
123,0.0D0,0.0D0,-1.0D0;                                               45P     44
190,43,45,49;                                                         47P     45
123,-1.0D0,0.0D0,0.0D0;                                               49P     46
100,0.0D0,0.0D0,0.0D0,-5.0D0,6.12323399573677D-16,-5.0D0,             51P     47
6.12323399573677D-16;                                                 51P     48
124,-1.0D0,0.0D0,0.0D0,0.0D0,0.0D0,-1.0D0,0.0D0,0.0D0,0.0D0,          53P     49
0.0D0,1.0D0,-14.9D0;                                                  53P     50
508,1,0,9,4,0,0;                                                      55P     51
508,1,0,9,2,0,0;                                                      57P     52
510,47,2,1,55,57;                                                     59P     53
120,65,63,0.0D0,6.28318530717959D0;                                   61P     54
110,-3.975D0,0.0D0,19.375D0,-4.525D0,0.0D0,19.925D0;                  63P     55
110,0.0D0,0.0D0,19.375D0,0.0D0,0.0D0,20.375D0;                        65P     56
508,1,0,9,3,1,0;                                                      67P     57
100,0.0D0,0.0D0,0.0D0,-4.5D0,5.51091059616309D-16,-4.5D0,             69P     58
5.51091059616309D-16;                                                 69P     59
124,-1.0D0,0.0D0,0.0D0,0.0D0,0.0D0,-1.0D0,0.0D0,0.0D0,0.0D0,          71P     60
0.0D0,1.0D0,19.9D0;                                                   71P     61
508,1,0,9,5,1,0;                                                      73P     62
510,61,2,1,67,73;                                                     75P     63
116,0.0D0,0.0D0,19.9D0,0;                                             77P     64
123,0.0D0,0.0D0,1.0D0;                                                79P     65
190,77,79,83;                                                         81P     66
123,1.0D0,0.0D0,0.0D0;                                                83P     67
100,0.0D0,0.0D0,0.0D0,-7.5D0,9.18485099360515D-16,-7.5D0,             85P     68
9.18485099360515D-16;                                                 85P     69
124,-1.0D0,0.0D0,0.0D0,0.0D0,0.0D0,1.0D0,0.0D0,0.0D0,0.0D0,           87P     70
0.0D0,-1.0D0,19.9D0;                                                  87P     71
508,1,0,9,6,0,0;                                                      89P     72
508,1,0,9,5,0,0;                                                      91P     73
510,81,2,1,89,91;                                                     93P     74
116,0.0D0,0.0D0,19.65D0,0;                                            95P     75
123,0.0D0,0.0D0,-1.0D0;                                               97P     76
194,95,97,7.75D0,45.0D0,101;                                          99P     77
123,-1.0D0,0.0D0,0.0D0;                                              101P     78
508,1,0,9,6,1,0;                                                     103P     79
100,0.0D0,0.0D0,0.0D0,-8.0D0,9.79717439317883D-16,-8.0D0,            105P     80
9.79717439317883D-16;                                                105P     81
124,-1.0D0,0.0D0,0.0D0,0.0D0,0.0D0,-1.0D0,0.0D0,0.0D0,0.0D0,         107P     82
0.0D0,1.0D0,19.4D0;                                                  107P     83
508,1,0,9,7,1,0;                                                     109P     84
510,99,2,1,103,109;                                                  111P     85
116,0.0D0,0.0D0,14.9D0,0;                                            113P     86
123,0.0D0,0.0D0,1.0D0;                                               115P     87
192,113,115,8.0D0,119;                                               117P     88
123,-1.0D0,0.0D0,0.0D0;                                              119P     89
100,0.0D0,0.0D0,0.0D0,-8.0D0,9.79717439317883D-16,-8.0D0,            121P     90
9.79717439317883D-16;                                                121P     91
124,-1.0D0,0.0D0,0.0D0,0.0D0,0.0D0,1.0D0,0.0D0,0.0D0,0.0D0,          123P     92
0.0D0,-1.0D0,15.4D0;                                                 123P     93
508,1,0,9,8,0,0;                                                     125P     94
508,1,0,9,7,0,0;                                                     127P     95
510,117,2,1,125,127;                                                 129P     96
116,0.0D0,0.0D0,15.15D0,0;                                           131P     97
123,0.0D0,0.0D0,1.0D0;                                               133P     98
194,131,133,7.75D0,45.0D0,137;                                       135P     99
123,-1.0D0,0.0D0,0.0D0;                                              137P    100
508,1,0,9,8,1,0;                                                     139P    101
100,0.0D0,0.0D0,0.0D0,-7.5D0,9.18485099360515D-16,-7.5D0,            141P    102
9.18485099360515D-16;                                                141P    103
124,-1.0D0,0.0D0,0.0D0,0.0D0,0.0D0,-1.0D0,0.0D0,0.0D0,0.0D0,         143P    104
0.0D0,1.0D0,14.9D0;                                                  143P    105
508,1,0,9,9,1,0;                                                     145P    106
510,135,2,1,139,145;                                                 147P    107
116,0.0D0,0.0D0,14.9D0,0;                                            149P    108
123,0.0D0,0.0D0,-1.0D0;                                              151P    109
190,149,151,155;                                                     153P    110
123,-1.0D0,0.0D0,0.0D0;                                              155P    111
508,1,0,9,9,0,0;                                                     157P    112
100,0.0D0,0.0D0,0.0D0,-5.5D0,6.73555739531044D-16,-5.5D0,            159P    113
6.73555739531044D-16;                                                159P    114
124,-1.0D0,0.0D0,0.0D0,0.0D0,0.0D0,1.0D0,0.0D0,0.0D0,0.0D0,          161P    115
0.0D0,-1.0D0,14.9D0;                                                 161P    116
508,1,0,9,10,0,0;                                                    163P    117
510,153,2,1,157,163;                                                 165P    118
116,0.0D0,0.0D0,12.15D0,0;                                           167P    119
123,0.0D0,0.0D0,-1.0D0;                                              169P    120
194,167,169,7.75D0,45.0D0,173;                                       171P    121
123,-1.0D0,0.0D0,0.0D0;                                              173P    122
100,0.0D0,0.0D0,0.0D0,-7.5D0,9.18485099360515D-16,-7.5D0,            175P    123
9.18485099360515D-16;                                                175P    124
124,-1.0D0,0.0D0,0.0D0,0.0D0,0.0D0,1.0D0,0.0D0,0.0D0,0.0D0,          177P    125
0.0D0,-1.0D0,12.4D0;                                                 177P    126
508,1,0,9,11,1,0;                                                    179P    127
100,0.0D0,0.0D0,0.0D0,-8.0D0,9.79717439317883D-16,-8.0D0,            181P    128
9.79717439317883D-16;                                                181P    129
124,-1.0D0,0.0D0,0.0D0,0.0D0,0.0D0,-1.0D0,0.0D0,0.0D0,0.0D0,         183P    130
0.0D0,1.0D0,11.9D0;                                                  183P    131
508,1,0,9,12,1,0;                                                    185P    132
510,171,2,1,179,185;                                                 187P    133
116,0.0D0,0.0D0,0.0D0,0;                                             189P    134
123,0.0D0,0.0D0,1.0D0;                                               191P    135
192,189,191,8.0D0,195;                                               193P    136
123,-1.0D0,0.0D0,0.0D0;                                              195P    137
100,0.0D0,0.0D0,0.0D0,-8.0D0,9.79717439317883D-16,-8.0D0,            197P    138
9.79717439317883D-16;                                                197P    139
124,-1.0D0,0.0D0,0.0D0,0.0D0,0.0D0,1.0D0,0.0D0,0.0D0,0.0D0,          199P    140
0.0D0,-1.0D0,-11.9D0;                                                199P    141
508,1,0,9,13,0,0;                                                    201P    142
508,1,0,9,12,0,0;                                                    203P    143
510,193,2,1,201,203;                                                 205P    144
116,0.0D0,0.0D0,12.4D0,0;                                            207P    145
123,0.0D0,0.0D0,1.0D0;                                               209P    146
190,207,209,213;                                                     211P    147
123,1.0D0,0.0D0,0.0D0;                                               213P    148
508,1,0,9,11,0,0;                                                    215P    149
100,0.0D0,0.0D0,0.0D0,-5.5D0,6.73555739531044D-16,-5.5D0,            217P    150
6.73555739531044D-16;                                                217P    151
508,1,0,9,14,1,0;                                                    219P    152
510,211,2,1,215,219;                                                 221P    153
116,0.0D0,0.0D0,-12.15D0,0;                                          223P    154
123,0.0D0,0.0D0,1.0D0;                                               225P    155
194,223,225,7.75D0,45.0D0,229;                                       227P    156
123,-1.0D0,0.0D0,0.0D0;                                              229P    157
100,0.0D0,0.0D0,0.0D0,-7.5D0,9.18485099360515D-16,-7.5D0,            231P    158
9.18485099360515D-16;                                                231P    159
124,-1.0D0,0.0D0,0.0D0,0.0D0,0.0D0,-1.0D0,0.0D0,0.0D0,0.0D0,         233P    160
0.0D0,1.0D0,-12.4D0;                                                 233P    161
508,1,0,9,15,1,0;                                                    235P    162
508,1,0,9,13,1,0;                                                    237P    163
510,227,2,1,235,237;                                                 239P    164
116,0.0D0,0.0D0,-12.4D0,0;                                           241P    165
123,0.0D0,0.0D0,-1.0D0;                                              243P    166
190,241,243,247;                                                     245P    167
123,-1.0D0,0.0D0,0.0D0;                                              247P    168
508,1,0,9,15,0,0;                                                    249P    169
100,0.0D0,0.0D0,0.0D0,-5.5D0,6.73555739531044D-16,-5.5D0,            251P    170
6.73555739531044D-16;                                                251P    171
508,1,0,9,16,1,0;                                                    253P    172
510,245,2,1,249,253;                                                 255P    173
116,0.0D0,0.0D0,-14.65D0,0;                                          257P    174
123,0.0D0,0.0D0,1.0D0;                                               259P    175
194,257,259,5.25D0,45.0D0,263;                                       261P    176
123,-1.0D0,0.0D0,0.0D0;                                              263P    177
100,0.0D0,0.0D0,0.0D0,-5.5D0,6.73555739531044D-16,-5.5D0,            265P    178
6.73555739531044D-16;                                                265P    179
124,-1.0D0,0.0D0,0.0D0,0.0D0,0.0D0,1.0D0,0.0D0,0.0D0,0.0D0,          267P    180
0.0D0,-1.0D0,-14.4D0;                                                267P    181
508,1,0,9,17,1,0;                                                    269P    182
508,1,0,9,4,1,0;                                                     271P    183
510,261,2,1,269,271;                                                 273P    184
116,0.0D0,0.0D0,-12.4D0,0;                                           275P    185
123,0.0D0,0.0D0,1.0D0;                                               277P    186
192,275,277,5.5D0,281;                                               279P    187
123,-1.0D0,0.0D0,0.0D0;                                              281P    188
508,1,0,9,16,0,0;                                                    283P    189
508,1,0,9,17,0,0;                                                    285P    190
510,279,2,1,283,285;                                                 287P    191
116,0.0D0,0.0D0,12.4D0,0;                                            289P    192
123,0.0D0,0.0D0,1.0D0;                                               291P    193
192,289,291,5.5D0,295;                                               293P    194
123,-1.0D0,0.0D0,0.0D0;                                              295P    195
508,1,0,9,10,1,0;                                                    297P    196
508,1,0,9,14,0,0;                                                    299P    197
510,293,2,1,297,299;                                                 301P    198
514,17,25,1,41,1,59,1,75,1,93,1,111,1,129,1,147,1,165,1,187,1,       303P    199
205,1,221,1,239,1,255,1,273,1,287,1,301,1;                           303P    200
186,303,1,0;                                                         305P    201
314,65.8824026584625D0,34.9020004272461D0,12.5489994883537D0,;       307P    202
S      1G      3D    308P    202                                        T      1
