                                                                        S      1
,,10HNOZZLE.ipt,27HNo Iges File Name specified,22HAutodesk Inventor 2012G      1
,37HAutoDesk Inventor Iges Exporter R2012,32,38,6,99,15,10HNOZZLE.ipt,  G      2
1.0D0,2,2HMM,1,.08D0,15H20150129.131138,.01D0,10000.0D0,3Hjge,,11,0,,;  G      3
     406       1       0       0       1       0       0       000000000D      1
     406       0       0       1       3                               0D      2
     120       2       0       0       0       0       0       000010000D      3
     120       0       0       1       0                               0D      4
     110       3       0       0       0       0       0       000010000D      5
     110       0       0       1       0                               0D      6
     110       4       0       0       0       0       0       001010000D      7
     110       0       0       1       0                               0D      8
     504       5       0       0       0       0       0       000010001D      9
     504       0       0       8       1                               0D     10
     502      13       0       0       0       0       0       000010000D     11
     502       0       0      17       1                               0D     12
     100      30       0       0       0       0      15       000010000D     13
     100       0       0       2       0                               0D     14
     124      32       0       0       0       0       0       000000000D     15
     124       0       0       2       0                               0D     16
     508      34       0       0       0       0       0       000010000D     17
     508       0       0       1       1                               0D     18
     100      35       0       0       0       0      21       000010000D     19
     100       0       0       2       0                               0D     20
     124      37       0       0       0       0       0       000000000D     21
     124       0       0       2       0                               0D     22
     508      39       0       0       0       0       0       000010000D     23
     508       0       0       1       1                               0D     24
     510      40       0       0       0       0       0       000010000D     25
     510       0    -375       1       1                               0D     26
     116      41       0       0       0       0       0       000010000D     27
     116       0       0       1       0                               0D     28
     123      42       0       0       0       0       0       000010200D     29
     123       0       0       1       0                               0D     30
     190      43       0       0       0       0       0       000010000D     31
     190       0       0       1       1                               0D     32
     123      44       0       0       0       0       0       000010200D     33
     123       0       0       1       0                               0D     34
     100      45       0       0       0       0      15       000010000D     35
     100       0       0       2       0                               0D     36
     508      47       0       0       0       0       0       000010000D     37
     508       0       0       1       1                               0D     38
     508      48       0       0       0       0       0       000010000D     39
     508       0       0       1       1                               0D     40
     510      49       0       0       0       0       0       000010000D     41
     510       0    -375       1       1                               0D     42
     120      50       0       0       0       0       0       000010000D     43
     120       0       0       1       0                               0D     44
     110      51       0       0       0       0       0       000010000D     45
     110       0       0       1       0                               0D     46
     110      52       0       0       0       0       0       001010000D     47
     110       0       0       1       0                               0D     48
     100      53       0       0       0       0      51       000010000D     49
     100       0       0       1       0                               0D     50
     124      54       0       0       0       0       0       000000000D     51
     124       0       0       2       0                               0D     52
     508      56       0       0       0       0       0       000010000D     53
     508       0       0       1       1                               0D     54
     508      57       0       0       0       0       0       000010000D     55
     508       0       0       1       1                               0D     56
     510      58       0       0       0       0       0       000010000D     57
     510       0    -375       1       1                               0D     58
     116      59       0       0       0       0       0       000010000D     59
     116       0       0       1       0                               0D     60
     123      60       0       0       0       0       0       000010200D     61
     123       0       0       1       0                               0D     62
     192      61       0       0       0       0       0       000010000D     63
     192       0       0       1       1                               0D     64
     123      62       0       0       0       0       0       000010200D     65
     123       0       0       1       0                               0D     66
     100      63       0       0       0       0      69       000010000D     67
     100       0       0       2       0                               0D     68
     124      65       0       0       0       0       0       000000000D     69
     124       0       0       2       0                               0D     70
     508      67       0       0       0       0       0       000010000D     71
     508       0       0       1       1                               0D     72
     100      68       0       0       0       0      75       000010000D     73
     100       0       0       2       0                               0D     74
     124      70       0       0       0       0       0       000000000D     75
     124       0       0       2       0                               0D     76
     508      72       0       0       0       0       0       000010000D     77
     508       0       0       1       1                               0D     78
     510      73       0       0       0       0       0       000010000D     79
     510       0    -375       1       1                               0D     80
     116      74       0       0       0       0       0       000010000D     81
     116       0       0       1       0                               0D     82
     123      75       0       0       0       0       0       000010200D     83
     123       0       0       1       0                               0D     84
     190      76       0       0       0       0       0       000010000D     85
     190       0       0       1       1                               0D     86
     123      77       0       0       0       0       0       000010200D     87
     123       0       0       1       0                               0D     88
     100      78       0       0       0       0      91       000010000D     89
     100       0       0       2       0                               0D     90
     124      80       0       0       0       0       0       000000000D     91
     124       0       0       2       0                               0D     92
     508      82       0       0       0       0       0       000010000D     93
     508       0       0       1       1                               0D     94
     508      83       0       0       0       0       0       000010000D     95
     508       0       0       1       1                               0D     96
     510      84       0       0       0       0       0       000010000D     97
     510       0    -375       1       1                               0D     98
     116      85       0       0       0       0       0       000010000D     99
     116       0       0       1       0                               0D    100
     123      86       0       0       0       0       0       000010200D    101
     123       0       0       1       0                               0D    102
     192      87       0       0       0       0       0       000010000D    103
     192       0       0       1       1                               0D    104
     123      88       0       0       0       0       0       000010200D    105
     123       0       0       1       0                               0D    106
     100      89       0       0       0       0     109       000010000D    107
     100       0       0       2       0                               0D    108
     124      91       0       0       0       0       0       000000000D    109
     124       0       0       2       0                               0D    110
     508      93       0       0       0       0       0       000010000D    111
     508       0       0       1       1                               0D    112
     508      94       0       0       0       0       0       000010000D    113
     508       0       0       1       1                               0D    114
     510      95       0       0       0       0       0       000010000D    115
     510       0    -375       1       1                               0D    116
     116      96       0       0       0       0       0       000010000D    117
     116       0       0       1       0                               0D    118
     123      97       0       0       0       0       0       000010200D    119
     123       0       0       1       0                               0D    120
     190      98       0       0       0       0       0       000010000D    121
     190       0       0       1       1                               0D    122
     123      99       0       0       0       0       0       000010200D    123
     123       0       0       1       0                               0D    124
     100     100       0       0       0       0     127       000010000D    125
     100       0       0       2       0                               0D    126
     124     102       0       0       0       0       0       000000000D    127
     124       0       0       2       0                               0D    128
     508     104       0       0       0       0       0       000010000D    129
     508       0       0       1       1                               0D    130
     508     105       0       0       0       0       0       000010000D    131
     508       0       0       1       1                               0D    132
     510     106       0       0       0       0       0       000010000D    133
     510       0    -375       1       1                               0D    134
     120     107       0       0       0       0       0       000010000D    135
     120       0       0       1       0                               0D    136
     110     108       0       0       0       0       0       000010000D    137
     110       0       0       2       0                               0D    138
     110     110       0       0       0       0       0       001010000D    139
     110       0       0       2       0                               0D    140
     100     112       0       0       0       0     143       000010000D    141
     100       0       0       2       0                               0D    142
     124     114       0       0       0       0       0       000000000D    143
     124       0       0       2       0                               0D    144
     508     116       0       0       0       0       0       000010000D    145
     508       0       0       1       1                               0D    146
     508     117       0       0       0       0       0       000010000D    147
     508       0       0       1       1                               0D    148
     510     118       0       0       0       0       0       000010000D    149
     510       0    -375       1       1                               0D    150
     120     119       0       0       0       0       0       000010000D    151
     120       0       0       1       0                               0D    152
     110     120       0       0       0       0       0       000010000D    153
     110       0       0       2       0                               0D    154
     110     122       0       0       0       0       0       001010000D    155
     110       0       0       2       0                               0D    156
     508     124       0       0       0       0       0       000010000D    157
     508       0       0       1       1                               0D    158
     100     125       0       0       0       0     161       000010000D    159
     100       0       0       2       0                               0D    160
     124     127       0       0       0       0       0       000000000D    161
     124       0       0       2       0                               0D    162
     508     129       0       0       0       0       0       000010000D    163
     508       0       0       1       1                               0D    164
     510     130       0       0       0       0       0       000010000D    165
     510       0    -375       1       1                               0D    166
     116     131       0       0       0       0       0       000010000D    167
     116       0       0       1       0                               0D    168
     123     132       0       0       0       0       0       000010200D    169
     123       0       0       1       0                               0D    170
     194     133       0       0       0       0       0       000010000D    171
     194       0       0       1       1                               0D    172
     123     134       0       0       0       0       0       000010200D    173
     123       0       0       1       0                               0D    174
     100     135       0       0       0       0     177       000010000D    175
     100       0       0       2       0                               0D    176
     124     137       0       0       0       0       0       000000000D    177
     124       0       0       2       0                               0D    178
     508     139       0       0       0       0       0       000010000D    179
     508       0       0       1       1                               0D    180
     100     140       0       0       0       0     183       000010000D    181
     100       0       0       2       0                               0D    182
     124     142       0       0       0       0       0       000000000D    183
     124       0       0       2       0                               0D    184
     508     144       0       0       0       0       0       000010000D    185
     508       0       0       1       1                               0D    186
     510     145       0       0       0       0       0       000010000D    187
     510       0    -375       1       1                               0D    188
     116     146       0       0       0       0       0       000010000D    189
     116       0       0       1       0                               0D    190
     123     147       0       0       0       0       0       000010200D    191
     123       0       0       1       0                               0D    192
     192     148       0       0       0       0       0       000010000D    193
     192       0       0       1       1                               0D    194
     123     149       0       0       0       0       0       000010200D    195
     123       0       0       1       0                               0D    196
     100     150       0       0       0       0     199       000010000D    197
     100       0       0       2       0                               0D    198
     124     152       0       0       0       0       0       000000000D    199
     124       0       0       2       0                               0D    200
     508     154       0       0       0       0       0       000010000D    201
     508       0       0       1       1                               0D    202
     508     155       0       0       0       0       0       000010000D    203
     508       0       0       1       1                               0D    204
     510     156       0       0       0       0       0       000010000D    205
     510       0    -375       1       1                               0D    206
     116     157       0       0       0       0       0       000010000D    207
     116       0       0       1       0                               0D    208
     123     158       0       0       0       0       0       000010200D    209
     123       0       0       1       0                               0D    210
     190     159       0       0       0       0       0       000010000D    211
     190       0       0       1       1                               0D    212
     123     160       0       0       0       0       0       000010200D    213
     123       0       0       1       0                               0D    214
     508     161       0       0       0       0       0       000010000D    215
     508       0       0       1       1                               0D    216
     508     162       0       0       0       0       0       000010000D    217
     508       0       0       1       1                               0D    218
     510     163       0       0       0       0       0       000010000D    219
     510       0    -375       1       1                               0D    220
     116     164       0       0       0       0       0       000010000D    221
     116       0       0       1       0                               0D    222
     123     165       0       0       0       0       0       000010200D    223
     123       0       0       1       0                               0D    224
     190     166       0       0       0       0       0       000010000D    225
     190       0       0       1       1                               0D    226
     123     167       0       0       0       0       0       000010200D    227
     123       0       0       1       0                               0D    228
     110     168       0       0       0       0       0       000010000D    229
     110       0       0       2       0                               0D    230
     110     170       0       0       0       0       0       000010000D    231
     110       0       0       2       0                               0D    232
     110     172       0       0       0       0       0       000010000D    233
     110       0       0       2       0                               0D    234
     110     174       0       0       0       0       0       000010000D    235
     110       0       0       2       0                               0D    236
     110     176       0       0       0       0       0       000010000D    237
     110       0       0       2       0                               0D    238
     110     178       0       0       0       0       0       000010000D    239
     110       0       0       2       0                               0D    240
     508     180       0       0       0       0       0       000010000D    241
     508       0       0       2       1                               0D    242
     508     182       0       0       0       0       0       000010000D    243
     508       0       0       1       1                               0D    244
     510     183       0       0       0       0       0       000010000D    245
     510       0    -375       1       1                               0D    246
     116     184       0       0       0       0       0       000010000D    247
     116       0       0       1       0                               0D    248
     123     185       0       0       0       0       0       000010200D    249
     123       0       0       1       0                               0D    250
     190     186       0       0       0       0       0       000010000D    251
     190       0       0       1       1                               0D    252
     123     187       0       0       0       0       0       000010200D    253
     123       0       0       1       0                               0D    254
     110     188       0       0       0       0       0       000010000D    255
     110       0       0       2       0                               0D    256
     110     190       0       0       0       0       0       000010000D    257
     110       0       0       2       0                               0D    258
     110     192       0       0       0       0       0       000010000D    259
     110       0       0       2       0                               0D    260
     508     194       0       0       0       0       0       000010000D    261
     508       0       0       1       1                               0D    262
     510     195       0       0       0       0       0       000010000D    263
     510       0    -375       1       1                               0D    264
     116     196       0       0       0       0       0       000010000D    265
     116       0       0       1       0                               0D    266
     123     197       0       0       0       0       0       000010200D    267
     123       0       0       1       0                               0D    268
     190     198       0       0       0       0       0       000010000D    269
     190       0       0       1       1                               0D    270
     123     199       0       0       0       0       0       000010200D    271
     123       0       0       1       0                               0D    272
     110     200       0       0       0       0       0       000010000D    273
     110       0       0       2       0                               0D    274
     110     202       0       0       0       0       0       000010000D    275
     110       0       0       2       0                               0D    276
     508     204       0       0       0       0       0       000010000D    277
     508       0       0       1       1                               0D    278
     510     205       0       0       0       0       0       000010000D    279
     510       0    -375       1       1                               0D    280
     116     206       0       0       0       0       0       000010000D    281
     116       0       0       1       0                               0D    282
     123     207       0       0       0       0       0       000010200D    283
     123       0       0       1       0                               0D    284
     190     208       0       0       0       0       0       000010000D    285
     190       0       0       1       1                               0D    286
     123     209       0       0       0       0       0       000010200D    287
     123       0       0       1       0                               0D    288
     110     210       0       0       0       0       0       000010000D    289
     110       0       0       2       0                               0D    290
     110     212       0       0       0       0       0       000010000D    291
     110       0       0       2       0                               0D    292
     508     214       0       0       0       0       0       000010000D    293
     508       0       0       1       1                               0D    294
     510     215       0       0       0       0       0       000010000D    295
     510       0    -375       1       1                               0D    296
     116     216       0       0       0       0       0       000010000D    297
     116       0       0       1       0                               0D    298
     123     217       0       0       0       0       0       000010200D    299
     123       0       0       1       0                               0D    300
     190     218       0       0       0       0       0       000010000D    301
     190       0       0       1       1                               0D    302
     123     219       0       0       0       0       0       000010200D    303
     123       0       0       1       0                               0D    304
     110     220       0       0       0       0       0       000010000D    305
     110       0       0       2       0                               0D    306
     110     222       0       0       0       0       0       000010000D    307
     110       0       0       2       0                               0D    308
     508     224       0       0       0       0       0       000010000D    309
     508       0       0       1       1                               0D    310
     510     225       0       0       0       0       0       000010000D    311
     510       0    -375       1       1                               0D    312
     116     226       0       0       0       0       0       000010000D    313
     116       0       0       1       0                               0D    314
     123     227       0       0       0       0       0       000010200D    315
     123       0       0       1       0                               0D    316
     190     228       0       0       0       0       0       000010000D    317
     190       0       0       1       1                               0D    318
     123     229       0       0       0       0       0       000010200D    319
     123       0       0       1       0                               0D    320
     110     230       0       0       0       0       0       000010000D    321
     110       0       0       2       0                               0D    322
     110     232       0       0       0       0       0       000010000D    323
     110       0       0       2       0                               0D    324
     508     234       0       0       0       0       0       000010000D    325
     508       0       0       1       1                               0D    326
     510     235       0       0       0       0       0       000010000D    327
     510       0    -375       1       1                               0D    328
     116     236       0       0       0       0       0       000010000D    329
     116       0       0       1       0                               0D    330
     123     237       0       0       0       0       0       000010200D    331
     123       0       0       1       0                               0D    332
     190     238       0       0       0       0       0       000010000D    333
     190       0       0       1       1                               0D    334
     123     239       0       0       0       0       0       000010200D    335
     123       0       0       1       0                               0D    336
     110     240       0       0       0       0       0       000010000D    337
     110       0       0       2       0                               0D    338
     508     242       0       0       0       0       0       000010000D    339
     508       0       0       1       1                               0D    340
     510     243       0       0       0       0       0       000010000D    341
     510       0    -375       1       1                               0D    342
     116     244       0       0       0       0       0       000010000D    343
     116       0       0       1       0                               0D    344
     123     245       0       0       0       0       0       000010200D    345
     123       0       0       1       0                               0D    346
     190     246       0       0       0       0       0       000010000D    347
     190       0       0       1       1                               0D    348
     123     247       0       0       0       0       0       000010200D    349
     123       0       0       1       0                               0D    350
     508     248       0       0       0       0       0       000010000D    351
     508       0       0       2       1                               0D    352
     508     250       0       0       0       0       0       000010000D    353
     508       0       0       1       1                               0D    354
     510     251       0       0       0       0       0       000010000D    355
     510       0    -375       1       1                               0D    356
     116     252       0       0       0       0       0       000010000D    357
     116       0       0       1       0                               0D    358
     123     253       0       0       0       0       0       000010200D    359
     123       0       0       1       0                               0D    360
     192     254       0       0       0       0       0       000010000D    361
     192       0       0       1       1                               0D    362
     123     255       0       0       0       0       0       000010200D    363
     123       0       0       1       0                               0D    364
     508     256       0       0       0       0       0       000010000D    365
     508       0       0       1       1                               0D    366
     508     257       0       0       0       0       0       000010000D    367
     508       0       0       1       1                               0D    368
     510     258       0       0       0       0       0       000010000D    369
     510       0    -375       1       1                               0D    370
     514     259       0       0       0       0       0       000010000D    371
     514       0       0       3       1                               0D    372
     186     262       0       0       1       0       0       000000000D    373
     186       0       0       1       0                  Solid1       0D    374
     314     263       0       0       0       0       0       000000000D    375
     314       0       2       1       0                               0D    376
406,2,0,6HNOZZLE;                                                      1P      1
120,7,5,0.0D0,6.28318530717959D0;                                      3P      2
110,.92125D0,0.0D0,-3.92125D0,1.00375D0,0.0D0,-4.00375D0;              5P      3
110,0.0D0,0.0D0,-3.92125D0,0.0D0,0.0D0,-4.92125D0;                     7P      4
504,32,13,11,1,11,1,19,11,2,11,2,35,11,3,11,3,49,11,4,11,4,67,         9P      5
11,5,11,5,73,11,6,11,6,89,11,7,11,7,107,11,8,11,8,125,11,9,11,9,       9P      6
141,11,10,11,10,159,11,11,11,11,175,11,12,11,12,181,11,13,11,13,       9P      7
197,11,14,11,14,229,11,15,11,16,231,11,16,11,17,233,11,17,11,18,       9P      8
235,11,18,11,19,237,11,19,11,20,239,11,20,11,15,255,11,21,11,22,       9P      9
257,11,17,11,22,259,11,16,11,21,273,11,22,11,23,275,11,18,11,23,       9P     10
289,11,23,11,24,291,11,19,11,24,305,11,24,11,25,307,11,20,11,25,       9P     11
321,11,25,11,26,323,11,15,11,26,337,11,26,11,21;                       9P     12
502,26,-1.0D0,1.22464679914735D-16,-4.0D0,-.925D0,                    11P     13
-1.1327982892113D-16,-3.925D0,-2.75D0,3.36777869765522D-16,           11P     14
-4.0D0,-.925D0,0.0D0,14.0D0,-2.75D0,3.36777869765523D-16,3.0D0,       11P     15
-2.75D0,3.36777869765523D-16,4.0D0,-3.5D0,4.28626379701573D-16,       11P     16
3.0D0,-2.75D0,3.36777869765522D-16,-2.0D0,-3.5D0,                     11P     17
4.28626379701574D-16,-2.0D0,.175D0,-2.14313189850787D-17,             11P     18
14.4506454642707D0,.175D0,-2.14313189850787D-17,16.0D0,.25D0,         11P     19
-3.06161699786837D-17,16.0D0,2.25D0,2.75545529808155D-16,14.0D0,      11P     20
2.25D0,2.75545529808155D-16,6.0D0,-5.0D0,2.88675134594813D0,          11P     21
4.0D0,-1.38857319693363D-16,5.77350269189625D0,4.0D0,5.0D0,           11P     22
2.88675134594812D0,4.0D0,5.0D0,-2.88675134594813D0,4.0D0,             11P     23
-2.77555756156289D-15,-5.77350269189626D0,4.0D0,-5.0D0,               11P     24
-2.88675134594813D0,4.0D0,-1.38857319693363D-16,                      11P     25
5.77350269189625D0,6.0D0,5.0D0,2.88675134594812D0,6.0D0,5.0D0,        11P     26
-2.88675134594813D0,6.0D0,-2.77555756156289D-15,                      11P     27
-5.77350269189626D0,6.0D0,-5.0D0,-2.88675134594813D0,6.0D0,           11P     28
-5.0D0,2.88675134594813D0,6.0D0;                                      11P     29
100,0.0D0,0.0D0,0.0D0,-1.0D0,1.22464679914735D-16,-1.0D0,             13P     30
1.22464679914735D-16;                                                 13P     31
124,1.0D0,0.0D0,0.0D0,0.0D0,0.0D0,-1.0D0,0.0D0,0.0D0,0.0D0,           15P     32
0.0D0,-1.0D0,-4.0D0;                                                  15P     33
508,1,0,9,1,1,0;                                                      17P     34
100,0.0D0,0.0D0,0.0D0,-.925D0,1.1327982892113D-16,-.925D0,            19P     35
1.1327982892113D-16;                                                  19P     36
124,1.0D0,0.0D0,0.0D0,0.0D0,0.0D0,1.0D0,0.0D0,0.0D0,0.0D0,0.0D0,      21P     37
1.0D0,-3.925D0;                                                       21P     38
508,1,0,9,2,1,0;                                                      23P     39
510,3,2,1,17,23;                                                      25P     40
116,0.0D0,0.0D0,-4.0D0,0;                                             27P     41
123,0.0D0,0.0D0,-1.0D0;                                               29P     42
190,27,29,33;                                                         31P     43
123,-1.0D0,0.0D0,0.0D0;                                               33P     44
100,0.0D0,0.0D0,0.0D0,-2.75D0,3.36777869765522D-16,-2.75D0,           35P     45
3.36777869765522D-16;                                                 35P     46
508,1,0,9,3,1,0;                                                      37P     47
508,1,0,9,1,0,0;                                                      39P     48
510,31,2,1,37,39;                                                     41P     49
120,47,45,0.0D0,6.28318530717959D0;                                   43P     50
110,-.925D0,0.0D0,14.89625D0,-.925D0,0.0D0,-4.82125D0;                45P     51
110,0.0D0,0.0D0,14.89625D0,0.0D0,0.0D0,13.89625D0;                    47P     52
100,0.0D0,0.0D0,0.0D0,.925D0,0.0D0,.925D0,0.0D0;                      49P     53
124,-1.0D0,0.0D0,0.0D0,0.0D0,0.0D0,1.0D0,0.0D0,0.0D0,0.0D0,           51P     54
0.0D0,-1.0D0,14.0D0;                                                  51P     55
508,1,0,9,4,0,0;                                                      53P     56
508,1,0,9,2,0,0;                                                      55P     57
510,43,2,1,53,55;                                                     57P     58
116,-3.54278849650155D-31,1.00083775026169D-30,4.0D0,0;               59P     59
123,0.0D0,-1.84889274661175D-31,-1.0D0;                               61P     60
192,59,61,2.75D0,65;                                                  63P     61
123,1.0D0,0.0D0,0.0D0;                                                65P     62
100,0.0D0,0.0D0,0.0D0,-2.75D0,3.36777869765522D-16,-2.75D0,           67P     63
3.36777869765522D-16;                                                 67P     64
124,1.0D0,0.0D0,0.0D0,-3.54278849650155D-31,0.0D0,1.0D0,0.0D0,        69P     65
8.15948475600514D-31,0.0D0,0.0D0,1.0D0,3.0D0;                         69P     66
508,1,0,9,5,1,0;                                                      71P     67
100,0.0D0,0.0D0,0.0D0,-2.75D0,3.36777869765522D-16,-2.75D0,           73P     68
3.36777869765522D-16;                                                 73P     69
124,1.0D0,0.0D0,0.0D0,-3.54278849650155D-31,0.0D0,-1.0D0,0.0D0,       75P     70
1.00083775026169D-30,0.0D0,0.0D0,-1.0D0,4.0D0;                        75P     71
508,1,0,9,6,1,0;                                                      77P     72
510,63,2,1,71,77;                                                     79P     73
116,6.55547560032194D-47,-1.84889274661175D-31,3.0D0,0;               81P     74
123,0.0D0,0.0D0,1.0D0;                                                83P     75
190,81,83,87;                                                         85P     76
123,1.0D0,0.0D0,0.0D0;                                                87P     77
100,0.0D0,0.0D0,0.0D0,3.5D0,4.28626379701573D-16,3.5D0,               89P     78
4.28626379701573D-16;                                                 89P     79
124,-1.0D0,0.0D0,0.0D0,0.0D0,0.0D0,1.0D0,0.0D0,0.0D0,0.0D0,           91P     80
0.0D0,-1.0D0,3.0D0;                                                   91P     81
508,1,0,9,7,0,0;                                                      93P     82
508,1,0,9,5,0,0;                                                      95P     83
510,85,2,1,93,95;                                                     97P     84
116,0.0D0,0.0D0,-4.0D0,0;                                             99P     85
123,0.0D0,0.0D0,1.0D0;                                               101P     86
192,99,101,2.75D0,105;                                               103P     87
123,1.0D0,0.0D0,0.0D0;                                               105P     88
100,0.0D0,0.0D0,0.0D0,-2.75D0,3.36777869765522D-16,-2.75D0,          107P     89
3.36777869765522D-16;                                                107P     90
124,1.0D0,0.0D0,0.0D0,0.0D0,0.0D0,-1.0D0,0.0D0,0.0D0,0.0D0,          109P     91
0.0D0,-1.0D0,-2.0D0;                                                 109P     92
508,1,0,9,8,1,0;                                                     111P     93
508,1,0,9,3,0,0;                                                     113P     94
510,103,2,1,111,113;                                                 115P     95
116,0.0D0,0.0D0,-2.0D0,0;                                            117P     96
123,0.0D0,0.0D0,-1.0D0;                                              119P     97
190,117,119,123;                                                     121P     98
123,-1.0D0,0.0D0,0.0D0;                                              123P     99
100,0.0D0,0.0D0,0.0D0,3.5D0,-4.28626379701574D-16,3.5D0,             125P    100
-4.28626379701574D-16;                                               125P    101
124,-1.0D0,0.0D0,0.0D0,0.0D0,0.0D0,-1.0D0,0.0D0,0.0D0,0.0D0,         127P    102
0.0D0,1.0D0,-2.0D0;                                                  127P    103
508,1,0,9,9,0,0;                                                     129P    104
508,1,0,9,8,0,0;                                                     131P    105
510,121,2,1,129,131;                                                 133P    106
120,139,137,0.0D0,6.28318530717959D0;                                135P    107
110,0.0D0,0.0D0,14.5557960726005D0,-.971249999999997D0,0.0D0,        137P    108
13.97221019637D0;                                                    137P    109
110,0.0D0,0.0D0,14.5557960726005D0,0.0D0,0.0D0,                      139P    110
13.5557960726005D0;                                                  139P    111
100,0.0D0,0.0D0,0.0D0,-.175D0,2.14313189850787D-17,-.175D0,          141P    112
2.14313189850787D-17;                                                141P    113
124,-1.0D0,0.0D0,0.0D0,0.0D0,0.0D0,1.0D0,0.0D0,0.0D0,0.0D0,          143P    114
0.0D0,-1.0D0,14.4506454642707D0;                                     143P    115
508,1,0,9,10,0,0;                                                    145P    116
508,1,0,9,4,1,0;                                                     147P    117
510,135,2,1,145,147;                                                 149P    118
120,155,153,0.0D0,6.28318530717959D0;                                151P    119
110,-.175D0,0.0D0,21.1661147842358D0,-.175D0,0.0D0,                  153P    120
14.3731777374842D0;                                                  153P    121
110,0.0D0,0.0D0,21.1661147842358D0,0.0D0,0.0D0,                      155P    122
20.1661147842358D0;                                                  155P    123
508,1,0,9,10,1,0;                                                    157P    124
100,0.0D0,0.0D0,0.0D0,-.175D0,2.14313189850787D-17,-.175D0,          159P    125
2.14313189850787D-17;                                                159P    126
124,-1.0D0,0.0D0,0.0D0,0.0D0,0.0D0,1.0D0,0.0D0,0.0D0,0.0D0,          161P    127
0.0D0,-1.0D0,16.0D0;                                                 161P    128
508,1,0,9,11,0,0;                                                    163P    129
510,151,2,1,157,163;                                                 165P    130
116,9.71314512790842D-31,9.0636339035498D-32,15.0D0,0;               167P    131
123,-1.38759216112977D-31,-5.90464749416926D-33,-1.0D0;              169P    132
194,167,169,1.25D0,45.0D0,173;                                       171P    133
123,-1.0D0,0.0D0,0.0D0;                                              173P    134
100,0.0D0,0.0D0,0.0D0,-.25D0,3.06161699786838D-17,-.25D0,            175P    135
3.06161699786838D-17;                                                175P    136
124,-1.0D0,0.0D0,0.0D0,1.11007372890382D-30,0.0D0,1.0D0,0.0D0,       177P    137
9.65409865296673D-32,0.0D0,0.0D0,-1.0D0,16.0D0;                      177P    138
508,1,0,9,12,1,0;                                                    179P    139
100,0.0D0,0.0D0,0.0D0,-2.25D0,2.75545529808154D-16,-2.25D0,          181P    140
2.75545529808154D-16;                                                181P    141
124,-1.0D0,0.0D0,0.0D0,8.32555296677864D-31,0.0D0,-1.0D0,0.0D0,      183P    142
8.47316915413288D-32,0.0D0,0.0D0,1.0D0,14.0D0;                       183P    143
508,1,0,9,13,1,0;                                                    185P    144
510,171,2,1,179,185;                                                 187P    145
116,8.32555296677864D-31,3.54278849650155D-32,6.0D0,0;               189P    146
123,0.0D0,6.16297582203915D-33,1.0D0;                                191P    147
192,189,191,2.25D0,195;                                              193P    148
123,-1.0D0,0.0D0,0.0D0;                                              195P    149
100,0.0D0,0.0D0,0.0D0,-2.25D0,2.75545529808154D-16,-2.25D0,          197P    150
2.75545529808154D-16;                                                197P    151
124,-1.0D0,0.0D0,0.0D0,8.32555296677864D-31,0.0D0,1.0D0,0.0D0,       199P    152
3.54278849650155D-32,0.0D0,0.0D0,-1.0D0,6.0D0;                       199P    153
508,1,0,9,14,0,0;                                                    201P    154
508,1,0,9,13,0,0;                                                    203P    155
510,193,2,1,201,203;                                                 205P    156
116,8.32555296677864D-31,9.70576431854071D-32,16.0D0,0;              207P    157
123,0.0D0,0.0D0,1.0D0;                                               209P    158
190,207,209,213;                                                     211P    159
123,1.0D0,0.0D0,0.0D0;                                               213P    160
508,1,0,9,12,0,0;                                                    215P    161
508,1,0,9,11,1,0;                                                    217P    162
510,211,2,1,215,217;                                                 219P    163
116,4.16333634234434D-16,-8.20051097734491D-16,4.0D0,0;              221P    164
123,0.0D0,0.0D0,-1.0D0;                                              223P    165
190,221,223,227;                                                     225P    166
123,-1.0D0,0.0D0,0.0D0;                                              227P    167
110,-5.0D0,2.88675134594813D0,4.0D0,0.0D0,5.77350269189626D0,        229P    168
4.0D0;                                                               229P    169
110,-1.38857319693363D-16,5.77350269189625D0,4.0D0,5.0D0,            231P    170
2.88675134594812D0,4.0D0;                                            231P    171
110,5.0D0,2.88675134594812D0,4.0D0,5.0D0,-2.88675134594813D0,        233P    172
4.0D0;                                                               233P    173
110,5.0D0,-2.88675134594813D0,4.0D0,-3.5527136788005D-15,            235P    174
-5.77350269189626D0,4.0D0;                                           235P    175
110,-2.77555756156289D-15,-5.77350269189626D0,4.0D0,-5.0D0,          237P    176
-2.88675134594813D0,4.0D0;                                           237P    177
110,-5.0D0,-2.88675134594813D0,4.0D0,-5.0D0,2.88675134594813D0,      239P    178
4.0D0;                                                               239P    179
508,6,0,9,15,1,0,0,9,16,1,0,0,9,17,1,0,0,9,18,1,0,0,9,19,1,0,0,      241P    180
9,20,1,0;                                                            241P    181
508,1,0,9,6,0,0;                                                     243P    182
510,225,2,1,241,243;                                                 245P    183
116,-1.38857319693363D-16,5.77350269189625D0,4.0D0,0;                247P    184
123,.5D0,.866025403784439D0,0.0D0;                                   249P    185
190,247,249,253;                                                     251P    186
123,0.0D0,0.0D0,-1.0D0;                                              253P    187
110,-1.38857319693363D-16,5.77350269189625D0,6.0D0,5.0D0,            255P    188
2.88675134594812D0,6.0D0;                                            255P    189
110,5.0D0,2.88675134594812D0,4.0D0,5.0D0,2.88675134594812D0,         257P    190
6.0D0;                                                               257P    191
110,-1.38857319693363D-16,5.77350269189625D0,4.0D0,                  259P    192
-1.38857319693363D-16,5.77350269189625D0,6.0D0;                      259P    193
508,4,0,9,21,1,0,0,9,22,0,0,0,9,16,0,0,0,9,23,1,0;                   261P    194
510,251,1,1,261;                                                     263P    195
116,5.0D0,2.88675134594812D0,4.0D0,0;                                265P    196
123,1.0D0,0.0D0,0.0D0;                                               267P    197
190,265,267,271;                                                     269P    198
123,0.0D0,0.0D0,-1.0D0;                                              271P    199
110,5.0D0,2.88675134594812D0,6.0D0,5.0D0,-2.88675134594813D0,        273P    200
6.0D0;                                                               273P    201
110,5.0D0,-2.88675134594813D0,4.0D0,5.0D0,-2.88675134594813D0,       275P    202
6.0D0;                                                               275P    203
508,4,0,9,24,1,0,0,9,25,0,0,0,9,17,0,0,0,9,22,1,0;                   277P    204
510,269,1,1,277;                                                     279P    205
116,5.0D0,-2.88675134594813D0,4.0D0,0;                               281P    206
123,.5D0,-.866025403784439D0,0.0D0;                                  283P    207
190,281,283,287;                                                     285P    208
123,0.0D0,0.0D0,-1.0D0;                                              287P    209
110,5.0D0,-2.88675134594813D0,6.0D0,-3.5527136788005D-15,            289P    210
-5.77350269189626D0,6.0D0;                                           289P    211
110,-2.77555756156289D-15,-5.77350269189626D0,4.0D0,                 291P    212
-2.77555756156289D-15,-5.77350269189626D0,6.0D0;                     291P    213
508,4,0,9,26,1,0,0,9,27,0,0,0,9,18,0,0,0,9,25,1,0;                   293P    214
510,285,1,1,293;                                                     295P    215
116,-2.77555756156289D-15,-5.77350269189626D0,4.0D0,0;               297P    216
123,-.5D0,-.866025403784438D0,0.0D0;                                 299P    217
190,297,299,303;                                                     301P    218
123,0.0D0,0.0D0,1.0D0;                                               303P    219
110,-2.77555756156289D-15,-5.77350269189626D0,6.0D0,-5.0D0,          305P    220
-2.88675134594813D0,6.0D0;                                           305P    221
110,-5.0D0,-2.88675134594813D0,4.0D0,-5.0D0,-2.88675134594813D0,     307P    222
6.0D0;                                                               307P    223
508,4,0,9,28,1,0,0,9,29,0,0,0,9,19,0,0,0,9,27,1,0;                   309P    224
510,301,1,1,309;                                                     311P    225
116,-5.0D0,-2.88675134594813D0,4.0D0,0;                              313P    226
123,-1.0D0,0.0D0,0.0D0;                                              315P    227
190,313,315,319;                                                     317P    228
123,0.0D0,0.0D0,1.0D0;                                               319P    229
110,-5.0D0,-2.88675134594813D0,6.0D0,-5.0D0,2.88675134594813D0,      321P    230
6.0D0;                                                               321P    231
110,-5.0D0,2.88675134594813D0,4.0D0,-5.0D0,2.88675134594813D0,       323P    232
6.0D0;                                                               323P    233
508,4,0,9,30,1,0,0,9,31,0,0,0,9,20,0,0,0,9,29,1,0;                   325P    234
510,317,1,1,325;                                                     327P    235
116,-5.0D0,2.88675134594813D0,4.0D0,0;                               329P    236
123,-.5D0,.866025403784439D0,0.0D0;                                  331P    237
190,329,331,335;                                                     333P    238
123,0.0D0,0.0D0,1.0D0;                                               335P    239
110,-5.0D0,2.88675134594813D0,6.0D0,0.0D0,5.77350269189626D0,        337P    240
6.0D0;                                                               337P    241
508,4,0,9,32,1,0,0,9,23,0,0,0,9,15,0,0,0,9,31,1,0;                   339P    242
510,333,1,1,339;                                                     341P    243
116,2.77555756156289D-16,-6.93889390390723D-16,6.0D0,0;              343P    244
123,0.0D0,0.0D0,1.0D0;                                               345P    245
190,343,345,349;                                                     347P    246
123,1.0D0,0.0D0,0.0D0;                                               349P    247
508,6,0,9,21,0,0,0,9,32,0,0,0,9,30,0,0,0,9,28,0,0,0,9,26,0,0,0,      351P    248
9,24,0,0;                                                            351P    249
508,1,0,9,14,1,0;                                                    353P    250
510,347,2,1,351,353;                                                 355P    251
116,0.0D0,0.0D0,0.0D0,0;                                             357P    252
123,0.0D0,0.0D0,1.0D0;                                               359P    253
192,357,359,3.5D0,363;                                               361P    254
123,-1.0D0,0.0D0,0.0D0;                                              363P    255
508,1,0,9,7,1,0;                                                     365P    256
508,1,0,9,9,1,0;                                                     367P    257
510,361,2,1,365,367;                                                 369P    258
514,21,25,1,41,1,57,1,79,1,97,1,115,1,133,1,149,1,165,1,187,1,       371P    259
205,1,219,1,245,1,263,1,279,1,295,1,311,1,327,1,341,1,355,1,369,     371P    260
1;                                                                   371P    261
186,371,1,0;                                                         373P    262
314,65.8824026584625D0,34.9020004272461D0,12.5489994883537D0,;       375P    263
S      1G      3D    376P    263                                        T      1
