                                                                        S      1
,,16HFILLER PIECE.ipt,27HNo Iges File Name specified,22HAutodesk InventoG      1
r 2012,37HAutoDesk Inventor Iges Exporter R2012,32,38,6,99,15,16HFILLER G      2
PIECE.ipt,1.0D0,2,2HMM,1,.08D0,15H20150129.113222,.01D0,10000.0D0,3Hjge,G      3
,11,0,,;                                                                G      4
     406       1       0       0       1       0       0       000000000D      1
     406       0       0       1       3                               0D      2
     120       2       0       0       0       0       0       000010000D      3
     120       0       0       1       0                               0D      4
     110       3       0       0       0       0       0       000010000D      5
     110       0       0       2       0                               0D      6
     110       5       0       0       0       0       0       001010000D      7
     110       0       0       2       0                               0D      8
     504       7       0       0       0       0       0       000010001D      9
     504       0       0       6       1                               0D     10
     502      13       0       0       0       0       0       000010000D     11
     502       0       0      12       1                               0D     12
     100      25       0       0       0       0      15       000010000D     13
     100       0       0       2       0                               0D     14
     124      27       0       0       0       0       0       000000000D     15
     124       0       0       2       0                               0D     16
     508      29       0       0       0       0       0       000010000D     17
     508       0       0       1       1                               0D     18
     100      30       0       0       0       0      21       000010000D     19
     100       0       0       2       0                               0D     20
     124      32       0       0       0       0       0       000000000D     21
     124       0       0       2       0                               0D     22
     508      34       0       0       0       0       0       000010000D     23
     508       0       0       1       1                               0D     24
     510      35       0       0       0       0       0       000010000D     25
     510       0       1       1       1                               0D     26
     120      36       0       0       0       0       0       000010000D     27
     120       0       0       1       0                               0D     28
     110      37       0       0       0       0       0       000010000D     29
     110       0       0       2       0                               0D     30
     110      39       0       0       0       0       0       001010000D     31
     110       0       0       2       0                               0D     32
     100      41       0       0       0       0      35       000010000D     33
     100       0       0       2       0                               0D     34
     124      43       0       0       0       0       0       000000000D     35
     124       0       0       2       0                               0D     36
     508      45       0       0       0       0       0       000010000D     37
     508       0       0       1       1                               0D     38
     508      46       0       0       0       0       0       000010000D     39
     508       0       0       1       1                               0D     40
     510      47       0       0       0       0       0       000010000D     41
     510       0       1       1       1                               0D     42
     116      48       0       0       0       0       0       000010000D     43
     116       0       0       1       0                               0D     44
     123      49       0       0       0       0       0       000010200D     45
     123       0       0       1       0                               0D     46
     190      50       0       0       0       0       0       000010000D     47
     190       0       0       1       1                               0D     48
     123      51       0       0       0       0       0       000010200D     49
     123       0       0       1       0                               0D     50
     110      52       0       0       0       0       0       000010000D     51
     110       0       0       2       0                               0D     52
     110      54       0       0       0       0       0       000010000D     53
     110       0       0       2       0                               0D     54
     110      56       0       0       0       0       0       000010000D     55
     110       0       0       2       0                               0D     56
     110      58       0       0       0       0       0       000010000D     57
     110       0       0       2       0                               0D     58
     110      60       0       0       0       0       0       000010000D     59
     110       0       0       2       0                               0D     60
     110      62       0       0       0       0       0       000010000D     61
     110       0       0       2       0                               0D     62
     508      64       0       0       0       0       0       000010000D     63
     508       0       0       2       1                               0D     64
     508      66       0       0       0       0       0       000010000D     65
     508       0       0       1       1                               0D     66
     510      67       0       0       0       0       0       000010000D     67
     510       0       1       1       1                               0D     68
     116      68       0       0       0       0       0       000010000D     69
     116       0       0       1       0                               0D     70
     123      69       0       0       0       0       0       000010200D     71
     123       0       0       1       0                               0D     72
     190      70       0       0       0       0       0       000010000D     73
     190       0       0       1       1                               0D     74
     123      71       0       0       0       0       0       000010200D     75
     123       0       0       1       0                               0D     76
     110      72       0       0       0       0       0       000010000D     77
     110       0       0       2       0                               0D     78
     110      74       0       0       0       0       0       000010000D     79
     110       0       0       2       0                               0D     80
     110      76       0       0       0       0       0       000010000D     81
     110       0       0       2       0                               0D     82
     110      78       0       0       0       0       0       000010000D     83
     110       0       0       2       0                               0D     84
     110      80       0       0       0       0       0       000010000D     85
     110       0       0       2       0                               0D     86
     110      82       0       0       0       0       0       000010000D     87
     110       0       0       2       0                               0D     88
     508      84       0       0       0       0       0       000010000D     89
     508       0       0       2       1                               0D     90
     100      86       0       0       0       0      93       000010000D     91
     100       0       0       2       0                               0D     92
     124      88       0       0       0       0       0       000000000D     93
     124       0       0       2       0                               0D     94
     508      90       0       0       0       0       0       000010000D     95
     508       0       0       1       1                               0D     96
     510      91       0       0       0       0       0       000010000D     97
     510       0       1       1       1                               0D     98
     116      92       0       0       0       0       0       000010000D     99
     116       0       0       1       0                               0D    100
     123      93       0       0       0       0       0       000010200D    101
     123       0       0       1       0                               0D    102
     190      94       0       0       0       0       0       000010000D    103
     190       0       0       1       1                               0D    104
     123      95       0       0       0       0       0       000010200D    105
     123       0       0       1       0                               0D    106
     110      96       0       0       0       0       0       000010000D    107
     110       0       0       2       0                               0D    108
     110      98       0       0       0       0       0       000010000D    109
     110       0       0       2       0                               0D    110
     508     100       0       0       0       0       0       000010000D    111
     508       0       0       1       1                               0D    112
     510     101       0       0       0       0       0       000010000D    113
     510       0       1       1       1                               0D    114
     116     102       0       0       0       0       0       000010000D    115
     116       0       0       1       0                               0D    116
     123     103       0       0       0       0       0       000010200D    117
     123       0       0       1       0                               0D    118
     190     104       0       0       0       0       0       000010000D    119
     190       0       0       1       1                               0D    120
     123     105       0       0       0       0       0       000010200D    121
     123       0       0       1       0                               0D    122
     110     106       0       0       0       0       0       000010000D    123
     110       0       0       2       0                               0D    124
     508     108       0       0       0       0       0       000010000D    125
     508       0       0       1       1                               0D    126
     510     109       0       0       0       0       0       000010000D    127
     510       0       1       1       1                               0D    128
     116     110       0       0       0       0       0       000010000D    129
     116       0       0       1       0                               0D    130
     123     111       0       0       0       0       0       000010200D    131
     123       0       0       1       0                               0D    132
     190     112       0       0       0       0       0       000010000D    133
     190       0       0       1       1                               0D    134
     123     113       0       0       0       0       0       000010200D    135
     123       0       0       1       0                               0D    136
     110     114       0       0       0       0       0       000010000D    137
     110       0       0       2       0                               0D    138
     508     116       0       0       0       0       0       000010000D    139
     508       0       0       1       1                               0D    140
     510     117       0       0       0       0       0       000010000D    141
     510       0       1       1       1                               0D    142
     116     118       0       0       0       0       0       000010000D    143
     116       0       0       1       0                               0D    144
     123     119       0       0       0       0       0       000010200D    145
     123       0       0       1       0                               0D    146
     190     120       0       0       0       0       0       000010000D    147
     190       0       0       1       1                               0D    148
     123     121       0       0       0       0       0       000010200D    149
     123       0       0       1       0                               0D    150
     110     122       0       0       0       0       0       000010000D    151
     110       0       0       2       0                               0D    152
     508     124       0       0       0       0       0       000010000D    153
     508       0       0       1       1                               0D    154
     510     125       0       0       0       0       0       000010000D    155
     510       0       1       1       1                               0D    156
     116     126       0       0       0       0       0       000010000D    157
     116       0       0       1       0                               0D    158
     123     127       0       0       0       0       0       000010200D    159
     123       0       0       1       0                               0D    160
     190     128       0       0       0       0       0       000010000D    161
     190       0       0       1       1                               0D    162
     123     129       0       0       0       0       0       000010200D    163
     123       0       0       1       0                               0D    164
     110     130       0       0       0       0       0       000010000D    165
     110       0       0       2       0                               0D    166
     508     132       0       0       0       0       0       000010000D    167
     508       0       0       1       1                               0D    168
     510     133       0       0       0       0       0       000010000D    169
     510       0       1       1       1                               0D    170
     116     134       0       0       0       0       0       000010000D    171
     116       0       0       1       0                               0D    172
     123     135       0       0       0       0       0       000010200D    173
     123       0       0       1       0                               0D    174
     190     136       0       0       0       0       0       000010000D    175
     190       0       0       1       1                               0D    176
     123     137       0       0       0       0       0       000010200D    177
     123       0       0       1       0                               0D    178
     508     138       0       0       0       0       0       000010000D    179
     508       0       0       1       1                               0D    180
     510     139       0       0       0       0       0       000010000D    181
     510       0       1       1       1                               0D    182
     116     140       0       0       0       0       0       000010000D    183
     116       0       0       1       0                               0D    184
     123     141       0       0       0       0       0       000010200D    185
     123       0       0       1       0                               0D    186
     192     142       0       0       0       0       0       000010000D    187
     192       0       0       1       1                               0D    188
     123     143       0       0       0       0       0       000010200D    189
     123       0       0       1       0                               0D    190
     100     144       0       0       0       0     193       000010000D    191
     100       0       0       2       0                               0D    192
     124     146       0       0       0       0       0       000000000D    193
     124       0       0       2       0                               0D    194
     508     148       0       0       0       0       0       000010000D    195
     508       0       0       1       1                               0D    196
     508     149       0       0       0       0       0       000010000D    197
     508       0       0       1       1                               0D    198
     510     150       0       0       0       0       0       000010000D    199
     510       0       1       1       1                               0D    200
     116     151       0       0       0       0       0       000010000D    201
     116       0       0       1       0                               0D    202
     123     152       0       0       0       0       0       000010200D    203
     123       0       0       1       0                               0D    204
     190     153       0       0       0       0       0       000010000D    205
     190       0       0       1       1                               0D    206
     123     154       0       0       0       0       0       000010200D    207
     123       0       0       1       0                               0D    208
     508     155       0       0       0       0       0       000010000D    209
     508       0       0       1       1                               0D    210
     508     156       0       0       0       0       0       000010000D    211
     508       0       0       1       1                               0D    212
     510     157       0       0       0       0       0       000010000D    213
     510       0       1       1       1                               0D    214
     514     158       0       0       0       0       0       000010000D    215
     514       0       0       2       1                               0D    216
     186     160       0       0       1       0       0       000000000D    217
     186       0       0       1       0                  Solid1       0D    218
406,2,0,12HFILLER PIECE;                                               1P      1
120,7,5,0.0D0,6.28318530717959D0;                                      3P      2
110,6.66133814775094D-15,3.05311331771918D-15,-1.0625D0,               5P      3
3.08437500000001D0,3.05311331771918D-15,-4.146875D0;                   5P      4
110,6.66133814775094D-15,3.05311331771918D-15,-1.0625D0,               7P      5
6.66133814775094D-15,3.05311331771918D-15,-2.0625D0;                   7P      6
504,23,13,11,1,11,1,19,11,2,11,2,33,11,3,11,3,51,11,4,11,5,53,         9P      7
11,6,11,4,55,11,7,11,6,57,11,8,11,7,59,11,9,11,8,61,11,5,11,9,         9P      8
77,11,10,11,11,79,11,11,11,12,81,11,12,11,13,83,11,13,11,14,85,        9P      9
11,14,11,15,87,11,15,11,10,91,11,16,11,16,107,11,12,11,5,109,11,       9P     10
11,11,4,123,11,13,11,9,137,11,14,11,8,151,11,15,11,7,165,11,10,        9P     11
11,6,191,11,17,11,17;                                                  9P     12
502,17,-.937499999999994D0,2.93830268029912D-15,-2.0D0,               11P     13
-2.93749999999999D0,3.41285331496872D-15,-4.0D0,                      11P     14
-.937499999999994D0,3.16792395513925D-15,6.0D0,-3.875D0,              11P     15
-2.2372322931098D0,-4.0D0,-7.85609738784414D-16,                      11P     16
-4.4744645862196D0,-4.0D0,-3.875D0,2.2372322931098D0,-4.0D0,          11P     17
-8.12673434968591D-16,4.4744645862196D0,-4.0D0,3.875D0,               11P     18
2.2372322931098D0,-4.0D0,3.875D0,-2.2372322931098D0,-4.0D0,           11P     19
-3.875D0,2.2372322931098D0,0.0D0,-3.875D0,-2.2372322931098D0,         11P     20
0.0D0,-7.85609738784414D-16,-4.4744645862196D0,0.0D0,3.875D0,         11P     21
-2.2372322931098D0,0.0D0,3.875D0,2.2372322931098D0,0.0D0,             11P     22
-8.12673434968591D-16,4.4744645862196D0,0.0D0,2.5D0,                  11P     23
3.06161699786838D-16,0.0D0,2.5D0,3.06161699786838D-16,6.0D0;          11P     24
100,0.0D0,0.0D0,0.0D0,-.9375D0,1.14810637420064D-16,-.9375D0,         13P     25
1.14810637420064D-16;                                                 13P     26
124,1.0D0,0.0D0,0.0D0,6.66133814775094D-15,0.0D0,1.0D0,0.0D0,         15P     27
3.05311331771918D-15,0.0D0,0.0D0,1.0D0,-2.0D0;                        15P     28
508,1,0,9,1,1,0;                                                      17P     29
100,0.0D0,0.0D0,0.0D0,-2.9375D0,3.59739997249535D-16,-2.9375D0,       19P     30
3.59739997249535D-16;                                                 19P     31
124,1.0D0,0.0D0,0.0D0,6.66133814775094D-15,0.0D0,-1.0D0,0.0D0,        21P     32
3.05311331771918D-15,0.0D0,0.0D0,-1.0D0,-4.0D0;                       21P     33
508,1,0,9,2,1,0;                                                      23P     34
510,3,2,1,17,23;                                                      25P     35
120,31,29,0.0D0,6.28318530717959D0;                                   27P     36
110,.937500000000007D0,3.05311331771918D-15,-4.0D0,                   29P     37
.937500000000007D0,3.05311331771918D-15,6.4D0;                        29P     38
110,6.66133814775094D-15,3.05311331771918D-15,-4.0D0,                 31P     39
6.66133814775094D-15,3.05311331771918D-15,-3.0D0;                     31P     40
100,0.0D0,0.0D0,0.0D0,-.9375D0,1.14810637420064D-16,-.9375D0,         33P     41
1.14810637420064D-16;                                                 33P     42
124,1.0D0,0.0D0,0.0D0,6.66133814775094D-15,0.0D0,-1.0D0,0.0D0,        35P     43
3.05311331771918D-15,0.0D0,0.0D0,-1.0D0,6.0D0;                        35P     44
508,1,0,9,3,0,0;                                                      37P     45
508,1,0,9,1,0,0;                                                      39P     46
510,27,2,1,37,39;                                                     41P     47
116,-2.08166817117217D-15,-1.2490009027033D-15,-4.0D0,0;              43P     48
123,0.0D0,0.0D0,-1.0D0;                                               45P     49
190,43,45,49;                                                         47P     50
123,-1.0D0,0.0D0,0.0D0;                                               49P     51
110,-3.875D0,-2.2372322931098D0,-4.0D0,8.88178419700125D-16,          51P     52
-4.4744645862196D0,-4.0D0;                                            51P     53
110,-3.875D0,2.2372322931098D0,-4.0D0,-3.875D0,                       53P     54
-2.2372322931098D0,-4.0D0;                                            53P     55
110,-8.12673434968591D-16,4.4744645862196D0,-4.0D0,-3.875D0,          55P     56
2.2372322931098D0,-4.0D0;                                             55P     57
110,3.875D0,2.2372322931098D0,-4.0D0,-8.88178419700125D-16,           57P     58
4.4744645862196D0,-4.0D0;                                             57P     59
110,3.875D0,-2.2372322931098D0,-4.0D0,3.875D0,2.2372322931098D0,      59P     60
-4.0D0;                                                               59P     61
110,-7.85609738784414D-16,-4.4744645862196D0,-4.0D0,3.875D0,          61P     62
-2.2372322931098D0,-4.0D0;                                            61P     63
508,6,0,9,4,0,0,0,9,5,0,0,0,9,6,0,0,0,9,7,0,0,0,9,8,0,0,0,9,9,0,      63P     64
0;                                                                    63P     65
508,1,0,9,2,0,0;                                                      65P     66
510,47,2,1,63,65;                                                     67P     67
116,-2.08166817117217D-15,-1.2490009027033D-15,0.0D0,0;               69P     68
123,0.0D0,0.0D0,1.0D0;                                                71P     69
190,69,71,75;                                                         73P     70
123,1.0D0,0.0D0,0.0D0;                                                75P     71
110,-3.875D0,2.2372322931098D0,0.0D0,-3.875D0,                        77P     72
-2.2372322931098D0,0.0D0;                                             77P     73
110,-3.875D0,-2.2372322931098D0,0.0D0,8.88178419700125D-16,           79P     74
-4.4744645862196D0,0.0D0;                                             79P     75
110,-7.85609738784414D-16,-4.4744645862196D0,0.0D0,3.875D0,           81P     76
-2.2372322931098D0,0.0D0;                                             81P     77
110,3.875D0,-2.2372322931098D0,0.0D0,3.875D0,2.2372322931098D0,       83P     78
0.0D0;                                                                83P     79
110,3.875D0,2.2372322931098D0,0.0D0,-8.88178419700125D-16,            85P     80
4.4744645862196D0,0.0D0;                                              85P     81
110,-8.12673434968591D-16,4.4744645862196D0,0.0D0,-3.875D0,           87P     82
2.2372322931098D0,0.0D0;                                              87P     83
508,6,0,9,10,1,0,0,9,11,1,0,0,9,12,1,0,0,9,13,1,0,0,9,14,1,0,0,       89P     84
9,15,1,0;                                                             89P     85
100,0.0D0,0.0D0,0.0D0,-2.5D0,3.06161699786838D-16,-2.5D0,             91P     86
3.06161699786838D-16;                                                 91P     87
124,-1.0D0,0.0D0,0.0D0,0.0D0,0.0D0,1.0D0,0.0D0,0.0D0,0.0D0,           93P     88
0.0D0,-1.0D0,0.0D0;                                                   93P     89
508,1,0,9,16,1,0;                                                     95P     90
510,73,2,1,89,95;                                                     97P     91
116,-3.875D0,-2.2372322931098D0,0.0D0,0;                              99P     92
123,-.5D0,-.866025403784439D0,0.0D0;                                 101P     93
190,99,101,105;                                                      103P     94
123,0.0D0,0.0D0,-1.0D0;                                              105P     95
110,-7.85609738784414D-16,-4.4744645862196D0,0.0D0,                  107P     96
-7.85609738784414D-16,-4.4744645862196D0,-4.0D0;                     107P     97
110,-3.875D0,-2.2372322931098D0,0.0D0,-3.875D0,                      109P     98
-2.2372322931098D0,-4.0D0;                                           109P     99
508,4,0,9,4,1,0,0,9,17,0,0,0,9,11,0,0,0,9,18,1,0;                    111P    100
510,103,1,1,111;                                                     113P    101
116,-7.85609738784414D-16,-4.4744645862196D0,0.0D0,0;                115P    102
123,.5D0,-.866025403784439D0,0.0D0;                                  117P    103
190,115,117,121;                                                     119P    104
123,0.0D0,0.0D0,-1.0D0;                                              121P    105
110,3.875D0,-2.2372322931098D0,0.0D0,3.875D0,-2.2372322931098D0,     123P    106
-4.0D0;                                                              123P    107
508,4,0,9,9,1,0,0,9,19,0,0,0,9,12,0,0,0,9,17,1,0;                    125P    108
510,119,1,1,125;                                                     127P    109
116,3.875D0,-2.2372322931098D0,0.0D0,0;                              129P    110
123,1.0D0,0.0D0,0.0D0;                                               131P    111
190,129,131,135;                                                     133P    112
123,0.0D0,0.0D0,-1.0D0;                                              135P    113
110,3.875D0,2.2372322931098D0,0.0D0,3.875D0,2.2372322931098D0,       137P    114
-4.0D0;                                                              137P    115
508,4,0,9,8,1,0,0,9,20,0,0,0,9,13,0,0,0,9,19,1,0;                    139P    116
510,133,1,1,139;                                                     141P    117
116,3.875D0,2.2372322931098D0,0.0D0,0;                               143P    118
123,.5D0,.866025403784439D0,0.0D0;                                   145P    119
190,143,145,149;                                                     147P    120
123,0.0D0,0.0D0,-1.0D0;                                              149P    121
110,-8.12673434968591D-16,4.4744645862196D0,0.0D0,                   151P    122
-8.12673434968591D-16,4.4744645862196D0,-4.0D0;                      151P    123
508,4,0,9,7,1,0,0,9,21,0,0,0,9,14,0,0,0,9,20,1,0;                    153P    124
510,147,1,1,153;                                                     155P    125
116,-8.12673434968591D-16,4.4744645862196D0,0.0D0,0;                 157P    126
123,-.5D0,.866025403784439D0,0.0D0;                                  159P    127
190,157,159,163;                                                     161P    128
123,0.0D0,0.0D0,1.0D0;                                               163P    129
110,-3.875D0,2.2372322931098D0,0.0D0,-3.875D0,2.2372322931098D0,     165P    130
-4.0D0;                                                              165P    131
508,4,0,9,6,1,0,0,9,22,0,0,0,9,15,0,0,0,9,21,1,0;                    167P    132
510,161,1,1,167;                                                     169P    133
116,-3.875D0,2.2372322931098D0,0.0D0,0;                              171P    134
123,-1.0D0,0.0D0,0.0D0;                                              173P    135
190,171,173,177;                                                     175P    136
123,0.0D0,0.0D0,1.0D0;                                               177P    137
508,4,0,9,5,1,0,0,9,18,0,0,0,9,10,0,0,0,9,22,1,0;                    179P    138
510,175,1,1,179;                                                     181P    139
116,0.0D0,0.0D0,0.0D0,0;                                             183P    140
123,0.0D0,0.0D0,1.0D0;                                               185P    141
192,183,185,2.5D0,189;                                               187P    142
123,-1.0D0,0.0D0,0.0D0;                                              189P    143
100,0.0D0,0.0D0,0.0D0,-2.5D0,3.06161699786838D-16,-2.5D0,            191P    144
3.06161699786838D-16;                                                191P    145
124,-1.0D0,0.0D0,0.0D0,0.0D0,0.0D0,1.0D0,0.0D0,0.0D0,0.0D0,          193P    146
0.0D0,-1.0D0,6.0D0;                                                  193P    147
508,1,0,9,23,1,0;                                                    195P    148
508,1,0,9,16,0,0;                                                    197P    149
510,187,2,1,195,197;                                                 199P    150
116,0.0D0,0.0D0,6.0D0,0;                                             201P    151
123,0.0D0,0.0D0,1.0D0;                                               203P    152
190,201,203,207;                                                     205P    153
123,1.0D0,0.0D0,0.0D0;                                               207P    154
508,1,0,9,23,0,0;                                                    209P    155
508,1,0,9,3,1,0;                                                     211P    156
510,205,2,1,209,211;                                                 213P    157
514,12,25,1,41,1,67,1,97,1,113,1,127,1,141,1,155,1,169,1,181,1,      215P    158
199,1,213,1;                                                         215P    159
186,215,1,0;                                                         217P    160
S      1G      4D    218P    160                                        T      1
