                                                                        S      1
,,28HTENSION RELIEF BRACKET 2.ipt,27HNo Iges File Name specified,22HAutoG      1
desk Inventor 2012,37HAutoDesk Inventor Iges Exporter R2012,32,38,6,99, G      2
15,28HTENSION RELIEF BRACKET 2.ipt,1.0D0,2,2HMM,1,.08D0,15H20150129.1308G      3
58,.01D0,10000.0D0,3Hjge,,11,0,,;                                       G      4
     406       1       0       0       1       0       0       000000000D      1
     406       0       0       1       3                               0D      2
     116       2       0       0       0       0       0       000010000D      3
     116       0       0       1       0                               0D      4
     123       3       0       0       0       0       0       000010200D      5
     123       0       0       1       0                               0D      6
     190       4       0       0       0       0       0       000010000D      7
     190       0       0       1       1                               0D      8
     123       5       0       0       0       0       0       000010200D      9
     123       0       0       1       0                               0D     10
     504       6       0       0       0       0       0       000010001D     11
     504       0       0       9       1                               0D     12
     502      15       0       0       0       0       0       000010000D     13
     502       0       0      18       1                               0D     14
     110      33       0       0       0       0       0       000010000D     15
     110       0       0       2       0                               0D     16
     110      35       0       0       0       0       0       000010000D     17
     110       0       0       2       0                               0D     18
     110      37       0       0       0       0       0       000010000D     19
     110       0       0       2       0                               0D     20
     110      39       0       0       0       0       0       000010000D     21
     110       0       0       2       0                               0D     22
     508      41       0       0       0       0       0       000010000D     23
     508       0       0       1       1                               0D     24
     510      42       0       0       0       0       0       000010000D     25
     510       0    -305       1       1                               0D     26
     116      43       0       0       0       0       0       000010000D     27
     116       0       0       1       0                               0D     28
     123      44       0       0       0       0       0       000010200D     29
     123       0       0       1       0                               0D     30
     190      45       0       0       0       0       0       000010000D     31
     190       0       0       1       1                               0D     32
     123      46       0       0       0       0       0       000010200D     33
     123       0       0       1       0                               0D     34
     100      47       0       0       0       0      37       000010000D     35
     100       0       0       2       0                               0D     36
     124      49       0       0       0       0       0       000000000D     37
     124       0       0       2       0                               0D     38
     100      51       0       0       0       0      41       000010000D     39
     100       0       0       2       0                               0D     40
     124      53       0       0       0       0       0       000000000D     41
     124       0       0       3       0                               0D     42
     110      56       0       0       0       0       0       000010000D     43
     110       0       0       2       0                               0D     44
     100      58       0       0       0       0      47       000010000D     45
     100       0       0       2       0                               0D     46
     124      60       0       0       0       0       0       000000000D     47
     124       0       0       2       0                               0D     48
     110      62       0       0       0       0       0       000010000D     49
     110       0       0       2       0                               0D     50
     100      64       0       0       0       0      53       000010000D     51
     100       0       0       2       0                               0D     52
     124      66       0       0       0       0       0       000000000D     53
     124       0       0       2       0                               0D     54
     110      68       0       0       0       0       0       000010000D     55
     110       0       0       2       0                               0D     56
     100      70       0       0       0       0      59       000010000D     57
     100       0       0       2       0                               0D     58
     124      72       0       0       0       0       0       000000000D     59
     124       0       0       2       0                               0D     60
     110      74       0       0       0       0       0       000010000D     61
     110       0       0       2       0                               0D     62
     508      76       0       0       0       0       0       000010000D     63
     508       0       0       2       1                               0D     64
     100      78       0       0       0       0      67       000010000D     65
     100       0       0       2       0                               0D     66
     124      80       0       0       0       0       0       000000000D     67
     124       0       0       2       0                               0D     68
     508      82       0       0       0       0       0       000010000D     69
     508       0       0       1       1                               0D     70
     100      83       0       0       0       0      73       000010000D     71
     100       0       0       2       0                               0D     72
     124      85       0       0       0       0       0       000000000D     73
     124       0       0       2       0                               0D     74
     508      87       0       0       0       0       0       000010000D     75
     508       0       0       1       1                               0D     76
     100      88       0       0       0       0      79       000010000D     77
     100       0       0       2       0                               0D     78
     124      90       0       0       0       0       0       000000000D     79
     124       0       0       2       0                               0D     80
     508      92       0       0       0       0       0       000010000D     81
     508       0       0       1       1                               0D     82
     510      93       0       0       0       0       0       000010000D     83
     510       0    -305       1       1                               0D     84
     120      94       0       0       0       0       0       000010000D     85
     120       0       0       1       0                               0D     86
     110      95       0       0       0       0       0       000010000D     87
     110       0       0       2       0                               0D     88
     110      97       0       0       0       0       0       001010000D     89
     110       0       0       2       0                               0D     90
     100      99       0       0       0       0      93       000010000D     91
     100       0       0       2       0                               0D     92
     124     101       0       0       0       0       0       000000000D     93
     124       0       0       3       0                               0D     94
     110     104       0       0       0       0       0       000010000D     95
     110       0       0       2       0                               0D     96
     508     106       0       0       0       0       0       000010000D     97
     508       0       0       1       1                               0D     98
     510     107       0       0       0       0       0       000010000D     99
     510       0    -305       1       1                               0D    100
     116     108       0       0       0       0       0       000010000D    101
     116       0       0       1       0                               0D    102
     123     109       0       0       0       0       0       000010200D    103
     123       0       0       1       0                               0D    104
     190     110       0       0       0       0       0       000010000D    105
     190       0       0       1       1                               0D    106
     123     111       0       0       0       0       0       000010200D    107
     123       0       0       1       0                               0D    108
     100     112       0       0       0       0     111       000010000D    109
     100       0       0       2       0                               0D    110
     124     114       0       0       0       0       0       000000000D    111
     124       0       0       2       0                               0D    112
     110     116       0       0       0       0       0       000010000D    113
     110       0       0       2       0                               0D    114
     100     118       0       0       0       0     117       000010000D    115
     100       0       0       2       0                               0D    116
     124     120       0       0       0       0       0       000000000D    117
     124       0       0       2       0                               0D    118
     110     122       0       0       0       0       0       000010000D    119
     110       0       0       2       0                               0D    120
     100     124       0       0       0       0     123       000010000D    121
     100       0       0       2       0                               0D    122
     124     126       0       0       0       0       0       000000000D    123
     124       0       0       2       0                               0D    124
     110     128       0       0       0       0       0       000010000D    125
     110       0       0       2       0                               0D    126
     100     130       0       0       0       0     129       000010000D    127
     100       0       0       2       0                               0D    128
     124     132       0       0       0       0       0       000000000D    129
     124       0       0       2       0                               0D    130
     110     134       0       0       0       0       0       000010000D    131
     110       0       0       2       0                               0D    132
     508     136       0       0       0       0       0       000010000D    133
     508       0       0       2       1                               0D    134
     100     138       0       0       0       0     137       000010000D    135
     100       0       0       2       0                               0D    136
     124     140       0       0       0       0       0       000000000D    137
     124       0       0       2       0                               0D    138
     508     142       0       0       0       0       0       000010000D    139
     508       0       0       1       1                               0D    140
     100     143       0       0       0       0     143       000010000D    141
     100       0       0       2       0                               0D    142
     124     145       0       0       0       0       0       000000000D    143
     124       0       0       2       0                               0D    144
     508     147       0       0       0       0       0       000010000D    145
     508       0       0       1       1                               0D    146
     100     148       0       0       0       0     149       000010000D    147
     100       0       0       2       0                               0D    148
     124     150       0       0       0       0       0       000000000D    149
     124       0       0       2       0                               0D    150
     508     152       0       0       0       0       0       000010000D    151
     508       0       0       1       1                               0D    152
     510     153       0       0       0       0       0       000010000D    153
     510       0    -305       1       1                               0D    154
     116     154       0       0       0       0       0       000010000D    155
     116       0       0       1       0                               0D    156
     123     155       0       0       0       0       0       000010200D    157
     123       0       0       1       0                               0D    158
     192     156       0       0       0       0       0       000010000D    159
     192       0       0       1       1                               0D    160
     123     157       0       0       0       0       0       000010200D    161
     123       0       0       1       0                               0D    162
     110     158       0       0       0       0       0       000010000D    163
     110       0       0       2       0                               0D    164
     508     160       0       0       0       0       0       000010000D    165
     508       0       0       1       1                               0D    166
     510     161       0       0       0       0       0       000010000D    167
     510       0    -305       1       1                               0D    168
     116     162       0       0       0       0       0       000010000D    169
     116       0       0       1       0                               0D    170
     123     163       0       0       0       0       0       000010200D    171
     123       0       0       1       0                               0D    172
     192     164       0       0       0       0       0       000010000D    173
     192       0       0       1       1                               0D    174
     123     165       0       0       0       0       0       000010200D    175
     123       0       0       1       0                               0D    176
     110     166       0       0       0       0       0       000010000D    177
     110       0       0       2       0                               0D    178
     110     168       0       0       0       0       0       000010000D    179
     110       0       0       2       0                               0D    180
     508     170       0       0       0       0       0       000010000D    181
     508       0       0       1       1                               0D    182
     510     171       0       0       0       0       0       000010000D    183
     510       0    -305       1       1                               0D    184
     120     172       0       0       0       0       0       000010000D    185
     120       0       0       1       0                               0D    186
     110     173       0       0       0       0       0       000010000D    187
     110       0       0       1       0                               0D    188
     110     174       0       0       0       0       0       001010000D    189
     110       0       0       2       0                               0D    190
     508     176       0       0       0       0       0       000010000D    191
     508       0       0       1       1                               0D    192
     508     177       0       0       0       0       0       000010000D    193
     508       0       0       1       1                               0D    194
     510     178       0       0       0       0       0       000010000D    195
     510       0    -305       1       1                               0D    196
     116     179       0       0       0       0       0       000010000D    197
     116       0       0       1       0                               0D    198
     123     180       0       0       0       0       0       000010200D    199
     123       0       0       1       0                               0D    200
     190     181       0       0       0       0       0       000010000D    201
     190       0       0       1       1                               0D    202
     123     182       0       0       0       0       0       000010200D    203
     123       0       0       1       0                               0D    204
     110     183       0       0       0       0       0       000010000D    205
     110       0       0       2       0                               0D    206
     508     185       0       0       0       0       0       000010000D    207
     508       0       0       1       1                               0D    208
     510     186       0       0       0       0       0       000010000D    209
     510       0    -305       1       1                               0D    210
     116     187       0       0       0       0       0       000010000D    211
     116       0       0       1       0                               0D    212
     123     188       0       0       0       0       0       000010200D    213
     123       0       0       1       0                               0D    214
     192     189       0       0       0       0       0       000010000D    215
     192       0       0       1       1                               0D    216
     123     190       0       0       0       0       0       000010200D    217
     123       0       0       1       0                               0D    218
     110     191       0       0       0       0       0       000010000D    219
     110       0       0       2       0                               0D    220
     508     193       0       0       0       0       0       000010000D    221
     508       0       0       1       1                               0D    222
     510     194       0       0       0       0       0       000010000D    223
     510       0    -305       1       1                               0D    224
     116     195       0       0       0       0       0       000010000D    225
     116       0       0       1       0                               0D    226
     123     196       0       0       0       0       0       000010200D    227
     123       0       0       1       0                               0D    228
     190     197       0       0       0       0       0       000010000D    229
     190       0       0       1       1                               0D    230
     123     198       0       0       0       0       0       000010200D    231
     123       0       0       1       0                               0D    232
     110     199       0       0       0       0       0       000010000D    233
     110       0       0       2       0                               0D    234
     508     201       0       0       0       0       0       000010000D    235
     508       0       0       1       1                               0D    236
     510     202       0       0       0       0       0       000010000D    237
     510       0    -305       1       1                               0D    238
     116     203       0       0       0       0       0       000010000D    239
     116       0       0       1       0                               0D    240
     123     204       0       0       0       0       0       000010200D    241
     123       0       0       1       0                               0D    242
     192     205       0       0       0       0       0       000010000D    243
     192       0       0       1       1                               0D    244
     123     206       0       0       0       0       0       000010200D    245
     123       0       0       1       0                               0D    246
     110     207       0       0       0       0       0       000010000D    247
     110       0       0       2       0                               0D    248
     508     209       0       0       0       0       0       000010000D    249
     508       0       0       1       1                               0D    250
     510     210       0       0       0       0       0       000010000D    251
     510       0    -305       1       1                               0D    252
     116     211       0       0       0       0       0       000010000D    253
     116       0       0       1       0                               0D    254
     123     212       0       0       0       0       0       000010200D    255
     123       0       0       1       0                               0D    256
     190     213       0       0       0       0       0       000010000D    257
     190       0       0       1       1                               0D    258
     123     214       0       0       0       0       0       000010200D    259
     123       0       0       1       0                               0D    260
     508     215       0       0       0       0       0       000010000D    261
     508       0       0       1       1                               0D    262
     510     216       0       0       0       0       0       000010000D    263
     510       0    -305       1       1                               0D    264
     120     217       0       0       0       0       0       000010000D    265
     120       0       0       1       0                               0D    266
     110     218       0       0       0       0       0       000010000D    267
     110       0       0       1       0                               0D    268
     110     219       0       0       0       0       0       001010000D    269
     110       0       0       1       0                               0D    270
     508     220       0       0       0       0       0       000010000D    271
     508       0       0       1       1                               0D    272
     508     221       0       0       0       0       0       000010000D    273
     508       0       0       1       1                               0D    274
     510     222       0       0       0       0       0       000010000D    275
     510       0    -305       1       1                               0D    276
     120     223       0       0       0       0       0       000010000D    277
     120       0       0       1       0                               0D    278
     110     224       0       0       0       0       0       000010000D    279
     110       0       0       1       0                               0D    280
     110     225       0       0       0       0       0       001010000D    281
     110       0       0       1       0                               0D    282
     508     226       0       0       0       0       0       000010000D    283
     508       0       0       1       1                               0D    284
     508     227       0       0       0       0       0       000010000D    285
     508       0       0       1       1                               0D    286
     510     228       0       0       0       0       0       000010000D    287
     510       0    -305       1       1                               0D    288
     116     229       0       0       0       0       0       000010000D    289
     116       0       0       1       0                               0D    290
     123     230       0       0       0       0       0       000010200D    291
     123       0       0       1       0                               0D    292
     190     231       0       0       0       0       0       000010000D    293
     190       0       0       1       1                               0D    294
     123     232       0       0       0       0       0       000010200D    295
     123       0       0       1       0                               0D    296
     508     233       0       0       0       0       0       000010000D    297
     508       0       0       1       1                               0D    298
     510     234       0       0       0       0       0       000010000D    299
     510       0    -305       1       1                               0D    300
     514     235       0       0       0       0       0       000010000D    301
     514       0       0       2       1                               0D    302
     186     237       0       0       1       0       0       000000000D    303
     186       0       0       1       0                  Solid1       0D    304
     314     238       0       0       0       0       0       000000000D    305
     314       0       8       1       0                               0D    306
406,2,0,24HTENSION RELIEF BRACKET 2;                                   1P      1
116,-3.26036403623658D0,-12.2728025578286D0,2.5D0,0;                   3P      2
123,-.931532581781881D0,-.363657873665322D0,0.0D0;                     5P      3
190,3,5,9;                                                             7P      4
123,0.0D0,0.0D0,1.0D0;                                                 9P      5
504,36,15,13,1,13,2,17,13,3,13,1,19,13,4,13,3,21,13,2,13,4,35,        11P      6
13,1,13,5,39,13,6,13,2,43,13,7,13,6,45,13,7,13,8,49,13,9,13,8,        11P      7
51,13,10,13,9,55,13,11,13,10,57,13,12,13,11,61,13,5,13,12,65,13,      11P      8
13,13,13,71,13,14,13,14,77,13,15,13,15,91,13,4,13,16,95,13,16,        11P      9
13,6,109,13,17,13,3,113,13,18,13,17,115,13,19,13,18,119,13,20,        11P     10
13,19,121,13,21,13,20,125,13,22,13,21,127,13,22,13,23,131,13,16,      11P     11
13,23,135,13,24,13,24,141,13,25,13,25,147,13,26,13,26,163,13,5,       11P     12
13,17,177,13,8,13,22,179,13,7,13,23,205,13,9,13,21,219,13,10,13,      11P     13
20,233,13,11,13,19,247,13,12,13,18;                                   11P     14
502,26,-3.26036403623658D0,-12.2728025578286D0,0.0D0,                 13P     15
-6.95266217200044D0,-2.8147479845845D0,0.0D0,                         13P     16
-3.26036403623658D0,-12.2728025578286D0,2.5D0,                        13P     17
-6.95266217200044D0,-2.8147479845845D0,2.5D0,3.2603934255326D0,       13P     18
-12.2727272727273D0,0.0D0,-6.96489361208594D0,                        13P     19
-2.78276951670222D0,0.0D0,-6.986557340427D0,-2.72727272727273D0,      13P     20
0.0D0,-6.986557340427D0,2.72727272727273D0,0.0D0,                     13P     21
-3.2603934255326D0,12.2727272727273D0,0.0D0,3.2603934255326D0,        13P     22
12.2727272727273D0,0.0D0,6.986557340427D0,2.72727272727273D0,         13P     23
0.0D0,6.986557340427D0,-2.72727272727273D0,0.0D0,1.75D0,-11.0D0,      13P     24
0.0D0,1.75D0,11.0D0,0.0D0,5.5D0,6.73555739531044D-16,0.0D0,           13P     25
-6.96489361208594D0,-2.78276951670222D0,2.5D0,3.2603934255326D0,      13P     26
-12.2727272727273D0,2.5D0,6.986557340427D0,-2.72727272727273D0,       13P     27
2.5D0,6.986557340427D0,2.72727272727273D0,2.5D0,                      13P     28
3.2603934255326D0,12.2727272727273D0,2.5D0,-3.2603934255326D0,        13P     29
12.2727272727273D0,2.5D0,-6.986557340427D0,2.72727272727273D0,        13P     30
2.5D0,-6.986557340427D0,-2.72727272727273D0,2.5D0,1.75D0,11.0D0,      13P     31
2.5D0,1.75D0,-11.0D0,2.5D0,5.5D0,6.73555739531044D-16,2.5D0;          13P     32
110,-3.26036403623658D0,-12.2728025578286D0,0.0D0,                    15P     33
-6.95266217200044D0,-2.8147479845845D0,0.0D0;                         15P     34
110,-3.26036403623658D0,-12.2728025578286D0,2.5D0,                    17P     35
-3.26036403623658D0,-12.2728025578286D0,0.0D0;                        17P     36
110,-6.95266217200044D0,-2.8147479845845D0,2.5D0,                     19P     37
-3.26036403623658D0,-12.2728025578286D0,2.5D0;                        19P     38
110,-6.95266217200044D0,-2.8147479845845D0,0.0D0,                     21P     39
-6.95266217200044D0,-2.8147479845845D0,2.5D0;                         21P     40
508,4,0,11,1,0,0,0,11,2,0,0,0,11,3,0,0,0,11,4,0,0;                    23P     41
510,7,1,1,23;                                                         25P     42
116,-20.665725098579D0,-8.01205653501219D0,0.0D0,0;                   27P     43
123,0.0D0,0.0D0,-1.0D0;                                               29P     44
190,27,29,33;                                                         31P     45
123,-1.0D0,0.0D0,0.0D0;                                               33P     46
100,0.0D0,0.0D0,0.0D0,-3.26036403623658D0,-1.27280255782863D0,        35P     47
3.2603934255326D0,-1.27272727272727D0;                                35P     48
124,1.0D0,0.0D0,0.0D0,0.0D0,0.0D0,1.0D0,0.0D0,-11.0D0,0.0D0,          37P     49
0.0D0,1.0D0,0.0D0;                                                    37P     50
100,0.0D0,0.0D0,0.0D0,1.76776695296637D0,-1.76776695296637D0,         39P     51
1.79181042451948D0,-1.74339192454919D0;                               39P     52
124,.9158286816219D0,-.401569204395321D0,0.0D0,                       41P     53
-9.29374605889494D0,-.401569204395321D0,-.9158286816219D0,0.0D0,      41P     54
-3.69186042579313D0,0.0D0,0.0D0,-1.0D0,0.0D0;                         41P     55
110,-6.986557340427D0,-2.72727272727273D0,0.0D0,                      43P     56
-6.96489361208594D0,-2.78276951670222D0,0.0D0;                        43P     57
100,0.0D0,0.0D0,0.0D0,6.986557340427D0,-2.72727272727273D0,           45P     58
6.986557340427D0,2.72727272727273D0;                                  45P     59
124,-1.0D0,0.0D0,0.0D0,1.34711147906209D-15,0.0D0,1.0D0,0.0D0,        47P     60
0.0D0,0.0D0,0.0D0,-1.0D0,0.0D0;                                       47P     61
110,-3.2603934255326D0,12.2727272727273D0,0.0D0,                      49P     62
-6.986557340427D0,2.72727272727273D0,0.0D0;                           49P     63
100,0.0D0,0.0D0,0.0D0,3.2603934255326D0,1.27272727272727D0,           51P     64
-3.2603934255326D0,1.27272727272727D0;                                51P     65
124,1.0D0,0.0D0,0.0D0,0.0D0,0.0D0,1.0D0,0.0D0,11.0D0,0.0D0,           53P     66
0.0D0,1.0D0,0.0D0;                                                    53P     67
110,6.986557340427D0,2.72727272727273D0,0.0D0,3.2603934255326D0,      55P     68
12.2727272727273D0,0.0D0;                                             55P     69
100,0.0D0,0.0D0,0.0D0,6.986557340427D0,-2.72727272727273D0,           57P     70
6.986557340427D0,2.72727272727273D0;                                  57P     71
124,1.0D0,0.0D0,0.0D0,5.55111512312578D-16,0.0D0,1.0D0,0.0D0,         59P     72
0.0D0,0.0D0,0.0D0,1.0D0,0.0D0;                                        59P     73
110,3.2603934255326D0,-12.2727272727273D0,0.0D0,                      61P     74
6.986557340427D0,-2.72727272727273D0,0.0D0;                           61P     75
508,10,0,11,5,0,0,0,11,1,1,0,0,11,6,0,0,0,11,7,0,0,0,11,8,1,0,0,      63P     76
11,9,0,0,0,11,10,0,0,0,11,11,0,0,0,11,12,0,0,0,11,13,0,0;             63P     77
100,0.0D0,0.0D0,0.0D0,-1.75D0,2.14313189850787D-16,-1.75D0,           65P     78
2.14313189850787D-16;                                                 65P     79
124,-1.0D0,0.0D0,0.0D0,0.0D0,0.0D0,-1.0D0,0.0D0,-11.0D0,0.0D0,        67P     80
0.0D0,1.0D0,0.0D0;                                                    67P     81
508,1,0,11,14,1,0;                                                    69P     82
100,0.0D0,0.0D0,0.0D0,-1.75D0,2.14313189850787D-16,-1.75D0,           71P     83
2.14313189850787D-16;                                                 71P     84
124,-1.0D0,0.0D0,0.0D0,0.0D0,0.0D0,-1.0D0,0.0D0,11.0D0,0.0D0,         73P     85
0.0D0,1.0D0,0.0D0;                                                    73P     86
508,1,0,11,15,1,0;                                                    75P     87
100,0.0D0,0.0D0,0.0D0,-5.5D0,6.73555739531044D-16,-5.5D0,             77P     88
6.73555739531044D-16;                                                 77P     89
124,-1.0D0,0.0D0,0.0D0,2.43862494663822D-15,0.0D0,-1.0D0,0.0D0,       79P     90
8.2173010960522D-32,0.0D0,0.0D0,1.0D0,0.0D0;                          79P     91
508,1,0,11,16,1,0;                                                    81P     92
510,31,4,1,63,69,75,81;                                               83P     93
120,89,87,0.0D0,6.28318530717959D0;                                   85P     94
110,-7.00417435484019D0,-4.69578343678143D0,-.125D0,                  87P     95
-7.00417435484019D0,-4.69578343678143D0,2.625D0;                      87P     96
110,-9.29374605889494D0,-3.69186042579313D0,-.125D0,                  89P     97
-9.29374605889494D0,-3.69186042579313D0,.875D0;                       89P     98
100,0.0D0,0.0D0,0.0D0,1.79181042451948D0,1.74339192454919D0,          91P     99
1.76776695296637D0,1.76776695296637D0;                                91P    100
124,.9158286816219D0,.401569204395321D0,0.0D0,                        93P    101
-9.29374605889494D0,-.401569204395321D0,.9158286816219D0,0.0D0,       93P    102
-3.69186042579313D0,0.0D0,0.0D0,1.0D0,2.5D0;                          93P    103
110,-6.96489361208594D0,-2.78276951670222D0,2.5D0,                    95P    104
-6.96489361208594D0,-2.78276951670222D0,0.0D0;                        95P    105
508,4,0,11,4,1,0,0,11,17,1,0,0,11,18,1,0,0,11,6,1,0;                  97P    106
510,85,1,1,97;                                                        99P    107
116,-20.665725098579D0,-8.01205653501219D0,2.5D0,0;                  101P    108
123,0.0D0,0.0D0,1.0D0;                                               103P    109
190,101,103,107;                                                     105P    110
123,1.0D0,0.0D0,0.0D0;                                               107P    111
100,0.0D0,0.0D0,0.0D0,3.2603934255326D0,1.27272727272727D0,          109P    112
-3.26036403623658D0,1.27280255782863D0;                              109P    113
124,1.0D0,0.0D0,0.0D0,0.0D0,0.0D0,-1.0D0,0.0D0,-11.0D0,0.0D0,        111P    114
0.0D0,-1.0D0,2.5D0;                                                  111P    115
110,6.986557340427D0,-2.72727272727273D0,2.5D0,                      113P    116
3.2603934255326D0,-12.2727272727273D0,2.5D0;                         113P    117
100,0.0D0,0.0D0,0.0D0,6.986557340427D0,-2.72727272727273D0,          115P    118
6.986557340427D0,2.72727272727273D0;                                 115P    119
124,1.0D0,0.0D0,0.0D0,5.55111512312578D-16,0.0D0,-1.0D0,0.0D0,       117P    120
0.0D0,0.0D0,0.0D0,-1.0D0,2.5D0;                                      117P    121
110,3.2603934255326D0,12.2727272727273D0,2.5D0,6.986557340427D0,     119P    122
2.72727272727273D0,2.5D0;                                            119P    123
100,0.0D0,0.0D0,0.0D0,-3.2603934255326D0,-1.27272727272727D0,        121P    124
3.2603934255326D0,-1.27272727272727D0;                               121P    125
124,1.0D0,0.0D0,0.0D0,0.0D0,0.0D0,-1.0D0,0.0D0,11.0D0,0.0D0,         123P    126
0.0D0,-1.0D0,2.5D0;                                                  123P    127
110,-6.986557340427D0,2.72727272727273D0,2.5D0,                      125P    128
-3.2603934255326D0,12.2727272727273D0,2.5D0;                         125P    129
100,0.0D0,0.0D0,0.0D0,6.986557340427D0,-2.72727272727273D0,          127P    130
6.986557340427D0,2.72727272727273D0;                                 127P    131
124,-1.0D0,0.0D0,0.0D0,1.34711147906209D-15,0.0D0,-1.0D0,0.0D0,      129P    132
0.0D0,0.0D0,0.0D0,1.0D0,2.5D0;                                       129P    133
110,-6.96489361208594D0,-2.78276951670222D0,2.5D0,                   131P    134
-6.986557340427D0,-2.72727272727273D0,2.5D0;                         131P    135
508,10,0,11,19,0,0,0,11,20,0,0,0,11,21,0,0,0,11,22,0,0,0,11,23,      133P    136
0,0,0,11,24,0,0,0,11,25,1,0,0,11,26,0,0,0,11,17,0,0,0,11,3,1,0;      133P    137
100,0.0D0,0.0D0,0.0D0,-1.75D0,2.14313189850787D-16,-1.75D0,          135P    138
2.14313189850787D-16;                                                135P    139
124,-1.0D0,0.0D0,0.0D0,0.0D0,0.0D0,-1.0D0,0.0D0,11.0D0,0.0D0,        137P    140
0.0D0,1.0D0,2.5D0;                                                   137P    141
508,1,0,11,27,0,0;                                                   139P    142
100,0.0D0,0.0D0,0.0D0,-1.75D0,2.14313189850787D-16,-1.75D0,          141P    143
2.14313189850787D-16;                                                141P    144
124,-1.0D0,0.0D0,0.0D0,0.0D0,0.0D0,-1.0D0,0.0D0,-11.0D0,0.0D0,       143P    145
0.0D0,1.0D0,2.5D0;                                                   143P    146
508,1,0,11,28,0,0;                                                   145P    147
100,0.0D0,0.0D0,0.0D0,-5.5D0,6.73555739531044D-16,-5.5D0,            147P    148
6.73555739531044D-16;                                                147P    149
124,-1.0D0,0.0D0,0.0D0,2.43862494663822D-15,0.0D0,1.0D0,0.0D0,       149P    150
8.32963788107103D-79,0.0D0,0.0D0,-1.0D0,2.5D0;                       149P    151
508,1,0,11,29,1,0;                                                   151P    152
510,105,4,1,133,139,145,151;                                         153P    153
116,0.0D0,-11.0D0,0.0D0,0;                                           155P    154
123,0.0D0,0.0D0,1.0D0;                                               157P    155
192,155,157,3.5D0,161;                                               159P    156
123,1.0D0,0.0D0,0.0D0;                                               161P    157
110,3.2603934255326D0,-12.2727272727273D0,0.0D0,                     163P    158
3.2603934255326D0,-12.2727272727273D0,2.5D0;                         163P    159
508,4,0,11,5,1,0,0,11,30,1,0,0,11,19,1,0,0,11,2,1,0;                 165P    160
510,159,1,1,165;                                                     167P    161
116,1.34711147906209D-15,0.0D0,0.0D0,0;                              169P    162
123,0.0D0,0.0D0,1.0D0;                                               171P    163
192,169,171,7.5D0,175;                                               173P    164
123,-1.0D0,0.0D0,0.0D0;                                              175P    165
110,-6.986557340427D0,2.72727272727273D0,0.0D0,                      177P    166
-6.986557340427D0,2.72727272727273D0,2.5D0;                          177P    167
110,-6.986557340427D0,-2.72727272727273D0,0.0D0,                     179P    168
-6.986557340427D0,-2.72727272727273D0,2.5D0;                         179P    169
508,4,0,11,25,0,0,0,11,31,0,0,0,11,8,0,0,0,11,32,1,0;                181P    170
510,173,1,1,181;                                                     183P    171
120,189,187,0.0D0,6.28318530717959D0;                                185P    172
110,-5.5D0,0.0D0,3.0D0,-5.5D0,8.55968864172105D-32,-.125D0;          187P    173
110,2.43862494663822D-15,0.0D0,3.0D0,2.43862494663822D-15,0.0D0,     189P    174
2.0D0;                                                               189P    175
508,1,0,11,16,0,0;                                                   191P    176
508,1,0,11,29,0,0;                                                   193P    177
510,185,2,1,191,193;                                                 195P    178
116,-6.986557340427D0,2.72727272727273D0,0.0D0,0;                    197P    179
123,-.9315409787236D0,.363636363636364D0,0.0D0;                      199P    180
190,197,199,203;                                                     201P    181
123,0.0D0,0.0D0,1.0D0;                                               203P    182
110,-3.2603934255326D0,12.2727272727273D0,0.0D0,                     205P    183
-3.2603934255326D0,12.2727272727273D0,2.5D0;                         205P    184
508,4,0,11,9,1,0,0,11,31,1,0,0,11,24,1,0,0,11,33,0,0;                207P    185
510,201,1,1,207;                                                     209P    186
116,0.0D0,11.0D0,0.0D0,0;                                            211P    187
123,0.0D0,0.0D0,1.0D0;                                               213P    188
192,211,213,3.5D0,217;                                               215P    189
123,1.0D0,0.0D0,0.0D0;                                               217P    190
110,3.2603934255326D0,12.2727272727273D0,0.0D0,                      219P    191
3.2603934255326D0,12.2727272727273D0,2.5D0;                          219P    192
508,4,0,11,23,1,0,0,11,34,0,0,0,11,10,1,0,0,11,33,1,0;               221P    193
510,215,1,1,221;                                                     223P    194
116,3.2603934255326D0,12.2727272727273D0,0.0D0,0;                    225P    195
123,.9315409787236D0,.363636363636363D0,0.0D0;                       227P    196
190,225,227,231;                                                     229P    197
123,0.0D0,0.0D0,-1.0D0;                                              231P    198
110,6.986557340427D0,2.72727272727273D0,0.0D0,6.986557340427D0,      233P    199
2.72727272727273D0,2.5D0;                                            233P    200
508,4,0,11,22,1,0,0,11,35,0,0,0,11,11,1,0,0,11,34,1,0;               235P    201
510,229,1,1,235;                                                     237P    202
116,5.55111512312578D-16,0.0D0,0.0D0,0;                              239P    203
123,0.0D0,0.0D0,1.0D0;                                               241P    204
192,239,241,7.5D0,245;                                               243P    205
123,1.0D0,0.0D0,0.0D0;                                               245P    206
110,6.986557340427D0,-2.72727272727273D0,0.0D0,6.986557340427D0,     247P    207
-2.72727272727273D0,2.5D0;                                           247P    208
508,4,0,11,21,1,0,0,11,36,0,0,0,11,12,1,0,0,11,35,1,0;               249P    209
510,243,1,1,249;                                                     251P    210
116,6.986557340427D0,-2.72727272727273D0,0.0D0,0;                    253P    211
123,.9315409787236D0,-.363636363636364D0,0.0D0;                      255P    212
190,253,255,259;                                                     257P    213
123,0.0D0,0.0D0,-1.0D0;                                              259P    214
508,4,0,11,20,1,0,0,11,30,0,0,0,11,13,1,0,0,11,36,1,0;               261P    215
510,257,1,1,261;                                                     263P    216
120,269,267,0.0D0,6.28318530717959D0;                                265P    217
110,-1.75D0,-11.0D0,-.125D0,-1.75D0,-11.0D0,2.625D0;                 267P    218
110,0.0D0,-11.0D0,-.125D0,0.0D0,-11.0D0,.875D0;                      269P    219
508,1,0,11,28,1,0;                                                   271P    220
508,1,0,11,14,0,0;                                                   273P    221
510,265,2,1,271,273;                                                 275P    222
120,281,279,0.0D0,6.28318530717959D0;                                277P    223
110,-1.75D0,11.0D0,-.125D0,-1.75D0,11.0D0,2.625D0;                   279P    224
110,0.0D0,11.0D0,-.125D0,0.0D0,11.0D0,.875D0;                        281P    225
508,1,0,11,27,1,0;                                                   283P    226
508,1,0,11,15,0,0;                                                   285P    227
510,277,2,1,283,285;                                                 287P    228
116,-3.2603934255326D0,-12.2727272727273D0,0.0D0,0;                  289P    229
123,-.9315409787236D0,-.363636363636364D0,0.0D0;                     291P    230
190,289,291,295;                                                     293P    231
123,0.0D0,0.0D0,1.0D0;                                               295P    232
508,4,0,11,18,0,0,0,11,26,1,0,0,11,32,0,0,0,11,7,1,0;                297P    233
510,293,1,1,297;                                                     299P    234
514,15,25,1,83,1,99,1,153,1,167,1,183,1,195,1,209,1,223,1,237,1,     301P    235
251,1,263,1,275,1,287,1,299,1;                                       301P    236
186,301,1,0;                                                         303P    237
314,94.9020028114319D0,92.5490021705627D0,93.3332979679108D0,;       305P    238
S      1G      4D    306P    238                                        T      1
