                                                                        S      1
,,15HBOTTOM TUBE.ipt,27HNo Iges File Name specified,22HAutodesk InventorG      1
 2012,37HAutoDesk Inventor Iges Exporter R2012,32,38,6,99,15,15HBOTTOM TG      2
UBE.ipt,1.0D0,2,2HMM,1,.08D0,15H20150129.120133,.01D0,10000.0D0,3Hjge,, G      3
11,0,,;                                                                 G      4
     406       1       0       0       1       0       0       000000000D      1
     406       0       0       1       3                               0D      2
     120       2       0       0       0       0       0       000010000D      3
     120       0       0       1       0                               0D      4
     110       3       0       0       0       0       0       000010000D      5
     110       0       0       1       0                               0D      6
     110       4       0       0       0       0       0       001010000D      7
     110       0       0       1       0                               0D      8
     504       5       0       0       0       0       0       000010001D      9
     504       0       0       5       1                               0D     10
     502      10       0       0       0       0       0       000010000D     11
     502       0       0      13       1                               0D     12
     100      23       0       0       0       0      15       000010000D     13
     100       0       0       2       0                               0D     14
     124      25       0       0       0       0       0       000000000D     15
     124       0       0       2       0                               0D     16
     508      27       0       0       0       0       0       000010000D     17
     508       0       0       1       1                               0D     18
     100      28       0       0       0       0      21       000010000D     19
     100       0       0       2       0                               0D     20
     124      30       0       0       0       0       0       000000000D     21
     124       0       0       2       0                               0D     22
     508      32       0       0       0       0       0       000010000D     23
     508       0       0       1       1                               0D     24
     510      33       0       0       0       0       0       000010000D     25
     510       0    -359       1       1                               0D     26
     120      34       0       0       0       0       0       000010000D     27
     120       0       0       1       0                               0D     28
     110      35       0       0       0       0       0       000010000D     29
     110       0       0       1       0                               0D     30
     110      36       0       0       0       0       0       001010000D     31
     110       0       0       2       0                               0D     32
     100      38       0       0       0       0      35       000010000D     33
     100       0       0       2       0                               0D     34
     124      40       0       0       0       0       0       000000000D     35
     124       0       0       2       0                               0D     36
     508      42       0       0       0       0       0       000010000D     37
     508       0       0       1       1                               0D     38
     508      43       0       0       0       0       0       000010000D     39
     508       0       0       1       1                               0D     40
     510      44       0       0       0       0       0       000010000D     41
     510       0    -359       1       1                               0D     42
     116      45       0       0       0       0       0       000010000D     43
     116       0       0       1       0                               0D     44
     123      46       0       0       0       0       0       000010200D     45
     123       0       0       1       0                               0D     46
     190      47       0       0       0       0       0       000010000D     47
     190       0       0       1       1                               0D     48
     123      48       0       0       0       0       0       000010200D     49
     123       0       0       1       0                               0D     50
     100      49       0       0       0       0      53       000010000D     51
     100       0       0       2       0                               0D     52
     124      51       0       0       0       0       0       000000000D     53
     124       0       0       2       0                               0D     54
     508      53       0       0       0       0       0       000010000D     55
     508       0       0       1       1                               0D     56
     508      54       0       0       0       0       0       000010000D     57
     508       0       0       1       1                               0D     58
     510      55       0       0       0       0       0       000010000D     59
     510       0    -359       1       1                               0D     60
     120      56       0       0       0       0       0       000010000D     61
     120       0       0       1       0                               0D     62
     110      57       0       0       0       0       0       000010000D     63
     110       0       0       1       0                               0D     64
     110      58       0       0       0       0       0       001010000D     65
     110       0       0       1       0                               0D     66
     508      59       0       0       0       0       0       000010000D     67
     508       0       0       1       1                               0D     68
     100      60       0       0       0       0      71       000010000D     69
     100       0       0       2       0                               0D     70
     124      62       0       0       0       0       0       000000000D     71
     124       0       0       2       0                               0D     72
     508      64       0       0       0       0       0       000010000D     73
     508       0       0       1       1                               0D     74
     510      65       0       0       0       0       0       000010000D     75
     510       0    -359       1       1                               0D     76
     116      66       0       0       0       0       0       000010000D     77
     116       0       0       1       0                               0D     78
     123      67       0       0       0       0       0       000010200D     79
     123       0       0       1       0                               0D     80
     190      68       0       0       0       0       0       000010000D     81
     190       0       0       1       1                               0D     82
     123      69       0       0       0       0       0       000010200D     83
     123       0       0       1       0                               0D     84
     100      70       0       0       0       0      87       000010000D     85
     100       0       0       2       0                               0D     86
     124      72       0       0       0       0       0       000000000D     87
     124       0       0       2       0                               0D     88
     508      74       0       0       0       0       0       000010000D     89
     508       0       0       1       1                               0D     90
     508      75       0       0       0       0       0       000010000D     91
     508       0       0       1       1                               0D     92
     510      76       0       0       0       0       0       000010000D     93
     510       0    -359       1       1                               0D     94
     116      77       0       0       0       0       0       000010000D     95
     116       0       0       1       0                               0D     96
     123      78       0       0       0       0       0       000010200D     97
     123       0       0       1       0                               0D     98
     194      79       0       0       0       0       0       000010000D     99
     194       0       0       1       1                               0D    100
     123      80       0       0       0       0       0       000010200D    101
     123       0       0       1       0                               0D    102
     100      81       0       0       0       0     105       000010000D    103
     100       0       0       2       0                               0D    104
     124      83       0       0       0       0       0       000000000D    105
     124       0       0       2       0                               0D    106
     508      85       0       0       0       0       0       000010000D    107
     508       0       0       1       1                               0D    108
     100      86       0       0       0       0     111       000010000D    109
     100       0       0       2       0                               0D    110
     124      88       0       0       0       0       0       000000000D    111
     124       0       0       2       0                               0D    112
     508      90       0       0       0       0       0       000010000D    113
     508       0       0       1       1                               0D    114
     510      91       0       0       0       0       0       000010000D    115
     510       0    -359       1       1                               0D    116
     116      92       0       0       0       0       0       000010000D    117
     116       0       0       1       0                               0D    118
     123      93       0       0       0       0       0       000010200D    119
     123       0       0       1       0                               0D    120
     192      94       0       0       0       0       0       000010000D    121
     192       0       0       1       1                               0D    122
     123      95       0       0       0       0       0       000010200D    123
     123       0       0       1       0                               0D    124
     100      96       0       0       0       0     127       000010000D    125
     100       0       0       2       0                               0D    126
     124      98       0       0       0       0       0       000000000D    127
     124       0       0       2       0                               0D    128
     508     100       0       0       0       0       0       000010000D    129
     508       0       0       1       1                               0D    130
     508     101       0       0       0       0       0       000010000D    131
     508       0       0       1       1                               0D    132
     510     102       0       0       0       0       0       000010000D    133
     510       0    -359       1       1                               0D    134
     116     103       0       0       0       0       0       000010000D    135
     116       0       0       1       0                               0D    136
     123     104       0       0       0       0       0       000010200D    137
     123       0       0       1       0                               0D    138
     190     105       0       0       0       0       0       000010000D    139
     190       0       0       1       1                               0D    140
     123     106       0       0       0       0       0       000010200D    141
     123       0       0       1       0                               0D    142
     508     107       0       0       0       0       0       000010000D    143
     508       0       0       1       1                               0D    144
     100     108       0       0       0       0     105       000010000D    145
     100       0       0       2       0                               0D    146
     508     110       0       0       0       0       0       000010000D    147
     508       0       0       1       1                               0D    148
     510     111       0       0       0       0       0       000010000D    149
     510       0    -359       1       1                               0D    150
     116     112       0       0       0       0       0       000010000D    151
     116       0       0       1       0                               0D    152
     123     113       0       0       0       0       0       000010200D    153
     123       0       0       1       0                               0D    154
     194     114       0       0       0       0       0       000010000D    155
     194       0       0       1       1                               0D    156
     123     115       0       0       0       0       0       000010200D    157
     123       0       0       1       0                               0D    158
     508     116       0       0       0       0       0       000010000D    159
     508       0       0       1       1                               0D    160
     508     117       0       0       0       0       0       000010000D    161
     508       0       0       1       1                               0D    162
     510     118       0       0       0       0       0       000010000D    163
     510       0    -359       1       1                               0D    164
     116     119       0       0       0       0       0       000010000D    165
     116       0       0       1       0                               0D    166
     123     120       0       0       0       0       0       000010200D    167
     123       0       0       1       0                               0D    168
     194     121       0       0       0       0       0       000010000D    169
     194       0       0       1       1                               0D    170
     123     122       0       0       0       0       0       000010200D    171
     123       0       0       1       0                               0D    172
     508     123       0       0       0       0       0       000010000D    173
     508       0       0       1       1                               0D    174
     100     124       0       0       0       0     177       000010000D    175
     100       0       0       2       0                               0D    176
     124     126       0       0       0       0       0       000000000D    177
     124       0       0       2       0                               0D    178
     508     128       0       0       0       0       0       000010000D    179
     508       0       0       1       1                               0D    180
     510     129       0       0       0       0       0       000010000D    181
     510       0    -359       1       1                               0D    182
     116     130       0       0       0       0       0       000010000D    183
     116       0       0       1       0                               0D    184
     123     131       0       0       0       0       0       000010200D    185
     123       0       0       1       0                               0D    186
     192     132       0       0       0       0       0       000010000D    187
     192       0       0       1       1                               0D    188
     123     133       0       0       0       0       0       000010200D    189
     123       0       0       1       0                               0D    190
     100     134       0       0       0       0     193       000010000D    191
     100       0       0       2       0                               0D    192
     124     136       0       0       0       0       0       000000000D    193
     124       0       0       2       0                               0D    194
     508     138       0       0       0       0       0       000010000D    195
     508       0       0       1       1                               0D    196
     508     139       0       0       0       0       0       000010000D    197
     508       0       0       1       1                               0D    198
     510     140       0       0       0       0       0       000010000D    199
     510       0    -359       1       1                               0D    200
     116     141       0       0       0       0       0       000010000D    201
     116       0       0       1       0                               0D    202
     123     142       0       0       0       0       0       000010200D    203
     123       0       0       1       0                               0D    204
     194     143       0       0       0       0       0       000010000D    205
     194       0       0       1       1                               0D    206
     123     144       0       0       0       0       0       000010200D    207
     123       0       0       1       0                               0D    208
     508     145       0       0       0       0       0       000010000D    209
     508       0       0       1       1                               0D    210
     100     146       0       0       0       0     213       000010000D    211
     100       0       0       2       0                               0D    212
     124     148       0       0       0       0       0       000000000D    213
     124       0       0       2       0                               0D    214
     508     150       0       0       0       0       0       000010000D    215
     508       0       0       1       1                               0D    216
     510     151       0       0       0       0       0       000010000D    217
     510       0    -359       1       1                               0D    218
     116     152       0       0       0       0       0       000010000D    219
     116       0       0       1       0                               0D    220
     123     153       0       0       0       0       0       000010200D    221
     123       0       0       1       0                               0D    222
     190     154       0       0       0       0       0       000010000D    223
     190       0       0       1       1                               0D    224
     123     155       0       0       0       0       0       000010200D    225
     123       0       0       1       0                               0D    226
     508     156       0       0       0       0       0       000010000D    227
     508       0       0       1       1                               0D    228
     100     157       0       0       0       0     231       000010000D    229
     100       0       0       2       0                               0D    230
     124     159       0       0       0       0       0       000000000D    231
     124       0       0       2       0                               0D    232
     508     161       0       0       0       0       0       000010000D    233
     508       0       0       1       1                               0D    234
     510     162       0       0       0       0       0       000010000D    235
     510       0    -359       1       1                               0D    236
     116     163       0       0       0       0       0       000010000D    237
     116       0       0       1       0                               0D    238
     123     164       0       0       0       0       0       000010200D    239
     123       0       0       1       0                               0D    240
     194     165       0       0       0       0       0       000010000D    241
     194       0       0       1       1                               0D    242
     123     166       0       0       0       0       0       000010200D    243
     123       0       0       1       0                               0D    244
     100     167       0       0       0       0     247       000010000D    245
     100       0       0       2       0                               0D    246
     124     169       0       0       0       0       0       000000000D    247
     124       0       0       2       0                               0D    248
     508     171       0       0       0       0       0       000010000D    249
     508       0       0       1       1                               0D    250
     100     172       0       0       0       0     253       000010000D    251
     100       0       0       2       0                               0D    252
     124     174       0       0       0       0       0       000000000D    253
     124       0       0       2       0                               0D    254
     508     176       0       0       0       0       0       000010000D    255
     508       0       0       1       1                               0D    256
     510     177       0       0       0       0       0       000010000D    257
     510       0    -359       1       1                               0D    258
     116     178       0       0       0       0       0       000010000D    259
     116       0       0       1       0                               0D    260
     123     179       0       0       0       0       0       000010200D    261
     123       0       0       1       0                               0D    262
     192     180       0       0       0       0       0       000010000D    263
     192       0       0       1       1                               0D    264
     123     181       0       0       0       0       0       000010200D    265
     123       0       0       1       0                               0D    266
     100     182       0       0       0       0     269       000010000D    267
     100       0       0       2       0                               0D    268
     124     184       0       0       0       0       0       000000000D    269
     124       0       0       2       0                               0D    270
     508     186       0       0       0       0       0       000010000D    271
     508       0       0       1       1                               0D    272
     508     187       0       0       0       0       0       000010000D    273
     508       0       0       1       1                               0D    274
     510     188       0       0       0       0       0       000010000D    275
     510       0    -359       1       1                               0D    276
     116     189       0       0       0       0       0       000010000D    277
     116       0       0       1       0                               0D    278
     123     190       0       0       0       0       0       000010200D    279
     123       0       0       1       0                               0D    280
     190     191       0       0       0       0       0       000010000D    281
     190       0       0       1       1                               0D    282
     123     192       0       0       0       0       0       000010200D    283
     123       0       0       1       0                               0D    284
     508     193       0       0       0       0       0       000010000D    285
     508       0       0       1       1                               0D    286
     100     194       0       0       0       0     247       000010000D    287
     100       0       0       2       0                               0D    288
     508     196       0       0       0       0       0       000010000D    289
     508       0       0       1       1                               0D    290
     510     197       0       0       0       0       0       000010000D    291
     510       0    -359       1       1                               0D    292
     116     198       0       0       0       0       0       000010000D    293
     116       0       0       1       0                               0D    294
     123     199       0       0       0       0       0       000010200D    295
     123       0       0       1       0                               0D    296
     194     200       0       0       0       0       0       000010000D    297
     194       0       0       1       1                               0D    298
     123     201       0       0       0       0       0       000010200D    299
     123       0       0       1       0                               0D    300
     100     202       0       0       0       0     303       000010000D    301
     100       0       0       2       0                               0D    302
     124     204       0       0       0       0       0       000000000D    303
     124       0       0       2       0                               0D    304
     508     206       0       0       0       0       0       000010000D    305
     508       0       0       1       1                               0D    306
     508     207       0       0       0       0       0       000010000D    307
     508       0       0       1       1                               0D    308
     510     208       0       0       0       0       0       000010000D    309
     510       0    -359       1       1                               0D    310
     116     209       0       0       0       0       0       000010000D    311
     116       0       0       1       0                               0D    312
     123     210       0       0       0       0       0       000010200D    313
     123       0       0       1       0                               0D    314
     190     211       0       0       0       0       0       000010000D    315
     190       0       0       1       1                               0D    316
     123     212       0       0       0       0       0       000010200D    317
     123       0       0       1       0                               0D    318
     508     213       0       0       0       0       0       000010000D    319
     508       0       0       1       1                               0D    320
     100     214       0       0       0       0     303       000010000D    321
     100       0       0       2       0                               0D    322
     508     216       0       0       0       0       0       000010000D    323
     508       0       0       1       1                               0D    324
     510     217       0       0       0       0       0       000010000D    325
     510       0    -359       1       1                               0D    326
     116     218       0       0       0       0       0       000010000D    327
     116       0       0       1       0                               0D    328
     123     219       0       0       0       0       0       000010200D    329
     123       0       0       1       0                               0D    330
     192     220       0       0       0       0       0       000010000D    331
     192       0       0       1       1                               0D    332
     123     221       0       0       0       0       0       000010200D    333
     123       0       0       1       0                               0D    334
     508     222       0       0       0       0       0       000010000D    335
     508       0       0       1       1                               0D    336
     508     223       0       0       0       0       0       000010000D    337
     508       0       0       1       1                               0D    338
     510     224       0       0       0       0       0       000010000D    339
     510       0    -359       1       1                               0D    340
     116     225       0       0       0       0       0       000010000D    341
     116       0       0       1       0                               0D    342
     123     226       0       0       0       0       0       000010200D    343
     123       0       0       1       0                               0D    344
     192     227       0       0       0       0       0       000010000D    345
     192       0       0       1       1                               0D    346
     123     228       0       0       0       0       0       000010200D    347
     123       0       0       1       0                               0D    348
     508     229       0       0       0       0       0       000010000D    349
     508       0       0       1       1                               0D    350
     508     230       0       0       0       0       0       000010000D    351
     508       0       0       1       1                               0D    352
     510     231       0       0       0       0       0       000010000D    353
     510       0    -359       1       1                               0D    354
     514     232       0       0       0       0       0       000010000D    355
     514       0       0       2       1                               0D    356
     186     234       0       0       1       0       0       000000000D    357
     186       0       0       1       0                  Solid1       0D    358
     314     235       0       0       0       0       0       000000000D    359
     314       0       2       1       0                               0D    360
406,2,0,11HBOTTOM TUBE;                                                1P      1
120,7,5,0.0D0,6.28318530717959D0;                                      3P      2
110,-3.975D0,0.0D0,19.375D0,-4.525D0,0.0D0,19.925D0;                   5P      3
110,0.0D0,0.0D0,19.375D0,0.0D0,0.0D0,20.375D0;                         7P      4
504,20,13,11,1,11,1,19,11,2,11,2,33,11,3,11,3,51,11,4,11,4,69,         9P      5
11,5,11,5,85,11,6,11,6,103,11,7,11,7,109,11,8,11,8,125,11,9,11,        9P      6
9,145,11,10,11,10,175,11,11,11,11,191,11,12,11,12,211,11,13,11,        9P      7
13,229,11,14,11,14,245,11,15,11,15,251,11,16,11,16,267,11,17,11,       9P      8
17,287,11,18,11,18,301,11,19,11,19,321,11,20,11,20;                    9P      9
502,20,4.0D0,-4.89858719658941D-16,19.4D0,4.5D0,                      11P     10
5.51091059616309D-16,19.9D0,-4.0D0,-4.89858719658941D-16,             11P     11
-19.4D0,7.5D0,-9.18485099360515D-16,19.9D0,-4.5D0,                    11P     12
5.51091059616309D-16,-19.9D0,7.5D0,9.18485099360515D-16,-19.9D0,      11P     13
7.5D0,-9.18485099360515D-16,-14.9D0,8.0D0,9.79717439317883D-16,       11P     14
-15.4D0,8.0D0,-9.79717439317883D-16,-19.4D0,5.5D0,                    11P     15
6.73555739531044D-16,-14.9D0,8.0D0,9.79717439317883D-16,19.4D0,       11P     16
8.0D0,-9.79717439317883D-16,15.4D0,7.5D0,9.18485099360515D-16,        11P     17
14.9D0,5.5D0,6.73555739531044D-16,14.9D0,7.5D0,                       11P     18
-9.18485099360515D-16,12.4D0,8.0D0,9.79717439317883D-16,11.9D0,       11P     19
8.0D0,-9.79717439317883D-16,-11.9D0,5.5D0,6.73555739531044D-16,       11P     20
12.4D0,7.5D0,9.18485099360515D-16,-12.4D0,5.5D0,                      11P     21
6.73555739531044D-16,-12.4D0;                                         11P     22
100,0.0D0,0.0D0,0.0D0,-4.0D0,4.89858719658941D-16,-4.0D0,             13P     23
4.89858719658941D-16;                                                 13P     24
124,-1.0D0,0.0D0,0.0D0,0.0D0,0.0D0,1.0D0,0.0D0,0.0D0,0.0D0,           15P     25
0.0D0,-1.0D0,19.4D0;                                                  15P     26
508,1,0,9,1,1,0;                                                      17P     27
100,0.0D0,0.0D0,0.0D0,-4.5D0,5.51091059616309D-16,-4.5D0,             19P     28
5.51091059616309D-16;                                                 19P     29
124,-1.0D0,0.0D0,0.0D0,0.0D0,0.0D0,-1.0D0,0.0D0,0.0D0,0.0D0,          21P     30
0.0D0,1.0D0,19.9D0;                                                   21P     31
508,1,0,9,2,1,0;                                                      23P     32
510,3,2,1,17,23;                                                      25P     33
120,31,29,0.0D0,6.28318530717959D0;                                   27P     34
110,-4.0D0,0.0D0,25.8825294189825D0,-4.0D0,0.0D0,-21.34D0;            29P     35
110,0.0D0,0.0D0,25.8825294189825D0,0.0D0,0.0D0,                       31P     36
24.8825294189825D0;                                                   31P     37
100,0.0D0,0.0D0,0.0D0,-4.0D0,4.89858719658941D-16,-4.0D0,             33P     38
4.89858719658941D-16;                                                 33P     39
124,1.0D0,0.0D0,0.0D0,0.0D0,0.0D0,1.0D0,0.0D0,0.0D0,0.0D0,0.0D0,      35P     40
1.0D0,-19.4D0;                                                        35P     41
508,1,0,9,3,0,0;                                                      37P     42
508,1,0,9,1,0,0;                                                      39P     43
510,27,2,1,37,39;                                                     41P     44
116,0.0D0,0.0D0,19.9D0,0;                                             43P     45
123,0.0D0,0.0D0,1.0D0;                                                45P     46
190,43,45,49;                                                         47P     47
123,1.0D0,0.0D0,0.0D0;                                                49P     48
100,0.0D0,0.0D0,0.0D0,-7.5D0,9.18485099360515D-16,-7.5D0,             51P     49
9.18485099360515D-16;                                                 51P     50
124,-1.0D0,0.0D0,0.0D0,0.0D0,0.0D0,1.0D0,0.0D0,0.0D0,0.0D0,           53P     51
0.0D0,-1.0D0,19.9D0;                                                  53P     52
508,1,0,9,4,0,0;                                                      55P     53
508,1,0,9,2,0,0;                                                      57P     54
510,47,2,1,55,57;                                                     59P     55
120,65,63,0.0D0,6.28318530717959D0;                                   61P     56
110,3.975D0,0.0D0,-19.375D0,4.525D0,0.0D0,-19.925D0;                  63P     57
110,0.0D0,0.0D0,-19.375D0,0.0D0,0.0D0,-20.375D0;                      65P     58
508,1,0,9,3,1,0;                                                      67P     59
100,0.0D0,0.0D0,0.0D0,-4.5D0,5.51091059616309D-16,-4.5D0,             69P     60
5.51091059616309D-16;                                                 69P     61
124,1.0D0,0.0D0,0.0D0,0.0D0,0.0D0,-1.0D0,0.0D0,0.0D0,0.0D0,           71P     62
0.0D0,-1.0D0,-19.9D0;                                                 71P     63
508,1,0,9,5,1,0;                                                      73P     64
510,61,2,1,67,73;                                                     75P     65
116,0.0D0,0.0D0,-19.9D0,0;                                            77P     66
123,0.0D0,0.0D0,-1.0D0;                                               79P     67
190,77,79,83;                                                         81P     68
123,-1.0D0,0.0D0,0.0D0;                                               83P     69
100,0.0D0,0.0D0,0.0D0,-7.5D0,9.18485099360515D-16,-7.5D0,             85P     70
9.18485099360515D-16;                                                 85P     71
124,-1.0D0,0.0D0,0.0D0,0.0D0,0.0D0,-1.0D0,0.0D0,0.0D0,0.0D0,          87P     72
0.0D0,1.0D0,-19.9D0;                                                  87P     73
508,1,0,9,6,0,0;                                                      89P     74
508,1,0,9,5,0,0;                                                      91P     75
510,81,2,1,89,91;                                                     93P     76
116,0.0D0,0.0D0,-15.15D0,0;                                           95P     77
123,0.0D0,0.0D0,-1.0D0;                                               97P     78
194,95,97,7.75D0,45.0D0,101;                                          99P     79
123,-1.0D0,0.0D0,0.0D0;                                              101P     80
100,0.0D0,0.0D0,0.0D0,-7.5D0,9.18485099360515D-16,-7.5D0,            103P     81
9.18485099360515D-16;                                                103P     82
124,-1.0D0,0.0D0,0.0D0,0.0D0,0.0D0,1.0D0,0.0D0,0.0D0,0.0D0,          105P     83
0.0D0,-1.0D0,-14.9D0;                                                105P     84
508,1,0,9,7,1,0;                                                     107P     85
100,0.0D0,0.0D0,0.0D0,-8.0D0,9.79717439317883D-16,-8.0D0,            109P     86
9.79717439317883D-16;                                                109P     87
124,-1.0D0,0.0D0,0.0D0,0.0D0,0.0D0,-1.0D0,0.0D0,0.0D0,0.0D0,         111P     88
0.0D0,1.0D0,-15.4D0;                                                 111P     89
508,1,0,9,8,1,0;                                                     113P     90
510,99,2,1,107,113;                                                  115P     91
116,0.0D0,0.0D0,-14.9D0,0;                                           117P     92
123,0.0D0,0.0D0,1.0D0;                                               119P     93
192,117,119,8.0D0,123;                                               121P     94
123,-1.0D0,0.0D0,0.0D0;                                              123P     95
100,0.0D0,0.0D0,0.0D0,-8.0D0,9.79717439317883D-16,-8.0D0,            125P     96
9.79717439317883D-16;                                                125P     97
124,-1.0D0,0.0D0,0.0D0,0.0D0,0.0D0,1.0D0,0.0D0,0.0D0,0.0D0,          127P     98
0.0D0,-1.0D0,-19.4D0;                                                127P     99
508,1,0,9,9,0,0;                                                     129P    100
508,1,0,9,8,0,0;                                                     131P    101
510,121,2,1,129,131;                                                 133P    102
116,0.0D0,0.0D0,-14.9D0,0;                                           135P    103
123,0.0D0,0.0D0,1.0D0;                                               137P    104
190,135,137,141;                                                     139P    105
123,1.0D0,0.0D0,0.0D0;                                               141P    106
508,1,0,9,7,0,0;                                                     143P    107
100,0.0D0,0.0D0,0.0D0,-5.5D0,6.73555739531044D-16,-5.5D0,            145P    108
6.73555739531044D-16;                                                145P    109
508,1,0,9,10,1,0;                                                    147P    110
510,139,2,1,143,147;                                                 149P    111
116,0.0D0,0.0D0,-19.65D0,0;                                          151P    112
123,0.0D0,0.0D0,1.0D0;                                               153P    113
194,151,153,7.75D0,45.0D0,157;                                       155P    114
123,-1.0D0,0.0D0,0.0D0;                                              157P    115
508,1,0,9,9,1,0;                                                     159P    116
508,1,0,9,6,1,0;                                                     161P    117
510,155,2,1,159,161;                                                 163P    118
116,0.0D0,0.0D0,19.65D0,0;                                           165P    119
123,0.0D0,0.0D0,-1.0D0;                                              167P    120
194,165,167,7.75D0,45.0D0,171;                                       169P    121
123,-1.0D0,0.0D0,0.0D0;                                              171P    122
508,1,0,9,4,1,0;                                                     173P    123
100,0.0D0,0.0D0,0.0D0,-8.0D0,9.79717439317883D-16,-8.0D0,            175P    124
9.79717439317883D-16;                                                175P    125
124,-1.0D0,0.0D0,0.0D0,0.0D0,0.0D0,-1.0D0,0.0D0,0.0D0,0.0D0,         177P    126
0.0D0,1.0D0,19.4D0;                                                  177P    127
508,1,0,9,11,1,0;                                                    179P    128
510,169,2,1,173,179;                                                 181P    129
116,0.0D0,0.0D0,14.9D0,0;                                            183P    130
123,0.0D0,0.0D0,1.0D0;                                               185P    131
192,183,185,8.0D0,189;                                               187P    132
123,-1.0D0,0.0D0,0.0D0;                                              189P    133
100,0.0D0,0.0D0,0.0D0,-8.0D0,9.79717439317883D-16,-8.0D0,            191P    134
9.79717439317883D-16;                                                191P    135
124,-1.0D0,0.0D0,0.0D0,0.0D0,0.0D0,1.0D0,0.0D0,0.0D0,0.0D0,          193P    136
0.0D0,-1.0D0,15.4D0;                                                 193P    137
508,1,0,9,12,0,0;                                                    195P    138
508,1,0,9,11,0,0;                                                    197P    139
510,187,2,1,195,197;                                                 199P    140
116,0.0D0,0.0D0,15.15D0,0;                                           201P    141
123,0.0D0,0.0D0,1.0D0;                                               203P    142
194,201,203,7.75D0,45.0D0,207;                                       205P    143
123,-1.0D0,0.0D0,0.0D0;                                              207P    144
508,1,0,9,12,1,0;                                                    209P    145
100,0.0D0,0.0D0,0.0D0,-7.5D0,9.18485099360515D-16,-7.5D0,            211P    146
9.18485099360515D-16;                                                211P    147
124,-1.0D0,0.0D0,0.0D0,0.0D0,0.0D0,-1.0D0,0.0D0,0.0D0,0.0D0,         213P    148
0.0D0,1.0D0,14.9D0;                                                  213P    149
508,1,0,9,13,1,0;                                                    215P    150
510,205,2,1,209,215;                                                 217P    151
116,0.0D0,0.0D0,14.9D0,0;                                            219P    152
123,0.0D0,0.0D0,-1.0D0;                                              221P    153
190,219,221,225;                                                     223P    154
123,-1.0D0,0.0D0,0.0D0;                                              225P    155
508,1,0,9,13,0,0;                                                    227P    156
100,0.0D0,0.0D0,0.0D0,-5.5D0,6.73555739531044D-16,-5.5D0,            229P    157
6.73555739531044D-16;                                                229P    158
124,-1.0D0,0.0D0,0.0D0,0.0D0,0.0D0,1.0D0,0.0D0,0.0D0,0.0D0,          231P    159
0.0D0,-1.0D0,14.9D0;                                                 231P    160
508,1,0,9,14,0,0;                                                    233P    161
510,223,2,1,227,233;                                                 235P    162
116,0.0D0,0.0D0,12.15D0,0;                                           237P    163
123,0.0D0,0.0D0,-1.0D0;                                              239P    164
194,237,239,7.75D0,45.0D0,243;                                       241P    165
123,-1.0D0,0.0D0,0.0D0;                                              243P    166
100,0.0D0,0.0D0,0.0D0,-7.5D0,9.18485099360515D-16,-7.5D0,            245P    167
9.18485099360515D-16;                                                245P    168
124,-1.0D0,0.0D0,0.0D0,0.0D0,0.0D0,1.0D0,0.0D0,0.0D0,0.0D0,          247P    169
0.0D0,-1.0D0,12.4D0;                                                 247P    170
508,1,0,9,15,1,0;                                                    249P    171
100,0.0D0,0.0D0,0.0D0,-8.0D0,9.79717439317883D-16,-8.0D0,            251P    172
9.79717439317883D-16;                                                251P    173
124,-1.0D0,0.0D0,0.0D0,0.0D0,0.0D0,-1.0D0,0.0D0,0.0D0,0.0D0,         253P    174
0.0D0,1.0D0,11.9D0;                                                  253P    175
508,1,0,9,16,1,0;                                                    255P    176
510,241,2,1,249,255;                                                 257P    177
116,0.0D0,0.0D0,0.0D0,0;                                             259P    178
123,0.0D0,0.0D0,1.0D0;                                               261P    179
192,259,261,8.0D0,265;                                               263P    180
123,-1.0D0,0.0D0,0.0D0;                                              265P    181
100,0.0D0,0.0D0,0.0D0,-8.0D0,9.79717439317883D-16,-8.0D0,            267P    182
9.79717439317883D-16;                                                267P    183
124,-1.0D0,0.0D0,0.0D0,0.0D0,0.0D0,1.0D0,0.0D0,0.0D0,0.0D0,          269P    184
0.0D0,-1.0D0,-11.9D0;                                                269P    185
508,1,0,9,17,0,0;                                                    271P    186
508,1,0,9,16,0,0;                                                    273P    187
510,263,2,1,271,273;                                                 275P    188
116,0.0D0,0.0D0,12.4D0,0;                                            277P    189
123,0.0D0,0.0D0,1.0D0;                                               279P    190
190,277,279,283;                                                     281P    191
123,1.0D0,0.0D0,0.0D0;                                               283P    192
508,1,0,9,15,0,0;                                                    285P    193
100,0.0D0,0.0D0,0.0D0,-5.5D0,6.73555739531044D-16,-5.5D0,            287P    194
6.73555739531044D-16;                                                287P    195
508,1,0,9,18,1,0;                                                    289P    196
510,281,2,1,285,289;                                                 291P    197
116,0.0D0,0.0D0,-12.15D0,0;                                          293P    198
123,0.0D0,0.0D0,1.0D0;                                               295P    199
194,293,295,7.75D0,45.0D0,299;                                       297P    200
123,-1.0D0,0.0D0,0.0D0;                                              299P    201
100,0.0D0,0.0D0,0.0D0,-7.5D0,9.18485099360515D-16,-7.5D0,            301P    202
9.18485099360515D-16;                                                301P    203
124,-1.0D0,0.0D0,0.0D0,0.0D0,0.0D0,-1.0D0,0.0D0,0.0D0,0.0D0,         303P    204
0.0D0,1.0D0,-12.4D0;                                                 303P    205
508,1,0,9,19,1,0;                                                    305P    206
508,1,0,9,17,1,0;                                                    307P    207
510,297,2,1,305,307;                                                 309P    208
116,0.0D0,0.0D0,-12.4D0,0;                                           311P    209
123,0.0D0,0.0D0,-1.0D0;                                              313P    210
190,311,313,317;                                                     315P    211
123,-1.0D0,0.0D0,0.0D0;                                              317P    212
508,1,0,9,19,0,0;                                                    319P    213
100,0.0D0,0.0D0,0.0D0,-5.5D0,6.73555739531044D-16,-5.5D0,            321P    214
6.73555739531044D-16;                                                321P    215
508,1,0,9,20,1,0;                                                    323P    216
510,315,2,1,319,323;                                                 325P    217
116,0.0D0,0.0D0,-12.4D0,0;                                           327P    218
123,0.0D0,0.0D0,1.0D0;                                               329P    219
192,327,329,5.5D0,333;                                               331P    220
123,-1.0D0,0.0D0,0.0D0;                                              333P    221
508,1,0,9,10,0,0;                                                    335P    222
508,1,0,9,20,0,0;                                                    337P    223
510,331,2,1,335,337;                                                 339P    224
116,0.0D0,0.0D0,12.4D0,0;                                            341P    225
123,0.0D0,0.0D0,1.0D0;                                               343P    226
192,341,343,5.5D0,347;                                               345P    227
123,-1.0D0,0.0D0,0.0D0;                                              347P    228
508,1,0,9,14,1,0;                                                    349P    229
508,1,0,9,18,0,0;                                                    351P    230
510,345,2,1,349,351;                                                 353P    231
514,20,25,1,41,1,59,1,75,1,93,1,115,1,133,1,149,1,163,1,181,1,       355P    232
199,1,217,1,235,1,257,1,275,1,291,1,309,1,325,1,339,1,353,1;         355P    233
186,355,1,0;                                                         357P    234
314,65.8824026584625D0,34.9020004272461D0,12.5489994883537D0,;       359P    235
S      1G      4D    360P    235                                        T      1
