                                                                        S      1
,,19HBEARING CLAMP 3.ipt,27HNo Iges File Name specified,22HAutodesk InveG      1
ntor 2012,37HAutoDesk Inventor Iges Exporter R2012,32,38,6,99,15,19HBEARG      2
ING CLAMP 3.ipt,1.0D0,2,2HMM,1,.08D0,15H20140610.145617,.01D0,10000.0D0,G      3
3Hjge,,11,0,,;                                                          G      4
     406       1       0       0       1       0       0       000000000D      1
     406       0       0       1       3                               0D      2
     120       2       0       0       0       0       0       000010000D      3
     120       0       0       1       0                               0D      4
     110       3       0       0       0       0       0       000010000D      5
     110       0       0       2       0                               0D      6
     110       5       0       0       0       0       0       001010000D      7
     110       0       0       2       0                               0D      8
     504       7       0       0       0       0       0       000010001D      9
     504       0       0       9       1                               0D     10
     502      16       0       0       0       0       0       000010000D     11
     502       0       0      16       1                               0D     12
     100      32       0       0       0       0      15       000010000D     13
     100       0       0       2       0                               0D     14
     124      34       0       0       0       0       0       000000000D     15
     124       0       0       2       0                               0D     16
     508      36       0       0       0       0       0       000010000D     17
     508       0       0       1       1                               0D     18
     100      37       0       0       0       0      21       000010000D     19
     100       0       0       2       0                               0D     20
     124      39       0       0       0       0       0       000000000D     21
     124       0       0       2       0                               0D     22
     508      41       0       0       0       0       0       000010000D     23
     508       0       0       1       1                               0D     24
     510      42       0       0       0       0       0       000010000D     25
     510       0       1       1       1                               0D     26
     120      43       0       0       0       0       0       000010000D     27
     120       0       0       1       0                               0D     28
     110      44       0       0       0       0       0       000010000D     29
     110       0       0       2       0                               0D     30
     110      46       0       0       0       0       0       001010000D     31
     110       0       0       2       0                               0D     32
     100      48       0       0       0       0      35       000010000D     33
     100       0       0       2       0                               0D     34
     124      50       0       0       0       0       0       000000000D     35
     124       0       0       2       0                               0D     36
     508      52       0       0       0       0       0       000010000D     37
     508       0       0       1       1                               0D     38
     100      53       0       0       0       0      41       000010000D     39
     100       0       0       2       0                               0D     40
     124      55       0       0       0       0       0       000000000D     41
     124       0       0       2       0                               0D     42
     508      57       0       0       0       0       0       000010000D     43
     508       0       0       1       1                               0D     44
     510      58       0       0       0       0       0       000010000D     45
     510       0       1       1       1                               0D     46
     116      59       0       0       0       0       0       000010000D     47
     116       0       0       1       0                               0D     48
     123      60       0       0       0       0       0       000010200D     49
     123       0       0       1       0                               0D     50
     192      61       0       0       0       0       0       000010000D     51
     192       0       0       1       1                               0D     52
     123      62       0       0       0       0       0       000010200D     53
     123       0       0       1       0                               0D     54
     100      63       0       0       0       0      57       000010000D     55
     100       0       0       2       0                               0D     56
     124      65       0       0       0       0       0       000000000D     57
     124       0       0       3       0                               0D     58
     110      68       0       0       0       0       0       000010000D     59
     110       0       0       2       0                               0D     60
     100      70       0       0       0       0      63       000010000D     61
     100       0       0       2       0                               0D     62
     124      72       0       0       0       0       0       000000000D     63
     124       0       0       3       0                               0D     64
     110      75       0       0       0       0       0       000010000D     65
     110       0       0       2       0                               0D     66
     508      77       0       0       0       0       0       000010000D     67
     508       0       0       1       1                               0D     68
     510      78       0       0       0       0       0       000010000D     69
     510       0       1       1       1                               0D     70
     116      79       0       0       0       0       0       000010000D     71
     116       0       0       1       0                               0D     72
     123      80       0       0       0       0       0       000010200D     73
     123       0       0       1       0                               0D     74
     190      81       0       0       0       0       0       000010000D     75
     190       0       0       1       1                               0D     76
     123      82       0       0       0       0       0       000010200D     77
     123       0       0       1       0                               0D     78
     110      83       0       0       0       0       0       000010000D     79
     110       0       0       2       0                               0D     80
     100      85       0       0       0       0      83       000010000D     81
     100       0       0       2       0                               0D     82
     124      87       0       0       0       0       0       000000000D     83
     124       0       0       3       0                               0D     84
     110      90       0       0       0       0       0       000010000D     85
     110       0       0       2       0                               0D     86
     110      92       0       0       0       0       0       000010000D     87
     110       0       0       2       0                               0D     88
     110      94       0       0       0       0       0       000010000D     89
     110       0       0       2       0                               0D     90
     100      96       0       0       0       0      93       000010000D     91
     100       0       0       1       0                               0D     92
     124      97       0       0       0       0       0       000000000D     93
     124       0       0       3       0                               0D     94
     110     100       0       0       0       0       0       000010000D     95
     110       0       0       2       0                               0D     96
     508     102       0       0       0       0       0       000010000D     97
     508       0       0       2       1                               0D     98
     510     104       0       0       0       0       0       000010000D     99
     510       0       1       1       1                               0D    100
     116     105       0       0       0       0       0       000010000D    101
     116       0       0       1       0                               0D    102
     123     106       0       0       0       0       0       000010200D    103
     123       0       0       1       0                               0D    104
     190     107       0       0       0       0       0       000010000D    105
     190       0       0       1       1                               0D    106
     123     108       0       0       0       0       0       000010200D    107
     123       0       0       1       0                               0D    108
     110     109       0       0       0       0       0       000010000D    109
     110       0       0       2       0                               0D    110
     100     111       0       0       0       0     113       000010000D    111
     100       0       0       2       0                               0D    112
     124     113       0       0       0       0       0       000000000D    113
     124       0       0       3       0                               0D    114
     110     116       0       0       0       0       0       000010000D    115
     110       0       0       2       0                               0D    116
     110     118       0       0       0       0       0       000010000D    117
     110       0       0       2       0                               0D    118
     508     120       0       0       0       0       0       000010000D    119
     508       0       0       2       1                               0D    120
     508     122       0       0       0       0       0       000010000D    121
     508       0       0       1       1                               0D    122
     510     123       0       0       0       0       0       000010000D    123
     510       0       1       1       1                               0D    124
     116     124       0       0       0       0       0       000010000D    125
     116       0       0       1       0                               0D    126
     123     125       0       0       0       0       0       000010200D    127
     123       0       0       1       0                               0D    128
     192     126       0       0       0       0       0       000010000D    129
     192       0       0       1       1                               0D    130
     123     127       0       0       0       0       0       000010200D    131
     123       0       0       1       0                               0D    132
     110     128       0       0       0       0       0       000010000D    133
     110       0       0       2       0                               0D    134
     100     130       0       0       0       0     137       000010000D    135
     100       0       0       2       0                               0D    136
     124     132       0       0       0       0       0       000000000D    137
     124       0       0       3       0                               0D    138
     110     135       0       0       0       0       0       000010000D    139
     110       0       0       2       0                               0D    140
     508     137       0       0       0       0       0       000010000D    141
     508       0       0       1       1                               0D    142
     510     138       0       0       0       0       0       000010000D    143
     510       0       1       1       1                               0D    144
     116     139       0       0       0       0       0       000010000D    145
     116       0       0       1       0                               0D    146
     123     140       0       0       0       0       0       000010200D    147
     123       0       0       1       0                               0D    148
     190     141       0       0       0       0       0       000010000D    149
     190       0       0       1       1                               0D    150
     123     142       0       0       0       0       0       000010200D    151
     123       0       0       1       0                               0D    152
     110     143       0       0       0       0       0       000010000D    153
     110       0       0       2       0                               0D    154
     100     145       0       0       0       0     157       000010000D    155
     100       0       0       2       0                               0D    156
     124     147       0       0       0       0       0       000000000D    157
     124       0       0       3       0                               0D    158
     110     150       0       0       0       0       0       000010000D    159
     110       0       0       2       0                               0D    160
     110     152       0       0       0       0       0       000010000D    161
     110       0       0       2       0                               0D    162
     110     154       0       0       0       0       0       000010000D    163
     110       0       0       2       0                               0D    164
     100     156       0       0       0       0     167       000010000D    165
     100       0       0       2       0                               0D    166
     124     158       0       0       0       0       0       000000000D    167
     124       0       0       3       0                               0D    168
     508     161       0       0       0       0       0       000010000D    169
     508       0       0       2       1                               0D    170
     510     163       0       0       0       0       0       000010000D    171
     510       0       1       1       1                               0D    172
     120     164       0       0       0       0       0       000010000D    173
     120       0       0       1       0                               0D    174
     110     165       0       0       0       0       0       000010000D    175
     110       0       0       2       0                               0D    176
     110     167       0       0       0       0       0       001010000D    177
     110       0       0       1       0                               0D    178
     110     168       0       0       0       0       0       000010000D    179
     110       0       0       2       0                               0D    180
     110     170       0       0       0       0       0       000010000D    181
     110       0       0       2       0                               0D    182
     508     172       0       0       0       0       0       000010000D    183
     508       0       0       1       1                               0D    184
     510     173       0       0       0       0       0       000010000D    185
     510       0       1       1       1                               0D    186
     116     174       0       0       0       0       0       000010000D    187
     116       0       0       1       0                               0D    188
     123     175       0       0       0       0       0       000010200D    189
     123       0       0       1       0                               0D    190
     190     176       0       0       0       0       0       000010000D    191
     190       0       0       1       1                               0D    192
     123     177       0       0       0       0       0       000010200D    193
     123       0       0       1       0                               0D    194
     110     178       0       0       0       0       0       000010000D    195
     110       0       0       2       0                               0D    196
     508     180       0       0       0       0       0       000010000D    197
     508       0       0       1       1                               0D    198
     508     181       0       0       0       0       0       000010000D    199
     508       0       0       1       1                               0D    200
     510     182       0       0       0       0       0       000010000D    201
     510       0       1       1       1                               0D    202
     116     183       0       0       0       0       0       000010000D    203
     116       0       0       1       0                               0D    204
     123     184       0       0       0       0       0       000010200D    205
     123       0       0       1       0                               0D    206
     190     185       0       0       0       0       0       000010000D    207
     190       0       0       1       1                               0D    208
     123     186       0       0       0       0       0       000010200D    209
     123       0       0       1       0                               0D    210
     110     187       0       0       0       0       0       000010000D    211
     110       0       0       2       0                               0D    212
     508     189       0       0       0       0       0       000010000D    213
     508       0       0       1       1                               0D    214
     510     190       0       0       0       0       0       000010000D    215
     510       0       1       1       1                               0D    216
     116     191       0       0       0       0       0       000010000D    217
     116       0       0       1       0                               0D    218
     123     192       0       0       0       0       0       000010200D    219
     123       0       0       1       0                               0D    220
     190     193       0       0       0       0       0       000010000D    221
     190       0       0       1       1                               0D    222
     123     194       0       0       0       0       0       000010200D    223
     123       0       0       1       0                               0D    224
     110     195       0       0       0       0       0       000010000D    225
     110       0       0       2       0                               0D    226
     508     197       0       0       0       0       0       000010000D    227
     508       0       0       1       1                               0D    228
     508     198       0       0       0       0       0       000010000D    229
     508       0       0       1       1                               0D    230
     510     199       0       0       0       0       0       000010000D    231
     510       0       1       1       1                               0D    232
     116     200       0       0       0       0       0       000010000D    233
     116       0       0       1       0                               0D    234
     123     201       0       0       0       0       0       000010200D    235
     123       0       0       1       0                               0D    236
     192     202       0       0       0       0       0       000010000D    237
     192       0       0       1       1                               0D    238
     123     203       0       0       0       0       0       000010200D    239
     123       0       0       1       0                               0D    240
     508     204       0       0       0       0       0       000010000D    241
     508       0       0       1       1                               0D    242
     510     205       0       0       0       0       0       000010000D    243
     510       0       1       1       1                               0D    244
     116     206       0       0       0       0       0       000010000D    245
     116       0       0       1       0                               0D    246
     123     207       0       0       0       0       0       000010200D    247
     123       0       0       1       0                               0D    248
     190     208       0       0       0       0       0       000010000D    249
     190       0       0       1       1                               0D    250
     123     209       0       0       0       0       0       000010200D    251
     123       0       0       1       0                               0D    252
     110     210       0       0       0       0       0       000010000D    253
     110       0       0       2       0                               0D    254
     508     212       0       0       0       0       0       000010000D    255
     508       0       0       1       1                               0D    256
     510     213       0       0       0       0       0       000010000D    257
     510       0       1       1       1                               0D    258
     116     214       0       0       0       0       0       000010000D    259
     116       0       0       1       0                               0D    260
     123     215       0       0       0       0       0       000010200D    261
     123       0       0       1       0                               0D    262
     190     216       0       0       0       0       0       000010000D    263
     190       0       0       1       1                               0D    264
     123     217       0       0       0       0       0       000010200D    265
     123       0       0       1       0                               0D    266
     508     218       0       0       0       0       0       000010000D    267
     508       0       0       2       1                               0D    268
     508     220       0       0       0       0       0       000010000D    269
     508       0       0       1       1                               0D    270
     510     221       0       0       0       0       0       000010000D    271
     510       0       1       1       1                               0D    272
     514     222       0       0       0       0       0       000010000D    273
     514       0       0       2       1                               0D    274
     186     224       0       0       1       0       0       000000000D    275
     186       0       0       1       0                  Solid1       0D    276
406,2,0,15HBEARING CLAMP 3;                                            1P      1
120,7,5,0.0D0,6.28318530717959D0;                                      3P      2
110,17.0183866224478D0,6.2D0,0.0D0,17.0183866224478D0,1.8D0,           5P      3
0.0D0;                                                                 5P      4
110,19.5933866224478D0,6.2D0,0.0D0,19.5933866224478D0,5.2D0,           7P      5
0.0D0;                                                                 7P      6
504,34,13,11,1,11,1,19,11,2,11,2,33,11,3,11,3,39,11,4,11,4,55,         9P      7
11,5,11,6,59,11,6,11,7,61,11,7,11,8,65,11,8,11,5,79,11,9,11,8,         9P      8
81,11,10,11,9,85,11,11,11,10,87,11,12,11,11,89,11,13,11,12,91,         9P      9
11,14,11,13,95,11,5,11,14,109,11,7,11,15,111,11,16,11,15,115,11,       9P     10
16,11,17,117,11,9,11,17,133,11,15,11,18,135,11,18,11,19,139,11,        9P     11
19,11,16,153,11,20,11,19,155,11,21,11,20,159,11,22,11,21,161,11,       9P     12
23,11,22,163,11,24,11,23,165,11,17,11,24,179,11,13,11,21,181,11,       9P     13
14,11,20,195,11,12,11,22,211,11,11,11,23,225,11,10,11,24,253,11,       9P     14
18,11,6;                                                               9P     15
502,24,22.1683866224478D0,2.0D0,-3.15346550780443D-16,                11P     16
22.1683866224478D0,6.0D0,-3.15346550780443D-16,                       11P     17
-16.1437969582276D0,-1.20274161001059D-15,-3.36777869765522D-16,      11P     18
-16.1437969582276D0,4.0D0,-3.36777869765522D-16,                      11P     19
25.0933866224478D0,2.0D0,9.0D0,27.0933866224478D0,2.0D0,7.0D0,        11P     20
27.0933866224478D0,6.0D0,7.0D0,25.0933866224478D0,6.0D0,9.0D0,        11P     21
12.0933866224478D0,6.0D0,9.0D0,-12.8937969582276D0,4.0D0,9.0D0,       11P     22
-24.8937969582276D0,4.0D0,9.0D0,-24.8937969582276D0,                  11P     23
3.05311331771918D-15,9.0D0,-9.5D0,1.16591720245439D-15,9.0D0,         11P     24
9.28708781050336D0,2.0D0,9.0D0,27.0933866224478D0,6.0D0,-7.0D0,       11P     25
25.0933866224478D0,6.0D0,-9.0D0,12.0933866224478D0,6.0D0,-9.0D0,      11P     26
27.0933866224478D0,2.0D0,-7.0D0,25.0933866224478D0,2.0D0,-9.0D0,      11P     27
9.28708781050336D0,2.0D0,-9.0D0,-9.5D0,1.16591720245439D-15,          11P     28
-9.0D0,-24.8937969582276D0,3.05311331771918D-15,-9.0D0,               11P     29
-24.8937969582276D0,4.0D0,-9.0D0,-12.8937969582276D0,4.0D0,           11P     30
-9.0D0;                                                               11P     31
100,0.0D0,0.0D0,0.0D0,-2.575D0,3.15346550780444D-16,-2.575D0,         13P     32
3.15346550780444D-16;                                                 13P     33
124,-1.0D0,0.0D0,0.0D0,19.5933866224478D0,0.0D0,0.0D0,1.0D0,          15P     34
2.0D0,0.0D0,1.0D0,0.0D0,0.0D0;                                        15P     35
508,1,0,9,1,0,0;                                                      17P     36
100,0.0D0,0.0D0,0.0D0,-2.575D0,3.15346550780444D-16,-2.575D0,         19P     37
3.15346550780444D-16;                                                 19P     38
124,-1.0D0,0.0D0,0.0D0,19.5933866224478D0,0.0D0,0.0D0,-1.0D0,         21P     39
6.0D0,0.0D0,-1.0D0,0.0D0,0.0D0;                                       21P     40
508,1,0,9,2,0,0;                                                      23P     41
510,3,2,1,17,23;                                                      25P     42
120,31,29,0.0D0,6.28318530717959D0;                                   27P     43
110,-21.6437969582276D0,4.2D0,0.0D0,-21.6437969582276D0,              29P     44
-.200000000000002D0,0.0D0;                                            29P     45
110,-18.8937969582276D0,4.2D0,0.0D0,-18.8937969582276D0,3.2D0,        31P     46
0.0D0;                                                                31P     47
100,0.0D0,0.0D0,0.0D0,-2.75D0,3.36777869765522D-16,-2.75D0,           33P     48
3.36777869765522D-16;                                                 33P     49
124,-1.0D0,0.0D0,0.0D0,-18.8937969582276D0,0.0D0,0.0D0,1.0D0,         35P     50
-2.22044604925031D-15,0.0D0,1.0D0,0.0D0,0.0D0;                        35P     51
508,1,0,9,3,0,0;                                                      37P     52
100,0.0D0,0.0D0,0.0D0,-2.75D0,3.36777869765522D-16,-2.75D0,           39P     53
3.36777869765522D-16;                                                 39P     54
124,-1.0D0,0.0D0,0.0D0,-18.8937969582276D0,0.0D0,0.0D0,-1.0D0,        41P     55
4.0D0,0.0D0,-1.0D0,0.0D0,0.0D0;                                       41P     56
508,1,0,9,4,0,0;                                                      43P     57
510,27,2,1,37,43;                                                     45P     58
116,25.0933866224478D0,5.65696521952209D0,7.0D0,0;                    47P     59
123,0.0D0,-1.0D0,0.0D0;                                               49P     60
192,47,49,2.0D0,53;                                                   51P     61
123,.707106781186548D0,0.0D0,.707106781186548D0;                      53P     62
100,0.0D0,0.0D0,0.0D0,1.41421356237309D0,-1.4142135623731D0,          55P     63
1.4142135623731D0,1.41421356237309D0;                                 55P     64
124,.707106781186548D0,.707106781186548D0,0.0D0,                      57P     65
25.0933866224478D0,0.0D0,0.0D0,1.0D0,2.0D0,.707106781186548D0,        57P     66
-.707106781186548D0,0.0D0,7.0D0;                                      57P     67
110,27.0933866224478D0,2.0D0,7.0D0,27.0933866224478D0,6.0D0,          59P     68
7.0D0;                                                                59P     69
100,0.0D0,0.0D0,0.0D0,1.41421356237309D0,-1.4142135623731D0,          61P     70
1.4142135623731D0,1.41421356237309D0;                                 61P     71
124,.707106781186548D0,-.707106781186548D0,0.0D0,                     63P     72
25.0933866224478D0,0.0D0,0.0D0,-1.0D0,6.0D0,.707106781186548D0,       63P     73
.707106781186548D0,0.0D0,7.0D0;                                       63P     74
110,25.0933866224478D0,6.0D0,9.0D0,25.0933866224478D0,2.0D0,          65P     75
9.0D0;                                                                65P     76
508,4,0,9,5,1,0,0,9,6,1,0,0,9,7,1,0,0,9,8,1,0;                        67P     77
510,51,1,1,67;                                                        69P     78
116,.718864197039833D0,5.31393043904418D0,9.0D0,0;                    71P     79
123,0.0D0,0.0D0,1.0D0;                                                73P     80
190,71,73,77;                                                         75P     81
123,1.0D0,0.0D0,0.0D0;                                                77P     82
110,12.0933866224478D0,6.0D0,9.0D0,25.0933866224478D0,6.0D0,          79P     83
9.0D0;                                                                79P     84
100,0.0D0,0.0D0,0.0D0,9.77256827016211D0,9.31380209178941D0,          81P     85
-13.5D0,1.65327317884893D-15;                                         81P     86
124,-.895806416477617D0,-.444444444444444D0,0.0D0,0.0D0,              83P     87
-.444444444444444D0,.895806416477617D0,0.0D0,0.0D0,0.0D0,0.0D0,       83P     88
-1.0D0,9.0D0;                                                         83P     89
110,-24.8937969582276D0,4.0D0,9.0D0,-12.8937969582276D0,4.0D0,        85P     90
9.0D0;                                                                85P     91
110,-24.8937969582276D0,3.05311331771918D-15,9.0D0,                   87P     92
-24.8937969582276D0,4.0D0,9.0D0;                                      87P     93
110,-9.5D0,1.16591720245439D-15,9.0D0,-24.8937969582276D0,            89P     94
3.05311331771918D-15,9.0D0;                                           89P     95
100,0.0D0,0.0D0,0.0D0,9.5D0,0.0D0,-9.28708781050336D0,2.0D0;          91P     96
124,.977588190579301D0,-.210526315789474D0,0.0D0,0.0D0,               93P     97
.210526315789474D0,.977588190579301D0,0.0D0,0.0D0,0.0D0,0.0D0,        93P     98
1.0D0,9.0D0;                                                          93P     99
110,25.0933866224478D0,2.0D0,9.0D0,9.28708781050336D0,2.0D0,          95P    100
9.0D0;                                                                95P    101
508,8,0,9,8,0,0,0,9,9,0,0,0,9,10,0,0,0,9,11,0,0,0,9,12,0,0,0,9,       97P    102
13,0,0,0,9,14,0,0,0,9,15,0,0;                                         97P    103
510,75,1,1,97;                                                        99P    104
116,12.0933866224478D0,6.0D0,0.0D0,0;                                101P    105
123,0.0D0,1.0D0,0.0D0;                                               103P    106
190,101,103,107;                                                     105P    107
123,0.0D0,0.0D0,1.0D0;                                               107P    108
110,27.0933866224478D0,6.0D0,7.0D0,27.0933866224478D0,6.0D0,         109P    109
-7.0D0;                                                              109P    110
100,0.0D0,0.0D0,0.0D0,1.41421356237309D0,-1.4142135623731D0,         111P    111
1.4142135623731D0,1.41421356237309D0;                                111P    112
124,.707106781186548D0,.707106781186548D0,0.0D0,                     113P    113
25.0933866224478D0,0.0D0,0.0D0,-1.0D0,6.0D0,-.707106781186548D0,     113P    114
.707106781186548D0,0.0D0,-7.0D0;                                     113P    115
110,25.0933866224478D0,6.0D0,-9.0D0,12.0933866224478D0,6.0D0,        115P    116
-9.0D0;                                                              115P    117
110,12.0933866224478D0,6.0D0,9.0D0,12.0933866224478D0,6.0D0,         117P    118
-9.0D0;                                                              117P    119
508,6,0,9,7,0,0,0,9,16,1,0,0,9,17,0,0,0,9,18,1,0,0,9,19,0,0,0,9,     119P    120
9,1,0;                                                               119P    121
508,1,0,9,2,1,0;                                                     121P    122
510,105,2,1,119,121;                                                 123P    123
116,25.0933866224478D0,5.65696521952209D0,-7.0D0,0;                  125P    124
123,0.0D0,1.0D0,0.0D0;                                               127P    125
192,125,127,2.0D0,131;                                               129P    126
123,.707106781186548D0,0.0D0,-.707106781186548D0;                    131P    127
110,27.0933866224478D0,6.0D0,-7.0D0,27.0933866224478D0,2.0D0,        133P    128
-7.0D0;                                                              133P    129
100,0.0D0,0.0D0,0.0D0,1.41421356237309D0,-1.4142135623731D0,         135P    130
1.4142135623731D0,1.41421356237309D0;                                135P    131
124,.707106781186548D0,-.707106781186548D0,0.0D0,                    137P    132
25.0933866224478D0,0.0D0,0.0D0,1.0D0,2.0D0,-.707106781186548D0,      137P    133
-.707106781186548D0,0.0D0,-7.0D0;                                    137P    134
110,25.0933866224478D0,2.0D0,-9.0D0,25.0933866224478D0,6.0D0,        139P    135
-9.0D0;                                                              139P    136
508,4,0,9,17,1,0,0,9,20,1,0,0,9,21,1,0,0,9,22,1,0;                   141P    137
510,129,1,1,141;                                                     143P    138
116,.718864197039833D0,5.31393043904418D0,-9.0D0,0;                  145P    139
123,0.0D0,0.0D0,-1.0D0;                                              147P    140
190,145,147,151;                                                     149P    141
123,-1.0D0,0.0D0,0.0D0;                                              151P    142
110,9.28708781050336D0,2.0D0,-9.0D0,25.0933866224478D0,2.0D0,        153P    143
-9.0D0;                                                              153P    144
100,0.0D0,0.0D0,0.0D0,-9.28708781050336D0,-2.0D0,9.5D0,              155P    145
-2.32682891837997D-15;                                               155P    146
124,.977588190579301D0,.210526315789474D0,0.0D0,0.0D0,               157P    147
.210526315789474D0,-.977588190579301D0,0.0D0,0.0D0,0.0D0,0.0D0,      157P    148
-1.0D0,-9.0D0;                                                       157P    149
110,-24.8937969582276D0,3.05311331771918D-15,-9.0D0,-9.5D0,          159P    150
1.16591720245439D-15,-9.0D0;                                         159P    151
110,-24.8937969582276D0,4.0D0,-9.0D0,-24.8937969582276D0,            161P    152
3.05311331771918D-15,-9.0D0;                                         161P    153
110,-12.8937969582276D0,4.0D0,-9.0D0,-24.8937969582276D0,4.0D0,      163P    154
-9.0D0;                                                              163P    155
100,0.0D0,0.0D0,0.0D0,-13.5D0,1.65327317884893D-15,                  165P    156
9.77256827016211D0,-9.31380209178941D0;                              165P    157
124,-.895806416477617D0,.444444444444444D0,0.0D0,0.0D0,              167P    158
-.444444444444444D0,-.895806416477617D0,0.0D0,0.0D0,0.0D0,0.0D0,     167P    159
1.0D0,-9.0D0;                                                        167P    160
508,8,0,9,22,0,0,0,9,23,0,0,0,9,24,0,0,0,9,25,0,0,0,9,26,0,0,0,      169P    161
9,27,0,0,0,9,28,0,0,0,9,18,0,0;                                      169P    162
510,149,1,1,169;                                                     171P    163
120,177,175,0.0D0,6.28318530717959D0;                                173P    164
110,9.28708781050336D0,2.0D0,-9.9D0,9.28708781050336D0,2.0D0,        175P    165
9.9D0;                                                               175P    166
110,0.0D0,0.0D0,-9.9D0,0.0D0,0.0D0,-8.9D0;                           177P    167
110,-9.5D0,1.16591720245439D-15,9.0D0,-9.5D0,                        179P    168
1.16591720245439D-15,-9.0D0;                                         179P    169
110,9.28708781050336D0,2.0D0,9.0D0,9.28708781050336D0,2.0D0,         181P    170
-9.0D0;                                                              181P    171
508,4,0,9,14,1,0,0,9,29,1,0,0,9,24,1,0,0,9,30,0,0;                   183P    172
510,173,1,1,183;                                                     185P    173
116,-9.5D0,1.16591720245439D-15,0.0D0,0;                             187P    174
123,0.0D0,-1.0D0,0.0D0;                                              189P    175
190,187,189,193;                                                     191P    176
123,0.0D0,0.0D0,-1.0D0;                                              193P    177
110,-24.8937969582276D0,3.05311331771918D-15,9.0D0,                  195P    178
-24.8937969582276D0,3.05311331771918D-15,-9.0D0;                     195P    179
508,4,0,9,13,1,0,0,9,31,1,0,0,9,25,1,0,0,9,29,0,0;                   197P    180
508,1,0,9,3,1,0;                                                     199P    181
510,191,2,1,197,199;                                                 201P    182
116,-24.8937969582276D0,3.05311331771918D-15,0.0D0,0;                203P    183
123,-1.0D0,0.0D0,0.0D0;                                              205P    184
190,203,205,209;                                                     207P    185
123,0.0D0,0.0D0,1.0D0;                                               209P    186
110,-24.8937969582276D0,4.0D0,9.0D0,-24.8937969582276D0,4.0D0,       211P    187
-9.0D0;                                                              211P    188
508,4,0,9,12,1,0,0,9,32,1,0,0,9,26,1,0,0,9,31,0,0;                   213P    189
510,207,1,1,213;                                                     215P    190
116,-24.8937969582276D0,4.0D0,0.0D0,0;                               217P    191
123,0.0D0,1.0D0,0.0D0;                                               219P    192
190,217,219,223;                                                     221P    193
123,0.0D0,0.0D0,1.0D0;                                               223P    194
110,-12.8937969582276D0,4.0D0,9.0D0,-12.8937969582276D0,4.0D0,       225P    195
-9.0D0;                                                              225P    196
508,4,0,9,11,1,0,0,9,33,1,0,0,9,27,1,0,0,9,32,0,0;                   227P    197
508,1,0,9,4,1,0;                                                     229P    198
510,221,2,1,227,229;                                                 231P    199
116,0.0D0,0.0D0,0.0D0,0;                                             233P    200
123,0.0D0,0.0D0,1.0D0;                                               235P    201
192,233,235,13.5D0,239;                                              237P    202
123,-.895806416477617D0,-.444444444444444D0,0.0D0;                   239P    203
508,4,0,9,10,1,0,0,9,19,1,0,0,9,28,1,0,0,9,33,0,0;                   241P    204
510,237,1,1,241;                                                     243P    205
116,27.0933866224478D0,6.0D0,0.0D0,0;                                245P    206
123,1.0D0,0.0D0,0.0D0;                                               247P    207
190,245,247,251;                                                     249P    208
123,0.0D0,0.0D0,-1.0D0;                                              251P    209
110,27.0933866224478D0,2.0D0,-7.0D0,27.0933866224478D0,2.0D0,        253P    210
7.0D0;                                                               253P    211
508,4,0,9,6,0,0,0,9,34,0,0,0,9,20,0,0,0,9,16,0,0;                    255P    212
510,249,1,1,255;                                                     257P    213
116,27.0933866224478D0,2.0D0,0.0D0,0;                                259P    214
123,0.0D0,-1.0D0,0.0D0;                                              261P    215
190,259,261,265;                                                     263P    216
123,0.0D0,0.0D0,-1.0D0;                                              265P    217
508,6,0,9,5,0,0,0,9,15,1,0,0,9,30,1,0,0,9,23,1,0,0,9,21,0,0,0,9,     267P    218
34,1,0;                                                              267P    219
508,1,0,9,1,1,0;                                                     269P    220
510,263,2,1,267,269;                                                 271P    221
514,14,25,1,45,1,69,1,99,1,123,1,143,1,171,1,185,1,201,1,215,1,      273P    222
231,1,243,1,257,1,271,1;                                             273P    223
186,273,1,0;                                                         275P    224
S      1G      4D    276P    224                                        T      1
