                                                                        S      1
,,15HGLASS PLATE.ipt,27HNo Iges File Name specified,22HAutodesk InventorG      1
 2012,37HAutoDesk Inventor Iges Exporter R2012,32,38,6,99,15,15HGLASS PLG      2
ATE.ipt,1.0D0,2,2HMM,1,.08D0,15H20150129.114325,.01D0,10000.0D0,3Hjge,, G      3
11,0,,;                                                                 G      4
     406       1       0       0       1       0       0       000000000D      1
     406       0       0       1       3                               0D      2
     116       2       0       0       0       0       0       000010000D      3
     116       0       0       1       0                               0D      4
     123       3       0       0       0       0       0       000010200D      5
     123       0       0       1       0                               0D      6
     190       4       0       0       0       0       0       000010000D      7
     190       0       0       1       1                               0D      8
     123       5       0       0       0       0       0       000010200D      9
     123       0       0       1       0                               0D     10
     504       6       0       0       0       0       0       000010001D     11
     504       0       0      12       1                               0D     12
     502      18       0       0       0       0       0       000010000D     13
     502       0       0      11       1                               0D     14
     110      29       0       0       0       0       0       000010000D     15
     110       0       0       1       0                               0D     16
     110      30       0       0       0       0       0       000010000D     17
     110       0       0       1       0                               0D     18
     110      31       0       0       0       0       0       000010000D     19
     110       0       0       1       0                               0D     20
     508      32       0       0       0       0       0       000010000D     21
     508       0       0       1       1                               0D     22
     510      33       0       0       0       0       0       000010000D     23
     510       0    -419       1       1                               0D     24
     116      34       0       0       0       0       0       000010000D     25
     116       0       0       1       0                               0D     26
     123      35       0       0       0       0       0       000010200D     27
     123       0       0       1       0                               0D     28
     190      36       0       0       0       0       0       000010000D     29
     190       0       0       1       1                               0D     30
     123      37       0       0       0       0       0       000010200D     31
     123       0       0       1       0                               0D     32
     110      38       0       0       0       0       0       000010000D     33
     110       0       0       1       0                               0D     34
     110      39       0       0       0       0       0       000010000D     35
     110       0       0       1       0                               0D     36
     110      40       0       0       0       0       0       000010000D     37
     110       0       0       1       0                               0D     38
     508      41       0       0       0       0       0       000010000D     39
     508       0       0       1       1                               0D     40
     510      42       0       0       0       0       0       000010000D     41
     510       0    -419       1       1                               0D     42
     116      43       0       0       0       0       0       000010000D     43
     116       0       0       1       0                               0D     44
     123      44       0       0       0       0       0       000010200D     45
     123       0       0       1       0                               0D     46
     190      45       0       0       0       0       0       000010000D     47
     190       0       0       1       1                               0D     48
     123      46       0       0       0       0       0       000010200D     49
     123       0       0       1       0                               0D     50
     110      47       0       0       0       0       0       000010000D     51
     110       0       0       1       0                               0D     52
     110      48       0       0       0       0       0       000010000D     53
     110       0       0       1       0                               0D     54
     508      49       0       0       0       0       0       000010000D     55
     508       0       0       1       1                               0D     56
     510      50       0       0       0       0       0       000010000D     57
     510       0    -419       1       1                               0D     58
     116      51       0       0       0       0       0       000010000D     59
     116       0       0       1       0                               0D     60
     123      52       0       0       0       0       0       000010200D     61
     123       0       0       1       0                               0D     62
     190      53       0       0       0       0       0       000010000D     63
     190       0       0       1       1                               0D     64
     123      54       0       0       0       0       0       000010200D     65
     123       0       0       2       0                               0D     66
     110      56       0       0       0       0       0       000010000D     67
     110       0       0       1       0                               0D     68
     110      57       0       0       0       0       0       000010000D     69
     110       0       0       1       0                               0D     70
     110      58       0       0       0       0       0       000010000D     71
     110       0       0       1       0                               0D     72
     508      59       0       0       0       0       0       000010000D     73
     508       0       0       1       1                               0D     74
     510      60       0       0       0       0       0       000010000D     75
     510       0    -419       1       1                               0D     76
     116      61       0       0       0       0       0       000010000D     77
     116       0       0       1       0                               0D     78
     123      62       0       0       0       0       0       000010200D     79
     123       0       0       1       0                               0D     80
     190      63       0       0       0       0       0       000010000D     81
     190       0       0       1       1                               0D     82
     123      64       0       0       0       0       0       000010200D     83
     123       0       0       1       0                               0D     84
     110      65       0       0       0       0       0       000010000D     85
     110       0       0       1       0                               0D     86
     110      66       0       0       0       0       0       000010000D     87
     110       0       0       1       0                               0D     88
     110      67       0       0       0       0       0       000010000D     89
     110       0       0       1       0                               0D     90
     508      68       0       0       0       0       0       000010000D     91
     508       0       0       1       1                               0D     92
     510      69       0       0       0       0       0       000010000D     93
     510       0    -419       1       1                               0D     94
     116      70       0       0       0       0       0       000010000D     95
     116       0       0       1       0                               0D     96
     123      71       0       0       0       0       0       000010200D     97
     123       0       0       1       0                               0D     98
     190      72       0       0       0       0       0       000010000D     99
     190       0       0       1       1                               0D    100
     123      73       0       0       0       0       0       000010200D    101
     123       0       0       1       0                               0D    102
     110      74       0       0       0       0       0       000010000D    103
     110       0       0       1       0                               0D    104
     110      75       0       0       0       0       0       000010000D    105
     110       0       0       1       0                               0D    106
     110      76       0       0       0       0       0       000010000D    107
     110       0       0       1       0                               0D    108
     508      77       0       0       0       0       0       000010000D    109
     508       0       0       1       1                               0D    110
     510      78       0       0       0       0       0       000010000D    111
     510       0    -419       1       1                               0D    112
     116      79       0       0       0       0       0       000010000D    113
     116       0       0       1       0                               0D    114
     123      80       0       0       0       0       0       000010200D    115
     123       0       0       1       0                               0D    116
     190      81       0       0       0       0       0       000010000D    117
     190       0       0       1       1                               0D    118
     123      82       0       0       0       0       0       000010200D    119
     123       0       0       1       0                               0D    120
     110      83       0       0       0       0       0       000010000D    121
     110       0       0       1       0                               0D    122
     110      84       0       0       0       0       0       000010000D    123
     110       0       0       1       0                               0D    124
     508      85       0       0       0       0       0       000010000D    125
     508       0       0       1       1                               0D    126
     510      86       0       0       0       0       0       000010000D    127
     510       0    -419       1       1                               0D    128
     116      87       0       0       0       0       0       000010000D    129
     116       0       0       1       0                               0D    130
     123      88       0       0       0       0       0       000010200D    131
     123       0       0       1       0                               0D    132
     190      89       0       0       0       0       0       000010000D    133
     190       0       0       1       1                               0D    134
     123      90       0       0       0       0       0       000010200D    135
     123       0       0       1       0                               0D    136
     110      91       0       0       0       0       0       000010000D    137
     110       0       0       1       0                               0D    138
     110      92       0       0       0       0       0       000010000D    139
     110       0       0       1       0                               0D    140
     508      93       0       0       0       0       0       000010000D    141
     508       0       0       1       1                               0D    142
     510      94       0       0       0       0       0       000010000D    143
     510       0    -419       1       1                               0D    144
     116      95       0       0       0       0       0       000010000D    145
     116       0       0       1       0                               0D    146
     123      96       0       0       0       0       0       000010200D    147
     123       0       0       1       0                               0D    148
     190      97       0       0       0       0       0       000010000D    149
     190       0       0       1       1                               0D    150
     123      98       0       0       0       0       0       000010200D    151
     123       0       0       1       0                               0D    152
     110      99       0       0       0       0       0       000010000D    153
     110       0       0       1       0                               0D    154
     110     100       0       0       0       0       0       000010000D    155
     110       0       0       1       0                               0D    156
     110     101       0       0       0       0       0       000010000D    157
     110       0       0       1       0                               0D    158
     508     102       0       0       0       0       0       000010000D    159
     508       0       0       1       1                               0D    160
     510     103       0       0       0       0       0       000010000D    161
     510       0    -419       1       1                               0D    162
     116     104       0       0       0       0       0       000010000D    163
     116       0       0       1       0                               0D    164
     123     105       0       0       0       0       0       000010200D    165
     123       0       0       1       0                               0D    166
     190     106       0       0       0       0       0       000010000D    167
     190       0       0       1       1                               0D    168
     123     107       0       0       0       0       0       000010200D    169
     123       0       0       1       0                               0D    170
     110     108       0       0       0       0       0       000010000D    171
     110       0       0       1       0                               0D    172
     110     109       0       0       0       0       0       000010000D    173
     110       0       0       1       0                               0D    174
     508     110       0       0       0       0       0       000010000D    175
     508       0       0       1       1                               0D    176
     510     111       0       0       0       0       0       000010000D    177
     510       0    -419       1       1                               0D    178
     116     112       0       0       0       0       0       000010000D    179
     116       0       0       1       0                               0D    180
     123     113       0       0       0       0       0       000010200D    181
     123       0       0       1       0                               0D    182
     190     114       0       0       0       0       0       000010000D    183
     190       0       0       1       1                               0D    184
     123     115       0       0       0       0       0       000010200D    185
     123       0       0       2       0                               0D    186
     110     117       0       0       0       0       0       000010000D    187
     110       0       0       1       0                               0D    188
     110     118       0       0       0       0       0       000010000D    189
     110       0       0       1       0                               0D    190
     110     119       0       0       0       0       0       000010000D    191
     110       0       0       2       0                               0D    192
     508     121       0       0       0       0       0       000010000D    193
     508       0       0       1       1                               0D    194
     510     122       0       0       0       0       0       000010000D    195
     510       0    -419       1       1                               0D    196
     116     123       0       0       0       0       0       000010000D    197
     116       0       0       1       0                               0D    198
     123     124       0       0       0       0       0       000010200D    199
     123       0       0       1       0                               0D    200
     190     125       0       0       0       0       0       000010000D    201
     190       0       0       1       1                               0D    202
     123     126       0       0       0       0       0       000010200D    203
     123       0       0       2       0                               0D    204
     110     128       0       0       0       0       0       000010000D    205
     110       0       0       1       0                               0D    206
     110     129       0       0       0       0       0       000010000D    207
     110       0       0       1       0                               0D    208
     110     130       0       0       0       0       0       000010000D    209
     110       0       0       1       0                               0D    210
     508     131       0       0       0       0       0       000010000D    211
     508       0       0       1       1                               0D    212
     510     132       0       0       0       0       0       000010000D    213
     510       0    -419       1       1                               0D    214
     116     133       0       0       0       0       0       000010000D    215
     116       0       0       1       0                               0D    216
     123     134       0       0       0       0       0       000010200D    217
     123       0       0       1       0                               0D    218
     190     135       0       0       0       0       0       000010000D    219
     190       0       0       1       1                               0D    220
     123     136       0       0       0       0       0       000010200D    221
     123       0       0       1       0                               0D    222
     110     137       0       0       0       0       0       000010000D    223
     110       0       0       1       0                               0D    224
     110     138       0       0       0       0       0       000010000D    225
     110       0       0       1       0                               0D    226
     508     139       0       0       0       0       0       000010000D    227
     508       0       0       1       1                               0D    228
     510     140       0       0       0       0       0       000010000D    229
     510       0    -419       1       1                               0D    230
     116     141       0       0       0       0       0       000010000D    231
     116       0       0       1       0                               0D    232
     123     142       0       0       0       0       0       000010200D    233
     123       0       0       1       0                               0D    234
     190     143       0       0       0       0       0       000010000D    235
     190       0       0       1       1                               0D    236
     123     144       0       0       0       0       0       000010200D    237
     123       0       0       1       0                               0D    238
     110     145       0       0       0       0       0       000010000D    239
     110       0       0       1       0                               0D    240
     110     146       0       0       0       0       0       000010000D    241
     110       0       0       1       0                               0D    242
     508     147       0       0       0       0       0       000010000D    243
     508       0       0       1       1                               0D    244
     510     148       0       0       0       0       0       000010000D    245
     510       0    -419       1       1                               0D    246
     116     149       0       0       0       0       0       000010000D    247
     116       0       0       1       0                               0D    248
     123     150       0       0       0       0       0       000010200D    249
     123       0       0       1       0                               0D    250
     190     151       0       0       0       0       0       000010000D    251
     190       0       0       1       1                               0D    252
     123     152       0       0       0       0       0       000010200D    253
     123       0       0       1       0                               0D    254
     110     153       0       0       0       0       0       000010000D    255
     110       0       0       1       0                               0D    256
     110     154       0       0       0       0       0       000010000D    257
     110       0       0       1       0                               0D    258
     508     155       0       0       0       0       0       000010000D    259
     508       0       0       1       1                               0D    260
     510     156       0       0       0       0       0       000010000D    261
     510       0    -419       1       1                               0D    262
     116     157       0       0       0       0       0       000010000D    263
     116       0       0       1       0                               0D    264
     123     158       0       0       0       0       0       000010200D    265
     123       0       0       1       0                               0D    266
     190     159       0       0       0       0       0       000010000D    267
     190       0       0       1       1                               0D    268
     123     160       0       0       0       0       0       000010200D    269
     123       0       0       1       0                               0D    270
     110     161       0       0       0       0       0       000010000D    271
     110       0       0       1       0                               0D    272
     110     162       0       0       0       0       0       000010000D    273
     110       0       0       1       0                               0D    274
     508     163       0       0       0       0       0       000010000D    275
     508       0       0       1       1                               0D    276
     510     164       0       0       0       0       0       000010000D    277
     510       0    -419       1       1                               0D    278
     116     165       0       0       0       0       0       000010000D    279
     116       0       0       1       0                               0D    280
     123     166       0       0       0       0       0       000010200D    281
     123       0       0       2       0                               0D    282
     190     168       0       0       0       0       0       000010000D    283
     190       0       0       1       1                               0D    284
     123     169       0       0       0       0       0       000010200D    285
     123       0       0       1       0                               0D    286
     110     170       0       0       0       0       0       000010000D    287
     110       0       0       1       0                               0D    288
     110     171       0       0       0       0       0       000010000D    289
     110       0       0       1       0                               0D    290
     508     172       0       0       0       0       0       000010000D    291
     508       0       0       1       1                               0D    292
     510     173       0       0       0       0       0       000010000D    293
     510       0    -419       1       1                               0D    294
     116     174       0       0       0       0       0       000010000D    295
     116       0       0       1       0                               0D    296
     123     175       0       0       0       0       0       000010200D    297
     123       0       0       1       0                               0D    298
     190     176       0       0       0       0       0       000010000D    299
     190       0       0       1       1                               0D    300
     123     177       0       0       0       0       0       000010200D    301
     123       0       0       1       0                               0D    302
     110     178       0       0       0       0       0       000010000D    303
     110       0       0       1       0                               0D    304
     110     179       0       0       0       0       0       000010000D    305
     110       0       0       1       0                               0D    306
     508     180       0       0       0       0       0       000010000D    307
     508       0       0       1       1                               0D    308
     510     181       0       0       0       0       0       000010000D    309
     510       0    -419       1       1                               0D    310
     116     182       0       0       0       0       0       000010000D    311
     116       0       0       1       0                               0D    312
     123     183       0       0       0       0       0       000010200D    313
     123       0       0       2       0                               0D    314
     190     185       0       0       0       0       0       000010000D    315
     190       0       0       1       1                               0D    316
     123     186       0       0       0       0       0       000010200D    317
     123       0       0       1       0                               0D    318
     110     187       0       0       0       0       0       000010000D    319
     110       0       0       1       0                               0D    320
     110     188       0       0       0       0       0       000010000D    321
     110       0       0       1       0                               0D    322
     508     189       0       0       0       0       0       000010000D    323
     508       0       0       1       1                               0D    324
     510     190       0       0       0       0       0       000010000D    325
     510       0    -419       1       1                               0D    326
     116     191       0       0       0       0       0       000010000D    327
     116       0       0       1       0                               0D    328
     123     192       0       0       0       0       0       000010200D    329
     123       0       0       1       0                               0D    330
     190     193       0       0       0       0       0       000010000D    331
     190       0       0       1       1                               0D    332
     123     194       0       0       0       0       0       000010200D    333
     123       0       0       1       0                               0D    334
     110     195       0       0       0       0       0       000010000D    335
     110       0       0       1       0                               0D    336
     110     196       0       0       0       0       0       000010000D    337
     110       0       0       1       0                               0D    338
     508     197       0       0       0       0       0       000010000D    339
     508       0       0       1       1                               0D    340
     510     198       0       0       0       0       0       000010000D    341
     510       0    -419       1       1                               0D    342
     116     199       0       0       0       0       0       000010000D    343
     116       0       0       1       0                               0D    344
     123     200       0       0       0       0       0       000010200D    345
     123       0       0       1       0                               0D    346
     190     201       0       0       0       0       0       000010000D    347
     190       0       0       1       1                               0D    348
     123     202       0       0       0       0       0       000010200D    349
     123       0       0       1       0                               0D    350
     508     203       0       0       0       0       0       000010000D    351
     508       0       0       1       1                               0D    352
     510     204       0       0       0       0       0       000010000D    353
     510       0    -419       1       1                               0D    354
     116     205       0       0       0       0       0       000010000D    355
     116       0       0       1       0                               0D    356
     123     206       0       0       0       0       0       000010200D    357
     123       0       0       1       0                               0D    358
     190     207       0       0       0       0       0       000010000D    359
     190       0       0       1       1                               0D    360
     123     208       0       0       0       0       0       000010200D    361
     123       0       0       1       0                               0D    362
     508     209       0       0       0       0       0       000010000D    363
     508       0       0       1       1                               0D    364
     510     210       0       0       0       0       0       000010000D    365
     510       0    -419       1       1                               0D    366
     116     211       0       0       0       0       0       000010000D    367
     116       0       0       1       0                               0D    368
     123     212       0       0       0       0       0       000010200D    369
     123       0       0       1       0                               0D    370
     190     213       0       0       0       0       0       000010000D    371
     190       0       0       1       1                               0D    372
     123     214       0       0       0       0       0       000010200D    373
     123       0       0       1       0                               0D    374
     508     215       0       0       0       0       0       000010000D    375
     508       0       0       1       1                               0D    376
     510     216       0       0       0       0       0       000010000D    377
     510       0    -419       1       1                               0D    378
     116     217       0       0       0       0       0       000010000D    379
     116       0       0       1       0                               0D    380
     123     218       0       0       0       0       0       000010200D    381
     123       0       0       1       0                               0D    382
     190     219       0       0       0       0       0       000010000D    383
     190       0       0       1       1                               0D    384
     123     220       0       0       0       0       0       000010200D    385
     123       0       0       1       0                               0D    386
     508     221       0       0       0       0       0       000010000D    387
     508       0       0       1       1                               0D    388
     510     222       0       0       0       0       0       000010000D    389
     510       0    -419       1       1                               0D    390
     116     223       0       0       0       0       0       000010000D    391
     116       0       0       1       0                               0D    392
     123     224       0       0       0       0       0       000010200D    393
     123       0       0       1       0                               0D    394
     190     225       0       0       0       0       0       000010000D    395
     190       0       0       1       1                               0D    396
     123     226       0       0       0       0       0       000010200D    397
     123       0       0       1       0                               0D    398
     508     227       0       0       0       0       0       000010000D    399
     508       0       0       1       1                               0D    400
     510     228       0       0       0       0       0       000010000D    401
     510       0    -419       1       1                               0D    402
     116     229       0       0       0       0       0       000010000D    403
     116       0       0       1       0                               0D    404
     123     230       0       0       0       0       0       000010200D    405
     123       0       0       1       0                               0D    406
     190     231       0       0       0       0       0       000010000D    407
     190       0       0       1       1                               0D    408
     123     232       0       0       0       0       0       000010200D    409
     123       0       0       1       0                               0D    410
     508     233       0       0       0       0       0       000010000D    411
     508       0       0       1       1                               0D    412
     510     234       0       0       0       0       0       000010000D    413
     510       0    -419       1       1                               0D    414
     514     235       0       0       0       0       0       000010000D    415
     514       0       0       3       1                               0D    416
     186     238       0       0       1       0       0       000000000D    417
     186       0       0       1       0                  Solid1       0D    418
     314     239       0       0       0       0       0       000000000D    419
     314       0       1       1       0                               0D    420
406,2,0,11HGLASS PLATE;                                                1P      1
116,-107.5D0,-119.25D0,-1.25D0,0;                                      3P      2
123,-.577350269189632D0,-.577350269189632D0,-.577350269189613D0;       5P      3
190,3,5,9;                                                             7P      4
123,-.707106781186536D0,3.20493781063931D-17,.707106781186559D0;       9P      5
504,48,15,13,1,13,2,17,13,3,13,1,19,13,2,13,3,33,13,4,13,5,35,        11P      6
13,6,13,4,37,13,5,13,6,51,13,4,13,3,53,13,1,13,6,67,13,7,13,8,        11P      7
69,13,9,13,7,71,13,8,13,9,85,13,10,13,11,87,13,12,13,10,89,13,        11P      8
11,13,12,103,13,13,13,14,105,13,15,13,13,107,13,14,13,15,121,13,      11P      9
13,13,9,123,13,7,13,15,137,13,15,13,4,139,13,5,13,14,153,13,16,       11P     10
13,17,155,13,18,13,16,157,13,17,13,18,171,13,16,13,12,173,13,10,      11P     11
13,18,187,13,19,13,20,189,13,21,13,19,191,13,20,13,21,205,13,22,      11P     12
13,23,207,13,24,13,22,209,13,23,13,24,223,13,19,13,24,225,13,22,      11P     13
13,21,239,13,24,13,13,241,13,14,13,23,255,13,18,13,22,257,13,23,      11P     14
13,17,271,13,21,13,10,273,13,11,13,20,287,13,9,13,19,289,13,20,       11P     15
13,8,303,13,6,13,16,305,13,17,13,5,319,13,12,13,1,321,13,2,13,        11P     16
11,335,13,3,13,7,337,13,8,13,2;                                       11P     17
502,24,-106.75D0,-120.0D0,-1.25D0,-106.75D0,-119.25D0,-2.0D0,         13P     18
-107.5D0,-119.25D0,-1.25D0,-107.5D0,-119.25D0,1.25D0,-106.75D0,       13P     19
-119.25D0,2.0D0,-106.75D0,-120.0D0,1.25D0,-107.5D0,119.25D0,          13P     20
-1.25D0,-106.75D0,119.25D0,-2.0D0,-106.75D0,120.0D0,-1.25D0,          13P     21
107.5D0,-119.25D0,-1.25D0,106.75D0,-119.25D0,-2.0D0,106.75D0,         13P     22
-120.0D0,-1.25D0,-106.75D0,120.0D0,1.25D0,-106.75D0,119.25D0,         13P     23
2.0D0,-107.5D0,119.25D0,1.25D0,106.75D0,-120.0D0,1.25D0,              13P     24
106.75D0,-119.25D0,2.0D0,107.5D0,-119.25D0,1.25D0,106.75D0,           13P     25
120.0D0,-1.25D0,106.75D0,119.25D0,-2.0D0,107.5D0,119.25D0,            13P     26
-1.25D0,107.5D0,119.25D0,1.25D0,106.75D0,119.25D0,2.0D0,              13P     27
106.75D0,120.0D0,1.25D0;                                              13P     28
110,-106.75D0,-120.0D0,-1.25D0,-106.75D0,-119.25D0,-2.0D0;            15P     29
110,-107.5D0,-119.25D0,-1.25D0,-106.75D0,-120.0D0,-1.25D0;            17P     30
110,-106.75D0,-119.25D0,-2.0D0,-107.5D0,-119.25D0,-1.25D0;            19P     31
508,3,0,11,1,0,0,0,11,2,0,0,0,11,3,0,0;                               21P     32
510,7,1,1,21;                                                         23P     33
116,-106.75D0,-120.0D0,1.25D0,0;                                      25P     34
123,-.577350269189628D0,-.577350269189628D0,.577350269189622D0;       27P     35
190,25,27,31;                                                         29P     36
123,.707106781186544D0,0.0D0,.707106781186551D0;                      31P     37
110,-107.5D0,-119.25D0,1.25D0,-106.75D0,-119.25D0,2.0D0;              33P     38
110,-106.75D0,-120.0D0,1.25D0,-107.5D0,-119.25D0,1.25D0;              35P     39
110,-106.75D0,-119.25D0,2.0D0,-106.75D0,-120.0D0,1.25D0;              37P     40
508,3,0,11,4,0,0,0,11,5,0,0,0,11,6,0,0;                               39P     41
510,29,1,1,39;                                                        41P     42
116,-107.125D0,-119.625D0,0.0D0,0;                                    43P     43
123,-.707106781186548D0,-.707106781186548D0,0.0D0;                    45P     44
190,43,45,49;                                                         47P     45
123,0.0D0,0.0D0,1.0D0;                                                49P     46
110,-107.5D0,-119.25D0,1.25D0,-107.5D0,-119.25D0,-1.25D0;             51P     47
110,-106.75D0,-120.0D0,-1.25D0,-106.75D0,-120.0D0,1.25D0;             53P     48
508,4,0,11,5,1,0,0,11,7,1,0,0,11,2,1,0,0,11,8,1,0;                    55P     49
510,47,1,1,55;                                                        57P     50
116,-106.75D0,120.0D0,-1.25D0,0;                                      59P     51
123,-.577350269189632D0,.577350269189632D0,-.577350269189613D0;       61P     52
190,59,61,65;                                                         63P     53
123,-.707106781186536D0,-3.20493781063931D-17,                        65P     54
.707106781186559D0;                                                   65P     55
110,-107.5D0,119.25D0,-1.25D0,-106.75D0,119.25D0,-2.0D0;              67P     56
110,-106.75D0,120.0D0,-1.25D0,-107.5D0,119.25D0,-1.25D0;              69P     57
110,-106.75D0,119.25D0,-2.0D0,-106.75D0,120.0D0,-1.25D0;              71P     58
508,3,0,11,9,0,0,0,11,10,0,0,0,11,11,0,0;                             73P     59
510,63,1,1,73;                                                        75P     60
116,106.75D0,-120.0D0,-1.25D0,0;                                      77P     61
123,.577350269189628D0,-.577350269189628D0,-.577350269189622D0;       79P     62
190,77,79,83;                                                         81P     63
123,-.707106781186544D0,0.0D0,-.707106781186551D0;                    83P     64
110,107.5D0,-119.25D0,-1.25D0,106.75D0,-119.25D0,-2.0D0;              85P     65
110,106.75D0,-120.0D0,-1.25D0,107.5D0,-119.25D0,-1.25D0;              87P     66
110,106.75D0,-119.25D0,-2.0D0,106.75D0,-120.0D0,-1.25D0;              89P     67
508,3,0,11,12,0,0,0,11,13,0,0,0,11,14,0,0;                            91P     68
510,81,1,1,91;                                                        93P     69
116,-107.5D0,119.25D0,1.25D0,0;                                       95P     70
123,-.577350269189632D0,.577350269189632D0,.577350269189613D0;        97P     71
190,95,97,101;                                                        99P     72
123,.707106781186536D0,3.20493781063931D-17,.707106781186559D0;      101P     73
110,-106.75D0,120.0D0,1.25D0,-106.75D0,119.25D0,2.0D0;               103P     74
110,-107.5D0,119.25D0,1.25D0,-106.75D0,120.0D0,1.25D0;               105P     75
110,-106.75D0,119.25D0,2.0D0,-107.5D0,119.25D0,1.25D0;               107P     76
508,3,0,11,15,0,0,0,11,16,0,0,0,11,17,0,0;                           109P     77
510,99,1,1,109;                                                      111P     78
116,-107.125D0,119.625D0,0.0D0,0;                                    113P     79
123,-.707106781186548D0,.707106781186548D0,0.0D0;                    115P     80
190,113,115,119;                                                     117P     81
123,0.0D0,0.0D0,1.0D0;                                               119P     82
110,-106.75D0,120.0D0,1.25D0,-106.75D0,120.0D0,-1.25D0;              121P     83
110,-107.5D0,119.25D0,-1.25D0,-107.5D0,119.25D0,1.25D0;              123P     84
508,4,0,11,16,1,0,0,11,18,1,0,0,11,10,1,0,0,11,19,1,0;               125P     85
510,117,1,1,125;                                                     127P     86
116,-107.125D0,-60.0D0,1.625D0,0;                                    129P     87
123,-.707106781186559D0,-2.616820764473D-16,.707106781186536D0;      131P     88
190,129,131,135;                                                     133P     89
123,.707106781186536D0,0.0D0,.707106781186559D0;                     135P     90
110,-107.5D0,119.25D0,1.25D0,-107.5D0,-119.25D0,1.25D0;              137P     91
110,-106.75D0,-119.25D0,2.0D0,-106.75D0,119.25D0,2.0D0;              139P     92
508,4,0,11,17,1,0,0,11,20,1,0,0,11,4,1,0,0,11,21,1,0;                141P     93
510,133,1,1,141;                                                     143P     94
116,107.5D0,-119.25D0,1.25D0,0;                                      145P     95
123,.577350269189637D0,-.577350269189637D0,.577350269189604D0;       147P     96
190,145,147,151;                                                     149P     97
123,.707106781186527D0,0.0D0,-.707106781186568D0;                    151P     98
110,106.75D0,-120.0D0,1.25D0,106.75D0,-119.25D0,2.0D0;               153P     99
110,107.5D0,-119.25D0,1.25D0,106.75D0,-120.0D0,1.25D0;               155P    100
110,106.75D0,-119.25D0,2.0D0,107.5D0,-119.25D0,1.25D0;               157P    101
508,3,0,11,22,0,0,0,11,23,0,0,0,11,24,0,0;                           159P    102
510,149,1,1,159;                                                     161P    103
116,107.125D0,-119.625D0,0.0D0,0;                                    163P    104
123,.707106781186548D0,-.707106781186548D0,0.0D0;                    165P    105
190,163,165,169;                                                     167P    106
123,0.0D0,0.0D0,-1.0D0;                                              169P    107
110,106.75D0,-120.0D0,1.25D0,106.75D0,-120.0D0,-1.25D0;              171P    108
110,107.5D0,-119.25D0,-1.25D0,107.5D0,-119.25D0,1.25D0;              173P    109
508,4,0,11,23,1,0,0,11,25,1,0,0,11,13,1,0,0,11,26,1,0;               175P    110
510,167,1,1,175;                                                     177P    111
116,107.5D0,119.25D0,-1.25D0,0;                                      179P    112
123,.577350269189623D0,.577350269189623D0,-.577350269189631D0;       181P    113
190,179,181,185;                                                     183P    114
123,-.707106781186552D0,3.20493781063926D-17,                        185P    115
-.707106781186543D0;                                                 185P    116
110,106.75D0,120.0D0,-1.25D0,106.75D0,119.25D0,-2.0D0;               187P    117
110,107.5D0,119.25D0,-1.25D0,106.75D0,120.0D0,-1.25D0;               189P    118
110,106.75D0,119.25D0,-1.99999999999999D0,107.5D0,119.25D0,          191P    119
-1.25D0;                                                             191P    120
508,3,0,11,27,0,0,0,11,28,0,0,0,11,29,0,0;                           193P    121
510,183,1,1,193;                                                     195P    122
116,106.75D0,120.0D0,1.25D0,0;                                       197P    123
123,.577350269189619D0,.577350269189619D0,.57735026918964D0;         199P    124
190,197,199,203;                                                     201P    125
123,.707106781186561D0,-3.20493781063923D-17,                        203P    126
-.707106781186534D0;                                                 203P    127
110,107.5D0,119.25D0,1.25D0,106.75D0,119.25D0,2.0D0;                 205P    128
110,106.75D0,120.0D0,1.25D0,107.5D0,119.25D0,1.25D0;                 207P    129
110,106.75D0,119.25D0,2.0D0,106.75D0,120.0D0,1.25D0;                 209P    130
508,3,0,11,30,0,0,0,11,31,0,0,0,11,32,0,0;                           211P    131
510,201,1,1,211;                                                     213P    132
116,107.125D0,119.625D0,0.0D0,0;                                     215P    133
123,.707106781186548D0,.707106781186548D0,0.0D0;                     217P    134
190,215,217,221;                                                     219P    135
123,0.0D0,0.0D0,-1.0D0;                                              221P    136
110,106.75D0,120.0D0,-1.25D0,106.75D0,120.0D0,1.25D0;                223P    137
110,107.5D0,119.25D0,1.25D0,107.5D0,119.25D0,-1.25D0;                225P    138
508,4,0,11,28,1,0,0,11,33,1,0,0,11,31,1,0,0,11,34,1,0;               227P    139
510,219,1,1,227;                                                     229P    140
116,-53.75D0,119.625D0,1.625D0,0;                                    231P    141
123,-5.84220449742803D-17,.707106781186551D0,.707106781186544D0;     233P    142
190,231,233,237;                                                     235P    143
123,1.0D0,0.0D0,0.0D0;                                               237P    144
110,106.75D0,120.0D0,1.25D0,-106.75D0,120.0D0,1.25D0;                239P    145
110,-106.75D0,119.25D0,2.0D0,106.75D0,119.25D0,2.0D0;                241P    146
508,4,0,11,32,1,0,0,11,35,1,0,0,11,15,1,0,0,11,36,1,0;               243P    147
510,235,1,1,243;                                                     245P    148
116,107.125D0,60.0D0,1.625D0,0;                                      247P    149
123,.707106781186551D0,2.61682076447297D-16,.707106781186544D0;      249P    150
190,247,249,253;                                                     251P    151
123,.707106781186544D0,0.0D0,-.707106781186551D0;                    253P    152
110,107.5D0,-119.25D0,1.25D0,107.5D0,119.25D0,1.25D0;                255P    153
110,106.75D0,119.25D0,2.0D0,106.75D0,-119.25D0,2.0D0;                257P    154
508,4,0,11,24,1,0,0,11,37,1,0,0,11,30,1,0,0,11,38,1,0;               259P    155
510,251,1,1,259;                                                     261P    156
116,107.125D0,60.0D0,-1.625D0,0;                                     263P    157
123,.707106781186551D0,2.61682076447297D-16,-.707106781186544D0;     265P    158
190,263,265,269;                                                     267P    159
123,-.707106781186544D0,0.0D0,-.707106781186551D0;                   269P    160
110,107.5D0,119.25D0,-1.25D0,107.5D0,-119.25D0,-1.25D0;              271P    161
110,106.75D0,-119.25D0,-2.0D0,106.75D0,119.25D0,-2.0D0;              273P    162
508,4,0,11,29,1,0,0,11,39,1,0,0,11,12,1,0,0,11,40,1,0;               275P    163
510,267,1,1,275;                                                     277P    164
116,-53.75D0,119.625D0,-1.625D0,0;                                   279P    165
123,-5.84220449742803D-17,.707106781186551D0,                        281P    166
-.707106781186544D0;                                                 281P    167
190,279,281,285;                                                     283P    168
123,-1.0D0,0.0D0,0.0D0;                                              285P    169
110,-106.75D0,120.0D0,-1.25D0,106.75D0,120.0D0,-1.25D0;              287P    170
110,106.75D0,119.25D0,-2.0D0,-106.75D0,119.25D0,-2.0D0;              289P    171
508,4,0,11,11,1,0,0,11,41,1,0,0,11,27,1,0,0,11,42,1,0;               291P    172
510,283,1,1,291;                                                     293P    173
116,53.75D0,-119.625D0,1.625D0,0;                                    295P    174
123,1.75266134922841D-16,-.707106781186551D0,.707106781186544D0;     297P    175
190,295,297,301;                                                     299P    176
123,1.0D0,0.0D0,0.0D0;                                               301P    177
110,-106.75D0,-120.0D0,1.25D0,106.75D0,-120.0D0,1.25D0;              303P    178
110,106.75D0,-119.25D0,2.0D0,-106.75D0,-119.25D0,2.0D0;              305P    179
508,4,0,11,6,1,0,0,11,43,1,0,0,11,22,1,0,0,11,44,1,0;                307P    180
510,299,1,1,307;                                                     309P    181
116,53.75D0,-119.625D0,-1.625D0,0;                                   311P    182
123,1.75266134922841D-16,-.707106781186551D0,                        313P    183
-.707106781186544D0;                                                 313P    184
190,311,313,317;                                                     315P    185
123,-1.0D0,0.0D0,0.0D0;                                              317P    186
110,106.75D0,-120.0D0,-1.25D0,-106.75D0,-120.0D0,-1.25D0;            319P    187
110,-106.75D0,-119.25D0,-2.0D0,106.75D0,-119.25D0,-2.0D0;            321P    188
508,4,0,11,14,1,0,0,11,45,1,0,0,11,1,1,0,0,11,46,1,0;                323P    189
510,315,1,1,323;                                                     325P    190
116,-107.125D0,-60.0D0,-1.625D0,0;                                   327P    191
123,-.707106781186559D0,-2.616820764473D-16,-.707106781186536D0;     329P    192
190,327,329,333;                                                     331P    193
123,-.707106781186536D0,0.0D0,.707106781186559D0;                    333P    194
110,-107.5D0,-119.25D0,-1.25D0,-107.5D0,119.25D0,-1.25D0;            335P    195
110,-106.75D0,119.25D0,-2.0D0,-106.75D0,-119.25D0,-2.0D0;            337P    196
508,4,0,11,3,1,0,0,11,47,1,0,0,11,9,1,0,0,11,48,1,0;                 339P    197
510,331,1,1,339;                                                     341P    198
116,-107.5D0,-120.0D0,0.0D0,0;                                       343P    199
123,-1.0D0,0.0D0,0.0D0;                                              345P    200
190,343,345,349;                                                     347P    201
123,0.0D0,0.0D0,1.0D0;                                               349P    202
508,4,0,11,19,0,0,0,11,47,0,0,0,11,7,0,0,0,11,20,0,0;                351P    203
510,347,1,1,351;                                                     353P    204
116,-1.77635683940025D-14,-1.03369416478586D-15,2.0D0,0;             355P    205
123,0.0D0,0.0D0,1.0D0;                                               357P    206
190,355,357,361;                                                     359P    207
123,1.0D0,0.0D0,0.0D0;                                               361P    208
508,4,0,11,21,0,0,0,11,44,0,0,0,11,38,0,0,0,11,36,0,0;               363P    209
510,359,1,1,363;                                                     365P    210
116,107.5D0,-120.0D0,0.0D0,0;                                        367P    211
123,0.0D0,-1.0D0,0.0D0;                                              369P    212
190,367,369,373;                                                     371P    213
123,0.0D0,0.0D0,-1.0D0;                                              373P    214
508,4,0,11,25,0,0,0,11,43,0,0,0,11,8,0,0,0,11,45,0,0;                375P    215
510,371,1,1,375;                                                     377P    216
116,107.5D0,120.0D0,0.0D0,0;                                         379P    217
123,1.0D0,0.0D0,0.0D0;                                               381P    218
190,379,381,385;                                                     383P    219
123,0.0D0,0.0D0,-1.0D0;                                              385P    220
508,4,0,11,34,0,0,0,11,37,0,0,0,11,26,0,0,0,11,39,0,0;               387P    221
510,383,1,1,387;                                                     389P    222
116,-107.5D0,120.0D0,0.0D0,0;                                        391P    223
123,0.0D0,1.0D0,0.0D0;                                               393P    224
190,391,393,397;                                                     395P    225
123,0.0D0,0.0D0,1.0D0;                                               397P    226
508,4,0,11,33,0,0,0,11,41,0,0,0,11,18,0,0,0,11,35,0,0;               399P    227
510,395,1,1,399;                                                     401P    228
116,-1.77635683940025D-14,1.81894681357168D-16,-2.0D0,0;             403P    229
123,0.0D0,0.0D0,-1.0D0;                                              405P    230
190,403,405,409;                                                     407P    231
123,-1.0D0,0.0D0,0.0D0;                                              409P    232
508,4,0,11,40,0,0,0,11,46,0,0,0,11,48,0,0,0,11,42,0,0;               411P    233
510,407,1,1,411;                                                     413P    234
514,26,23,1,41,1,57,1,75,1,93,1,111,1,127,1,143,1,161,1,177,1,       415P    235
195,1,213,1,229,1,245,1,261,1,277,1,293,1,309,1,325,1,341,1,353,     415P    236
1,365,1,377,1,389,1,401,1,413,1;                                     415P    237
186,415,1,0;                                                         417P    238
314,30.1961004734039D0,30.1961004734039D0,30.1961004734039D0,;       419P    239
S      1G      4D    420P    239                                        T      1
